SplineFontDB: 3.0
FontName: RaghuMalayalamSans
FullName: RaghuMalayalam
FamilyName: RaghuMalayalam
Weight: Book
Copyright: RaghuMalayalam`Centre for Development of Advanced Computing, Mumbai. Font Design: Prof.R.K.Joshi and Rajith Kumar K.M., assisted by Nirmal Biswas, Jui Mhatre and Supriya Kharkar. Script: Malayalam. Full Font. Contains font + Unicode set requirements.
Version:  Version 2.00 (2008)
ItalicAngle: 0
UnderlinePosition: -290
UnderlineWidth: 116
Ascent: 1638
Descent: 410
LayerCount: 2
Layer: 0 1 "Back"  1
Layer: 1 1 "Fore"  0
XUID: [1021 505 1187139440 9425761]
FSType: 0
OS2Version: 1
OS2_WeightWidthSlopeOnly: 0
OS2_UseTypoMetrics: 1
CreationTime: 1136575263
ModificationTime: 1204461362
PfmFamily: 81
TTFWeight: 400
TTFWidth: 5
LineGap: 0
VLineGap: 0
Panose: 0 0 4 0 0 0 0 0 0 0
OS2TypoAscent: -118
OS2TypoAOffset: 1
OS2TypoDescent: -550
OS2TypoDOffset: 1
OS2TypoLinegap: 0
OS2WinAscent: -21
OS2WinAOffset: 1
OS2WinDescent: 35
OS2WinDOffset: 1
HheadAscent: -21
HheadAOffset: 1
HheadDescent: -35
HheadDOffset: 1
OS2SubXSize: 1434
OS2SubYSize: 1331
OS2SubXOff: 0
OS2SubYOff: 293
OS2SupXSize: 1434
OS2SupYSize: 1331
OS2SupXOff: 0
OS2SupYOff: 928
OS2StrikeYSize: 116
OS2StrikeYPos: 484
OS2Vendor: 'NCST'
OS2CodePages: 00000001.00000000
OS2UnicodeRanges: 00800003.00000000.00000000.00000000
Lookup: 4 0 0 "'akhn' Akhand in Malay+AQEA-lam lookup 0"  {"'akhn' Akhand in Malay+AQEA-lam lookup 0 subtable"  } ['akhn' ('mlym' <'dflt' > ) ]
Lookup: 4 0 0 "'blwf' Below Base Forms in Malay+AQEA-lam lookup 1"  {"'blwf' Below Base Forms in Malay+AQEA-lam lookup 1 subtable"  } ['blwf' ('mlym' <'dflt' > ) ]
Lookup: 4 0 0 "'blws' Below Base Substitutions in Malay+AQEA-lam lookup 2"  {"'blws' Below Base Substitutions in Malay+AQEA-lam lookup 2 subtable"  } ['blws' ('mlym' <'dflt' > ) ]
Lookup: 4 0 0 "'half' Half Forms in Malay+AQEA-lam lookup 3"  {"'half' Half Forms in Malay+AQEA-lam lookup 3 subtable"  } ['half' ('mlym' <'dflt' > ) ]

StartChar: .notdef
Encoding: 65536 -1 0
Width: 1024
Flags: W
LayerCount: 2
Fore
SplineSet
128 0 m 1,0,-1
 128 1520 l 1,1,-1
 896 1520 l 1,2,-1
 896 0 l 1,3,-1
 128 0 l 1,0,-1
256 128 m 1,4,-1
 768 128 l 1,5,-1
 768 1392 l 1,6,-1
 256 1392 l 1,7,-1
 256 128 l 1,4,-1
EndSplineSet
Ligature2: "'half' Half Forms in Malay+AQEA-lam lookup 3 subtable" uni0D2C uni0D4D
EndChar

StartChar: exclam
Encoding: 33 33 4
Width: 522
GlyphClass: 2
Flags: W
LayerCount: 2
Fore
SplineSet
418 1391 m 1,0,1
 407 1242 407 1242 401 848 c 2,2,-1
 397 569 l 2,3,4
 395 418 395 418 396 381 c 1,5,6
 346 399 346 399 299 381 c 1,7,8
 300 513 300 513 299 573 c 2,9,-1
 295 848 l 2,10,11
 291 1129 291 1129 276 1391 c 1,12,13
 305 1378 305 1378 346 1378 c 0,14,15
 386 1378 386 1378 418 1391 c 1,0,1
481 101 m 0,16,17
 481 49 481 49 444 12 c 128,-1,18
 407 -25 407 -25 355 -25 c 256,19,20
 303 -25 303 -25 266 12 c 128,-1,21
 229 49 229 49 229 101 c 0,22,23
 229 154 229 154 266 190.5 c 128,-1,24
 303 227 303 227 355 227 c 256,25,26
 407 227 407 227 444 190.5 c 128,-1,27
 481 154 481 154 481 101 c 0,16,17
EndSplineSet
EndChar

StartChar: quotedbl
Encoding: 34 34 5
Width: 561
GlyphClass: 2
Flags: W
LayerCount: 2
Fore
SplineSet
561 1391 m 1,0,1
 553 1264 553 1264 541 1001 c 1,2,3
 507 1012 507 1012 467 1001 c 1,4,5
 462 1191 462 1191 446 1391 c 1,6,7
 503 1377 503 1377 561 1391 c 1,0,1
303 1391 m 1,8,9
 295 1264 295 1264 283 1001 c 1,10,11
 249 1012 249 1012 209 1001 c 1,12,13
 203 1191 203 1191 188 1391 c 1,14,15
 245 1377 245 1377 303 1391 c 1,8,9
EndSplineSet
EndChar

StartChar: numbersign
Encoding: 35 35 6
Width: 1061
GlyphClass: 2
Flags: W
LayerCount: 2
Fore
SplineSet
1061 727 m 1,0,-1
 860 727 l 1,1,-1
 825 479 l 1,2,-1
 1014 479 l 1,3,4
 1003 435 1003 435 1014 391 c 1,5,-1
 811 391 l 1,6,-1
 754 0 l 1,7,8
 734 6 734 6 702 6 c 0,9,10
 671 6 671 6 655 0 c 1,11,-1
 711 391 l 1,12,-1
 463 391 l 1,13,-1
 406 0 l 1,14,15
 350 13 350 13 307 0 c 1,16,-1
 369 391 l 1,17,-1
 168 391 l 1,18,19
 174 419 174 419 174 438 c 0,20,21
 174 456 174 456 168 479 c 1,22,-1
 383 479 l 1,23,-1
 420 727 l 1,24,-1
 217 727 l 1,25,26
 223 756 223 756 223 771 c 256,27,28
 223 786 223 786 217 815 c 1,29,-1
 438 815 l 1,30,-1
 489 1184 l 1,31,32
 543 1172 543 1172 592 1184 c 1,33,-1
 535 815 l 1,34,-1
 778 815 l 1,35,-1
 831 1184 l 1,36,37
 883 1164 883 1164 930 1184 c 1,38,-1
 879 815 l 1,39,-1
 1061 815 l 1,40,41
 1048 760 1048 760 1061 727 c 1,0,-1
762 727 m 1,42,-1
 518 727 l 1,43,-1
 481 479 l 1,44,-1
 733 479 l 1,45,-1
 762 727 l 1,42,-1
EndSplineSet
EndChar

StartChar: dollar
Encoding: 36 36 7
Width: 972
GlyphClass: 2
Flags: W
LayerCount: 2
Fore
SplineSet
924 1010 m 1,0,1
 882 1005 882 1005 856 964 c 1,2,3
 834 1021 834 1021 801 1063 c 1,4,5
 737 1138 737 1138 637 1148 c 1,6,-1
 637 645 l 1,7,8
 670 632 670 632 690 625 c 0,9,10
 848 566 848 566 909 464 c 0,11,12
 951 395 951 395 951 310 c 0,13,14
 951 184 951 184 866 92 c 1,15,16
 780 -6 780 -6 637 -25 c 1,17,-1
 637 -135 l 1,18,19
 600 -121 600 -121 563 -135 c 1,20,-1
 563 -28 l 1,21,22
 396 -23 396 -23 279 102 c 0,23,24
 238 147 238 147 209 197 c 1,25,26
 253 211 253 211 284 250 c 1,27,28
 304 192 304 192 330 160 c 1,29,30
 360 108 360 108 423 68 c 0,31,32
 493 24 493 24 563 22 c 1,33,-1
 563 558 l 1,34,35
 537 568 537 568 485 587 c 0,36,37
 271 665 271 665 271 872 c 0,38,39
 271 906 271 906 278 941 c 1,40,41
 311 1081 311 1081 446 1160 c 1,42,43
 509 1190 509 1190 563 1196 c 1,44,-1
 563 1319 l 1,45,46
 600 1301 600 1301 637 1319 c 1,47,-1
 637 1198 l 1,48,49
 705 1198 705 1198 776 1159 c 1,50,51
 873 1108 873 1108 924 1010 c 1,0,1
563 676 m 1,52,-1
 563 1143 l 1,53,54
 508 1130 508 1130 460 1092 c 0,55,56
 383 1030 383 1030 380 941 c 1,57,58
 377 917 377 917 377 899 c 0,59,60
 377 777 377 777 474 719 c 1,61,62
 484 711 484 711 563 676 c 1,52,-1
801 143 m 0,63,64
 840 206 840 206 840 293 c 0,65,66
 840 384 840 384 790 434 c 1,67,68
 744 484 744 484 637 527 c 1,69,-1
 637 28 l 1,70,71
 747 56 747 56 801 143 c 0,63,64
EndSplineSet
EndChar

StartChar: percent
Encoding: 37 37 8
Width: 1181
GlyphClass: 2
Flags: W
LayerCount: 2
Fore
SplineSet
642 1056 m 0,0,1
 639 951 639 951 567 890 c 0,2,3
 504 837 504 837 415 836 c 1,4,5
 322 836 322 836 257 894 c 0,6,7
 189 956 189 956 188 1056 c 1,8,9
 188 1159 188 1159 261 1222 c 0,10,11
 326 1277 326 1277 415 1278 c 1,12,13
 507 1278 507 1278 574 1218 c 0,14,15
 645 1154 645 1154 642 1056 c 0,0,1
1117 1228 m 1,16,17
 950 986 950 986 790 735 c 2,18,-1
 627 479 l 2,19,20
 424 162 424 162 281 -83 c 1,21,22
 253 -43 253 -43 196 -27 c 1,23,24
 297 110 297 110 562 526 c 2,25,-1
 723 778 l 2,26,27
 840 962 840 962 1030 1282 c 1,28,29
 1052 1237 1052 1237 1117 1228 c 1,16,17
1181 201 m 0,30,31
 1178 96 1178 96 1106 35 c 0,32,33
 1043 -18 1043 -18 954 -19 c 0,34,35
 860 -20 860 -20 796 39 c 1,36,37
 728 100 728 100 727 201 c 0,38,39
 726 303 726 303 800 366 c 0,40,41
 865 422 865 422 954 423 c 1,42,43
 1046 423 1046 423 1112 363 c 0,44,45
 1183 299 1183 299 1181 201 c 0,30,31
555 1056 m 1,46,47
 558 1236 558 1236 415 1239 c 1,48,49
 274 1235 274 1235 276 1056 c 0,50,51
 277 878 277 878 415 874 c 0,52,53
 483 873 483 873 519.5 924 c 128,-1,54
 556 975 556 975 555 1056 c 1,46,47
1094 201 m 1,55,56
 1097 380 1097 380 954 384 c 1,57,58
 813 380 813 380 814 201 c 0,59,60
 816 22 816 22 954 19 c 0,61,62
 1021 17 1021 17 1059 70 c 0,63,64
 1094 120 1094 120 1094 201 c 1,55,56
EndSplineSet
EndChar

StartChar: ampersand
Encoding: 38 38 9
Width: 1073
GlyphClass: 2
Flags: W
LayerCount: 2
Fore
SplineSet
1032 -14 m 1,0,1
 973 -30 973 -30 950 -88 c 1,2,3
 909 -37 909 -37 827 63 c 1,4,5
 731 -19 731 -19 593 -24 c 1,6,7
 381 -28 381 -28 287 87 c 0,8,9
 229 158 229 158 229 242 c 1,10,11
 226 443 226 443 489 546 c 1,12,13
 413 647 413 647 402 667 c 0,14,15
 362 737 362 737 366 805 c 0,16,17
 373 906 373 906 450 958 c 0,18,19
 513 1001 513 1001 597 999 c 0,20,21
 808 996 808 996 817 805 c 1,22,23
 811 725 811 725 763 666 c 0,24,25
 702 590 702 590 586 535 c 1,26,27
 638 463 638 463 731 336 c 0,28,29
 767 288 767 288 849 190 c 1,30,31
 853 198 853 198 874 244 c 1,32,33
 881 265 881 265 894 317 c 1,34,35
 936 280 936 280 982 287 c 1,36,37
 977 270 977 270 955.5 219.5 c 128,-1,38
 934 169 934 169 896 131 c 1,39,40
 949 68 949 68 1032 -14 c 1,0,1
718 805 m 1,41,42
 720 858 720 858 694 899 c 0,43,44
 660 951 660 951 595 950 c 0,45,46
 537 950 537 950 502 908 c 128,-1,47
 467 866 467 866 469 805 c 1,48,49
 465 729 465 729 559 578 c 1,50,51
 657 632 657 632 688 684 c 1,52,53
 713 738 713 738 718 805 c 1,41,42
791 111 m 1,54,55
 742 180 742 180 661 293 c 1,56,57
 605 384 605 384 516 501 c 1,58,59
 333 415 333 415 344 240 c 1,60,61
 352 145 352 145 415 87 c 1,62,63
 483 26 483 26 595 25 c 0,64,65
 650 24 650 24 711 52 c 0,66,67
 769 79 769 79 791 111 c 1,54,55
EndSplineSet
EndChar

StartChar: quotesingle
Encoding: 39 39 10
Width: 332
GlyphClass: 2
Flags: W
LayerCount: 2
Fore
SplineSet
311 1391 m 1,0,1
 303 1264 303 1264 291 1001 c 1,2,3
 257 1012 257 1012 217 1001 c 1,4,5
 212 1191 212 1191 197 1391 c 1,6,7
 254 1377 254 1377 311 1391 c 1,0,1
EndSplineSet
EndChar

StartChar: parenleft
Encoding: 40 40 11
Width: 614
GlyphClass: 2
Flags: W
LayerCount: 2
Fore
SplineSet
704 1505 m 1,0,1
 506 1406 506 1406 395 1145 c 0,2,3
 294 907 294 907 299 628 c 1,4,5
 294 347 294 347 395 102 c 0,6,7
 507 -168 507 -168 704 -267 c 1,8,9
 694 -282 694 -282 693 -303 c 1,10,11
 498 -229 498 -229 358 -3 c 0,12,13
 197 259 197 259 197 612 c 0,14,15
 197 967 197 967 358 1234 c 0,16,17
 499 1468 499 1468 694 1541 c 1,18,19
 694 1521 694 1521 704 1505 c 1,0,1
EndSplineSet
EndChar

StartChar: parenright
Encoding: 41 41 12
Width: 605
GlyphClass: 2
Flags: W
LayerCount: 2
Fore
SplineSet
605 612 m 0,0,1
 605 259 605 259 444 -3 c 0,2,3
 304 -229 304 -229 109 -303 c 1,4,5
 109 -282 109 -282 98 -267 c 1,6,7
 295 -168 295 -168 407 102 c 0,8,9
 508 347 508 347 503 628 c 1,10,11
 508 907 508 907 407 1145 c 0,12,13
 296 1406 296 1406 98 1505 c 1,14,15
 109 1521 109 1521 109 1541 c 1,16,17
 303 1468 303 1468 444 1234 c 0,18,19
 605 967 605 967 605 612 c 0,0,1
EndSplineSet
EndChar

StartChar: asterisk
Encoding: 42 42 13
Width: 743
GlyphClass: 2
Flags: W
LayerCount: 2
Fore
SplineSet
743 1093 m 1,0,-1
 532 996 l 1,1,-1
 742 911 l 1,2,3
 706 868 706 868 694 822 c 1,4,-1
 497 952 l 1,5,-1
 523 728 l 1,6,7
 459 736 459 736 420 726 c 1,8,-1
 442 947 l 1,9,-1
 257 817 l 1,10,11
 237 870 237 870 202 904 c 1,12,-1
 413 996 l 1,13,-1
 197 1092 l 1,14,15
 237 1129 237 1129 248 1181 c 1,16,-1
 442 1048 l 1,17,-1
 422 1279 l 1,18,19
 437 1269 437 1269 473 1270 c 0,20,21
 508 1270 508 1270 525 1279 c 1,22,-1
 500 1044 l 1,23,-1
 690 1181 l 1,24,25
 705 1128 705 1128 743 1093 c 1,0,-1
EndSplineSet
EndChar

StartChar: plus
Encoding: 43 43 14
Width: 940
GlyphClass: 2
Flags: W
LayerCount: 2
Fore
SplineSet
879 434 m 1,0,-1
 618 434 l 1,1,-1
 619 175 l 1,2,-1
 508 175 l 1,3,-1
 508 434 l 1,4,-1
 250 434 l 1,5,-1
 250 545 l 1,6,-1
 508 545 l 1,7,-1
 508 804 l 1,8,-1
 619 804 l 1,9,-1
 618 545 l 1,10,-1
 879 545 l 1,11,-1
 879 434 l 1,0,-1
EndSplineSet
EndChar

StartChar: comma
Encoding: 44 44 15
Width: 394
GlyphClass: 2
Flags: W
LayerCount: 2
Fore
SplineSet
394 221 m 1,0,1
 398 -84 398 -84 216 -274 c 1,2,3
 198 -243 198 -243 164 -222 c 1,4,5
 260 -73 260 -73 260 147 c 0,6,7
 260 187 260 187 256 221 c 1,8,9
 322 204 322 204 394 221 c 1,0,1
EndSplineSet
EndChar

StartChar: hyphen
Encoding: 45 45 16
Width: 915
GlyphClass: 2
Flags: W
LayerCount: 2
Fore
SplineSet
854 434 m 1,0,-1
 250 434 l 1,1,2
 256 460 256 460 256 487 c 0,3,4
 256 512 256 512 250 545 c 1,5,-1
 854 545 l 1,6,7
 848 509 848 509 848 485 c 256,8,9
 848 461 848 461 854 434 c 1,0,-1
EndSplineSet
EndChar

StartChar: period
Encoding: 46 46 17
Width: 408
GlyphClass: 2
Flags: W
LayerCount: 2
Fore
SplineSet
449 101 m 0,0,1
 449 49 449 49 412 12 c 128,-1,2
 375 -25 375 -25 323 -25 c 0,3,4
 270 -25 270 -25 233.5 12 c 128,-1,5
 197 49 197 49 197 101 c 0,6,7
 197 154 197 154 233.5 190.5 c 128,-1,8
 270 227 270 227 323 227 c 0,9,10
 375 227 375 227 412 190.5 c 128,-1,11
 449 154 449 154 449 101 c 0,0,1
EndSplineSet
EndChar

StartChar: slash
Encoding: 47 47 18
Width: 772
GlyphClass: 2
Flags: W
LayerCount: 2
Fore
SplineSet
793 1328 m 1,0,-1
 283 -14 l 1,1,2
 255 -4 255 -4 236 -4 c 0,3,4
 216 -4 216 -4 188 -14 c 1,5,-1
 699 1328 l 1,6,7
 726 1319 726 1319 747 1319 c 0,8,9
 765 1319 765 1319 793 1328 c 1,0,-1
EndSplineSet
EndChar

StartChar: zero
Encoding: 48 48 19
Width: 971
GlyphClass: 2
Flags: W
LayerCount: 2
Fore
SplineSet
971 504 m 1,0,1
 966 239 966 239 858 101 c 0,2,3
 757 -29 757 -29 584 -25 c 0,4,5
 409 -20 409 -20 305 117 c 0,6,7
 198 258 198 258 197 504 c 0,8,9
 195 757 195 757 310 902 c 0,10,11
 416 1036 416 1036 584 1038 c 1,12,13
 755 1039 755 1039 863 895 c 0,14,15
 974 747 974 747 971 504 c 1,0,1
850 504 m 1,16,17
 849 733 849 733 798 845 c 0,18,19
 735 985 735 985 584 986 c 0,20,21
 432 987 432 987 366 834 c 0,22,23
 313 713 313 713 317 504 c 0,24,25
 321 275 321 275 365 175 c 0,26,27
 424 39 424 39 584 27 c 1,28,29
 748 34 748 34 807 164 c 1,30,31
 856 269 856 269 850 504 c 1,16,17
EndSplineSet
EndChar

StartChar: one
Encoding: 49 49 20
Width: 590
GlyphClass: 2
Flags: W
LayerCount: 2
Fore
SplineSet
508 0 m 1,0,1
 475 13 475 13 446 13 c 0,2,3
 429 13 429 13 388 0 c 1,4,5
 397 125 397 125 397 346 c 2,6,-1
 397 930 l 1,7,-1
 240 822 l 1,8,9
 233 882 233 882 197 911 c 1,10,11
 288 956 288 956 448 1048 c 1,12,13
 483 1031 483 1031 500 1048 c 1,14,15
 500 1021 500 1021 500 719 c 2,16,-1
 500 346 l 2,17,18
 500 120 500 120 508 0 c 1,0,1
EndSplineSet
EndChar

StartChar: two
Encoding: 50 50 21
Width: 877
GlyphClass: 2
Flags: W
LayerCount: 2
Fore
SplineSet
877 -8 m 1,0,1
 756 1 756 1 589 0 c 0,2,3
 425 -1 425 -1 182 -6 c 1,4,5
 188 24 188 24 180 46 c 1,6,7
 394 162 394 162 589 409 c 0,8,9
 639 472 639 472 679 570 c 0,10,11
 726 687 726 687 722 771 c 1,12,13
 724 851 724 851 679 914 c 0,14,15
 626 989 626 989 534 991 c 1,16,17
 336 990 336 990 309 747 c 1,18,19
 240 766 240 766 188 747 c 1,20,21
 239 1030 239 1030 531 1043 c 1,22,23
 665 1045 665 1045 754 969 c 128,-1,24
 843 893 843 893 843 773 c 1,25,26
 839 634 839 634 759 504 c 0,27,28
 717 436 717 436 602 306 c 0,29,30
 498 189 498 189 354 76 c 1,31,32
 567 63 567 63 591 63 c 1,33,34
 711 69 711 69 877 78 c 1,35,36
 868 58 868 58 868 35 c 256,37,38
 868 12 868 12 877 -8 c 1,0,1
EndSplineSet
EndChar

StartChar: three
Encoding: 51 51 22
Width: 846
GlyphClass: 2
Flags: W
LayerCount: 2
Fore
SplineSet
830 315 m 0,0,1
 830 -25 830 -25 471 -25 c 0,2,3
 345 -25 345 -25 255 40 c 0,4,5
 155 111 155 111 147 233 c 1,6,7
 167 221 167 221 201 221 c 0,8,9
 235 222 235 222 256 233 c 1,10,11
 251 141 251 141 317 82 c 0,12,13
 380 25 380 25 471 27 c 1,14,15
 594 27 594 27 658 114 c 0,16,17
 710 185 710 185 710 289 c 0,18,19
 710 451 710 451 591 524 c 0,20,21
 537 557 537 557 465 557 c 0,22,23
 427 557 427 557 385 547 c 1,24,25
 404 594 404 594 385 638 c 1,26,27
 419 626 419 626 473 626 c 0,28,29
 669 626 669 626 668 822 c 0,30,31
 668 900 668 900 620.5 948.5 c 128,-1,32
 573 997 573 997 494 999 c 0,33,34
 406 1002 406 1002 349 948 c 0,35,36
 289 891 289 891 279 784 c 1,37,38
 268 796 268 796 226 800 c 256,39,40
 184 804 184 804 163 795 c 1,41,42
 222 1048 222 1048 494 1051 c 1,43,44
 612 1057 612 1057 700.5 989 c 128,-1,45
 789 921 789 921 789 823 c 0,46,47
 789 730 789 730 726.5 669 c 128,-1,48
 664 608 664 608 563 595 c 1,49,50
 564 592 564 592 563 588 c 1,51,52
 636 579 636 579 694 547 c 1,53,54
 751 520 751 520 792 446 c 0,55,56
 830 377 830 377 830 315 c 0,0,1
EndSplineSet
EndChar

StartChar: four
Encoding: 52 52 23
Width: 909
GlyphClass: 2
Flags: W
LayerCount: 2
Fore
SplineSet
930 312 m 1,0,1
 868 325 868 325 726 325 c 1,2,3
 726 223 726 223 734 0 c 1,4,5
 701 13 701 13 672 13 c 0,6,7
 655 13 655 13 614 0 c 1,8,9
 615 12 615 12 622 325 c 1,10,11
 321 327 321 327 147 318 c 1,12,-1
 147 348 l 1,13,-1
 638 1020 l 1,14,15
 677 1005 677 1005 726 1019 c 1,16,17
 726 992 726 992 726 695 c 2,18,-1
 726 376 l 1,19,20
 786 376 786 376 930 387 c 1,21,22
 921 354 921 354 930 312 c 1,0,1
623 376 m 1,23,-1
 623 905 l 1,24,-1
 608 903 l 1,25,-1
 276 376 l 1,26,-1
 623 376 l 1,23,-1
EndSplineSet
EndChar

StartChar: five
Encoding: 53 53 24
Width: 848
GlyphClass: 2
Flags: W
LayerCount: 2
Fore
SplineSet
847 340 m 0,0,1
 847 167 847 167 750.5 71 c 128,-1,2
 654 -25 654 -25 481 -25 c 0,3,4
 350 -25 350 -25 262 39 c 1,5,6
 169 108 169 108 147 233 c 1,7,8
 160 220 160 220 197 220 c 256,9,10
 234 220 234 220 258 233 c 1,11,12
 267 141 267 141 328 83.5 c 128,-1,13
 389 26 389 26 482 26 c 0,14,15
 608 26 608 26 672 124 c 0,16,17
 727 208 727 208 727 341 c 0,18,19
 727 458 727 458 674 542 c 0,20,21
 612 640 612 640 501 640 c 0,22,23
 346 640 346 640 283 473 c 1,24,25
 257 489 257 489 229 498 c 1,26,-1
 229 1016 l 1,27,28
 270 1016 270 1016 411 1014 c 1,29,30
 525 1011 525 1011 593 1013 c 1,31,32
 693 1014 693 1014 775 1023 c 1,33,34
 770 1005 770 1005 770 983 c 0,35,36
 770 959 770 959 775 941 c 1,37,38
 635 952 635 952 322 952 c 1,39,40
 321 943 321 943 322 626 c 1,41,42
 373 654 373 654 489 691 c 1,43,44
 505 693 505 693 524 693 c 0,45,46
 677 693 677 693 764 592 c 0,47,48
 847 497 847 497 847 340 c 0,0,1
EndSplineSet
EndChar

StartChar: six
Encoding: 54 54 25
Width: 907
GlyphClass: 2
Flags: W
LayerCount: 2
Fore
SplineSet
909 319 m 0,0,1
 910 155 910 155 806 63 c 0,2,3
 718 -16 718 -16 580 -25 c 1,4,5
 374 -36 374 -36 268 134 c 0,6,7
 180 274 180 274 180 489 c 0,8,9
 180 719 180 719 274 870 c 0,10,11
 383 1043 383 1043 584 1046 c 1,12,13
 820 1046 820 1046 874 900 c 1,14,15
 826 902 826 902 786 878 c 1,16,17
 753 934 753 934 728 956 c 0,18,19
 674 1001 674 1001 582 1005 c 1,20,21
 424 994 424 994 352 827 c 0,22,23
 298 702 298 702 298 508 c 0,24,25
 298 474 298 474 300 440 c 0,26,27
 300 437 300 437 307 441 c 1,28,29
 308 440 308 440 309 436 c 1,30,31
 366 613 366 613 578 629 c 1,32,33
 719 631 719 631 810 553 c 0,34,35
 909 469 909 469 909 319 c 0,0,1
788 320 m 0,36,37
 788 446 788 446 718 517 c 0,38,39
 657 579 657 579 569 576 c 1,40,41
 466 571 466 571 405 497.5 c 128,-1,42
 344 424 344 424 345 306 c 1,43,44
 344 186 344 186 403 104 c 0,45,46
 466 17 466 17 565 20 c 1,47,48
 788 30 788 30 788 320 c 0,36,37
EndSplineSet
EndChar

StartChar: seven
Encoding: 55 55 26
Width: 801
GlyphClass: 2
Flags: W
LayerCount: 2
Fore
SplineSet
842 994 m 1,0,-1
 390 0 l 1,1,2
 336 15 336 15 270 0 c 1,3,-1
 726 946 l 1,4,-1
 719 953 l 1,5,6
 485 950 485 950 197 899 c 1,7,8
 211 958 211 958 197 1019 c 1,9,-1
 831 1019 l 1,10,11
 831 1004 831 1004 842 994 c 1,0,-1
EndSplineSet
EndChar

StartChar: eight
Encoding: 56 56 27
Width: 877
GlyphClass: 2
Flags: W
LayerCount: 2
Fore
SplineSet
871 288 m 0,0,1
 874 155 874 155 775 66 c 128,-1,2
 676 -23 676 -23 522 -25 c 0,3,4
 378 -26 378 -26 277 66 c 128,-1,5
 176 158 176 158 180 288 c 1,6,7
 180 402 180 402 254 480.5 c 128,-1,8
 328 559 328 559 454 575 c 1,9,10
 455 578 455 578 452 582 c 1,11,12
 356 604 356 604 301.5 676.5 c 128,-1,13
 247 749 247 749 256 836 c 1,14,15
 274 1043 274 1043 524 1050 c 0,16,17
 624 1053 624 1053 702 1001 c 0,18,19
 798 938 798 938 798 823 c 1,20,21
 802 729 802 729 736 658 c 0,22,23
 680 597 680 597 606 583 c 1,24,25
 607 580 607 580 605 575 c 1,26,27
 725 559 725 559 796.5 481.5 c 128,-1,28
 868 404 868 404 871 288 c 0,0,1
677 819 m 1,29,30
 676 906 676 906 623 956 c 1,31,32
 579 999 579 999 522 997 c 0,33,34
 464 995 464 995 423 950 c 0,35,36
 377 901 377 901 375 819 c 1,37,38
 370 746 370 746 403 690 c 0,39,40
 443 622 443 622 522 616 c 1,41,42
 604 616 604 616 646 681 c 0,43,44
 684 739 684 739 677 819 c 1,29,30
750 285 m 0,45,46
 751 374 751 374 702 446 c 0,47,48
 639 538 639 538 522 537 c 1,49,50
 406 534 406 534 348 446 c 1,51,52
 303 380 303 380 301 285 c 0,53,54
 299 196 299 196 342 126 c 1,55,56
 401 33 401 33 522 27 c 1,57,58
 643 30 643 30 703 117 c 0,59,60
 749 185 749 185 750 285 c 0,45,46
EndSplineSet
EndChar

StartChar: nine
Encoding: 57 57 28
Width: 908
GlyphClass: 2
Flags: W
LayerCount: 2
Fore
SplineSet
909 532 m 0,0,1
 909 303 909 303 815 152 c 0,2,3
 706 -22 706 -22 505 -24 c 1,4,5
 270 -24 270 -24 215 122 c 1,6,7
 263 120 263 120 303 143 c 1,8,9
 336 87 336 87 361 66 c 0,10,11
 415 21 415 21 507 16 c 1,12,13
 665 28 665 28 737 195 c 0,14,15
 791 320 791 320 791 513 c 0,16,17
 791 547 791 547 789 582 c 0,18,19
 789 585 789 585 782 581 c 0,20,21
 781 581 781 581 780 586 c 1,22,23
 723 409 723 409 511 393 c 1,24,25
 370 391 370 391 279 468 c 0,26,27
 180 553 180 553 180 702 c 0,28,29
 179 867 179 867 283 959 c 0,30,31
 371 1037 371 1037 509 1046 c 0,32,33
 715 1058 715 1058 821 888 c 0,34,35
 909 748 909 748 909 532 c 0,0,1
744 715 m 1,36,37
 745 836 745 836 686 918 c 0,38,39
 623 1005 623 1005 524 1001 c 0,40,41
 301 992 301 992 301 702 c 0,42,43
 301 576 301 576 371 505 c 0,44,45
 432 443 432 443 520 446 c 1,46,47
 623 451 623 451 684 524 c 128,-1,48
 745 597 745 597 744 715 c 1,36,37
EndSplineSet
EndChar

StartChar: colon
Encoding: 58 58 29
Width: 489
GlyphClass: 2
Flags: W
LayerCount: 2
Fore
SplineSet
449 647 m 256,0,1
 449 595 449 595 412 558 c 128,-1,2
 375 521 375 521 323 521 c 0,3,4
 270 521 270 521 233.5 558 c 128,-1,5
 197 595 197 595 197 647 c 256,6,7
 197 699 197 699 233.5 736 c 128,-1,8
 270 773 270 773 323 773 c 0,9,10
 375 773 375 773 412 736 c 128,-1,11
 449 699 449 699 449 647 c 256,0,1
449 101 m 0,12,13
 449 49 449 49 412 12 c 128,-1,14
 375 -25 375 -25 323 -25 c 0,15,16
 270 -25 270 -25 233.5 12 c 128,-1,17
 197 49 197 49 197 101 c 0,18,19
 197 154 197 154 233.5 190.5 c 128,-1,20
 270 227 270 227 323 227 c 0,21,22
 375 227 375 227 412 190.5 c 128,-1,23
 449 154 449 154 449 101 c 0,12,13
EndSplineSet
EndChar

StartChar: semicolon
Encoding: 59 59 30
Width: 489
GlyphClass: 2
Flags: W
LayerCount: 2
Fore
SplineSet
449 647 m 256,0,1
 449 595 449 595 412 558 c 128,-1,2
 375 521 375 521 323 521 c 0,3,4
 270 521 270 521 233.5 558 c 128,-1,5
 197 595 197 595 197 647 c 256,6,7
 197 699 197 699 233.5 736 c 128,-1,8
 270 773 270 773 323 773 c 0,9,10
 375 773 375 773 412 736 c 128,-1,11
 449 699 449 699 449 647 c 256,0,1
442 71 m 1,12,13
 439 -15 439 -15 389 -75 c 0,14,15
 349 -123 349 -123 295 -145 c 1,16,17
 288 -122 288 -122 272 -115 c 1,18,19
 365 -66 365 -66 367 25 c 1,20,-1
 360 29 l 1,21,22
 325 1 325 1 285 1 c 0,23,24
 247 1 247 1 221.5 26.5 c 128,-1,25
 196 52 196 52 197 93 c 1,26,27
 197 145 197 145 233.5 175.5 c 128,-1,28
 270 206 270 206 323 203 c 0,29,30
 373 200 373 200 407 162.5 c 128,-1,31
 441 125 441 125 442 71 c 1,12,13
EndSplineSet
EndChar

StartChar: less
Encoding: 60 60 31
Width: 1270
GlyphClass: 2
Flags: W
LayerCount: 2
Fore
SplineSet
1229 971 m 1,0,-1
 1229 856 l 1,1,-1
 346 485 l 1,2,-1
 1229 117 l 1,3,-1
 1229 0 l 1,4,-1
 229 453 l 1,5,-1
 229 518 l 1,6,-1
 1229 971 l 1,0,-1
EndSplineSet
EndChar

StartChar: equal
Encoding: 61 61 32
Width: 1034
GlyphClass: 2
Flags: W
LayerCount: 2
Fore
SplineSet
973 434 m 1,0,1
 826 433 826 433 604 434 c 0,2,3
 504 435 504 435 246 434 c 1,4,5
 257 482 257 482 246 545 c 1,6,-1
 973 545 l 1,7,8
 962 481 962 481 973 434 c 1,0,1
973 150 m 1,9,10
 826 149 826 149 604 150 c 0,11,12
 505 151 505 151 246 150 c 1,13,14
 257 197 257 197 246 260 c 1,15,16
 264 260 264 260 604 260 c 2,17,-1
 973 260 l 1,18,19
 962 197 962 197 973 150 c 1,9,10
EndSplineSet
EndChar

StartChar: greater
Encoding: 62 62 33
Width: 1270
GlyphClass: 2
Flags: W
LayerCount: 2
Fore
SplineSet
1229 453 m 1,0,-1
 229 0 l 1,1,-1
 229 117 l 1,2,-1
 1112 485 l 1,3,-1
 229 856 l 1,4,-1
 229 971 l 1,5,-1
 1229 518 l 1,6,-1
 1229 453 l 1,0,-1
EndSplineSet
EndChar

StartChar: question
Encoding: 63 63 34
Width: 854
GlyphClass: 2
Flags: W
LayerCount: 2
Fore
SplineSet
826 1136 m 1,0,1
 827 1034 827 1034 757 955 c 0,2,3
 715 907 715 907 604.5 832.5 c 128,-1,4
 494 758 494 758 454 713 c 1,5,6
 391 645 391 645 396 535 c 0,7,8
 400 447 400 447 454 406 c 0,9,10
 492 377 492 377 542 377 c 1,11,12
 661 383 661 383 673 502 c 1,13,14
 720 488 720 488 775 502 c 1,15,16
 750 339 750 339 546 328 c 1,17,18
 314 331 314 331 302 526 c 1,19,20
 299 634 299 634 386 741 c 1,21,22
 477 814 477 814 568 886 c 1,23,24
 707 1006 707 1006 712 1135 c 1,25,26
 713 1212 713 1212 672 1269 c 0,27,28
 621 1339 621 1339 526 1342 c 1,29,30
 399 1341 399 1341 345 1247 c 0,31,32
 312 1190 312 1190 312 1111 c 1,33,34
 246 1130 246 1130 197 1111 c 1,35,36
 201 1169 201 1169 236 1237 c 0,37,38
 311 1382 311 1382 523 1392 c 1,39,40
 652 1394 652 1394 739 1322 c 128,-1,41
 826 1250 826 1250 826 1136 c 1,0,1
652 101 m 0,42,43
 652 49 652 49 615 12 c 128,-1,44
 578 -25 578 -25 526 -25 c 256,45,46
 474 -25 474 -25 437 12 c 128,-1,47
 400 49 400 49 400 101 c 0,48,49
 400 154 400 154 437 190.5 c 128,-1,50
 474 227 474 227 526 227 c 256,51,52
 578 227 578 227 615 190.5 c 128,-1,53
 652 154 652 154 652 101 c 0,42,43
EndSplineSet
EndChar

StartChar: at
Encoding: 64 64 35
Width: 1499
GlyphClass: 2
Flags: W
LayerCount: 2
Fore
SplineSet
1479 332 m 1,0,1
 1406 176 1406 176 1236 72 c 1,2,3
 1080 -25 1080 -25 873 -25 c 0,4,5
 573 -25 573 -25 389 164 c 0,6,7
 213 344 213 344 213 597 c 0,8,9
 213 651 213 651 222 707 c 0,10,11
 259 946 259 946 442 1095.5 c 128,-1,12
 625 1245 625 1245 883 1245 c 1,13,14
 1042 1247 1042 1247 1180 1185 c 0,15,16
 1334 1116 1334 1116 1409 988 c 0,17,18
 1475 876 1475 876 1475 737 c 1,19,20
 1462 489 1462 489 1284 332 c 1,21,22
 1177 236 1177 236 1059 248 c 0,23,24
 961 257 961 257 932 367 c 1,25,26
 821 256 821 256 705 256 c 0,27,28
 592 256 592 256 532 330 c 0,29,30
 481 394 481 394 481 488 c 0,31,32
 481 542 481 542 497 608 c 0,33,34
 524 723 524 723 616 815 c 0,35,36
 717 917 717 917 832 920 c 1,37,38
 914 920 914 920 948 901 c 1,39,40
 1023 872 1023 872 1049 815 c 1,41,-1
 1071 901 l 1,42,43
 1131 890 1131 890 1186 901 c 1,44,-1
 1047 385 l 1,45,46
 1049 363 1049 363 1051 340 c 1,47,48
 1059 312 1059 312 1096 299 c 1,49,50
 1106 297 1106 297 1116 297 c 0,51,52
 1199 297 1199 297 1288 444 c 1,53,54
 1358 577 1358 577 1372 729 c 1,55,56
 1380 865 1380 865 1329 958 c 1,57,58
 1272 1066 1272 1066 1149 1130 c 0,59,60
 1030 1192 1030 1192 891 1194 c 1,61,62
 666 1194 666 1194 511 1047 c 1,63,64
 365 907 365 907 337 694 c 1,65,66
 327 646 327 646 327 587 c 0,67,68
 327 408 327 408 395 295 c 0,69,70
 553 34 553 34 875 23 c 1,71,72
 970 23 970 23 1071 61 c 0,73,74
 1177 102 1177 102 1243 168 c 0,75,76
 1337 262 1337 262 1364 328 c 1,77,78
 1436 319 1436 319 1479 332 c 1,0,1
1006 733 m 0,79,80
 1006 800 1006 800 958 835 c 0,81,82
 915 867 915 867 854 862 c 1,83,84
 790 854 790 854 723 792 c 0,85,86
 648 722 648 722 613 606 c 1,87,88
 583 511 583 511 583 454 c 0,89,90
 583 327 583 327 705 305 c 1,91,92
 813 302 813 302 887 418 c 1,93,94
 930 478 930 478 973 592 c 0,95,96
 1006 678 1006 678 1006 733 c 0,79,80
EndSplineSet
EndChar

StartChar: bracketleft
Encoding: 91 91 36
Width: 547
GlyphClass: 2
Flags: W
LayerCount: 2
Fore
SplineSet
547 1417 m 1,0,-1
 299 1417 l 1,1,-1
 299 -147 l 1,2,-1
 547 -147 l 1,3,-1
 547 -213 l 1,4,-1
 197 -213 l 1,5,-1
 197 1483 l 1,6,-1
 547 1483 l 1,7,-1
 547 1417 l 1,0,-1
EndSplineSet
EndChar

StartChar: backslash
Encoding: 92 92 37
Width: 715
GlyphClass: 2
Flags: W
LayerCount: 2
Fore
SplineSet
735 -14 m 1,0,1
 708 -4 708 -4 687 -4 c 0,2,3
 669 -4 669 -4 641 -14 c 1,4,-1
 131 1328 l 1,5,6
 159 1319 159 1319 177 1319 c 0,7,8
 198 1319 198 1319 225 1328 c 1,9,-1
 735 -14 l 1,0,1
EndSplineSet
EndChar

StartChar: bracketright
Encoding: 93 93 38
Width: 547
GlyphClass: 2
Flags: W
LayerCount: 2
Fore
SplineSet
547 -213 m 1,0,-1
 197 -213 l 1,1,-1
 197 -147 l 1,2,-1
 444 -147 l 1,3,-1
 444 1417 l 1,4,-1
 197 1417 l 1,5,-1
 197 1483 l 1,6,-1
 547 1483 l 1,7,-1
 547 -213 l 1,0,-1
EndSplineSet
EndChar

StartChar: asciicircum
Encoding: 94 94 39
Width: 1219
GlyphClass: 2
Flags: W
LayerCount: 2
Fore
SplineSet
1219 600 m 1,0,-1
 1104 600 l 1,1,-1
 709 1274 l 1,2,-1
 313 600 l 1,3,-1
 197 600 l 1,4,-1
 676 1391 l 1,5,-1
 741 1391 l 1,6,-1
 1219 600 l 1,0,-1
EndSplineSet
EndChar

StartChar: underscore
Encoding: 95 95 40
Width: 1198
GlyphClass: 2
Flags: W
LayerCount: 2
Fore
SplineSet
1198 -231 m 1,0,1
 939 -223 939 -223 699 -223 c 1,2,-1
 197 -231 l 1,3,4
 207 -177 207 -177 197 -121 c 1,5,-1
 495 -127 l 2,6,7
 618 -130 618 -130 699 -129 c 1,8,9
 719 -130 719 -130 1198 -121 c 1,10,11
 1189 -163 1189 -163 1198 -231 c 1,0,1
EndSplineSet
EndChar

StartChar: grave
Encoding: 96 96 41
Width: 610
GlyphClass: 2
Flags: W
LayerCount: 2
Fore
SplineSet
610 950 m 1,0,-1
 524 950 l 1,1,2
 434 1003 434 1003 197 1176 c 1,3,4
 222 1184 222 1184 254 1212 c 0,5,6
 269 1225 269 1225 289 1266 c 1,7,8
 322 1229 322 1229 426 1124 c 1,9,-1
 610 950 l 1,0,-1
EndSplineSet
EndChar

StartChar: braceleft
Encoding: 123 123 42
Width: 662
GlyphClass: 2
Flags: W
LayerCount: 2
Fore
SplineSet
702 -290 m 1,0,1
 659 -303 659 -303 592 -282 c 0,2,3
 425 -230 425 -230 419 -12 c 1,4,5
 421 150 421 150 419 385 c 0,6,7
 418 411 418 411 414 459 c 1,8,9
 396 561 396 561 277 584 c 0,10,11
 248 590 248 590 197 586 c 1,12,13
 206 627 206 627 197 659 c 1,14,15
 259 655 259 655 299 667 c 1,16,17
 400 703 400 703 414 786 c 0,18,19
 415 796 415 796 419 860 c 1,20,21
 418 1009 418 1009 419 1258 c 1,22,23
 425 1476 425 1476 592 1528 c 0,24,25
 659 1548 659 1548 702 1536 c 1,26,27
 698 1527 698 1527 694 1507 c 1,28,29
 656 1515 656 1515 625 1500 c 0,30,31
 522 1453 522 1453 521 1258 c 0,32,33
 521 1180 521 1180 522 1061 c 1,34,35
 522 893 522 893 522 864 c 0,36,37
 522 763 522 763 450 694 c 0,38,39
 385 631 385 631 299 629 c 1,40,-1
 299 623 l 1,41,42
 384 621 384 621 450 555 c 0,43,44
 522 483 522 483 522 381 c 2,45,-1
 521 -12 l 2,46,47
 521 -207 521 -207 625 -255 c 0,48,49
 657 -269 657 -269 694 -262 c 1,50,51
 694 -271 694 -271 702 -290 c 1,0,1
EndSplineSet
EndChar

StartChar: bar
Encoding: 124 124 43
Width: 487
GlyphClass: 2
Flags: W
LayerCount: 2
Fore
SplineSet
299 -4 m 1,0,-1
 197 -4 l 1,1,-1
 197 1538 l 1,2,-1
 299 1538 l 1,3,-1
 299 -4 l 1,0,-1
EndSplineSet
EndChar

StartChar: braceright
Encoding: 125 125 44
Width: 653
GlyphClass: 2
Flags: W
LayerCount: 2
Fore
SplineSet
653 659 m 1,0,1
 644 627 644 627 653 586 c 1,2,3
 591 591 591 591 551 579 c 1,4,5
 450 542 450 542 436 459 c 0,6,7
 435 449 435 449 431 385 c 1,8,9
 432 237 432 237 431 -12 c 1,10,11
 425 -230 425 -230 258 -282 c 0,12,13
 191 -303 191 -303 147 -290 c 1,14,15
 151 -281 151 -281 156 -262 c 1,16,17
 193 -269 193 -269 225 -255 c 0,18,19
 328 -207 328 -207 329 -12 c 0,20,21
 329 65 329 65 328 185 c 1,22,23
 328 352 328 352 328 381 c 0,24,25
 328 483 328 483 400 555 c 0,26,27
 466 621 466 621 551 623 c 1,28,-1
 551 629 l 1,29,30
 465 631 465 631 400 694 c 0,31,32
 328 763 328 763 328 864 c 2,33,-1
 329 1258 l 2,34,35
 329 1453 329 1453 225 1500 c 0,36,37
 193 1515 193 1515 156 1507 c 1,38,39
 156 1516 156 1516 147 1536 c 1,40,41
 191 1548 191 1548 258 1528 c 0,42,43
 425 1476 425 1476 431 1258 c 1,44,45
 428 1096 428 1096 431 860 c 0,46,47
 432 835 432 835 436 786 c 1,48,49
 454 685 454 685 572 661 c 0,50,51
 602 655 602 655 653 659 c 1,0,1
EndSplineSet
EndChar

StartChar: asciitilde
Encoding: 126 126 45
Width: 1270
GlyphClass: 2
Flags: W
LayerCount: 2
Fore
SplineSet
1229 496 m 1,0,1
 1114 381 1114 381 963 377 c 1,2,3
 860 377 860 377 730.5 455 c 128,-1,4
 601 533 601 533 516 533 c 0,5,6
 502 533 502 533 488 532 c 0,7,8
 381 520 381 520 267 414 c 1,9,-1
 229 496 l 1,10,11
 359 602 359 602 489 614 c 1,12,13
 605 619 605 619 727 544 c 0,14,15
 856 465 856 465 965 461 c 1,16,17
 1127 461 1127 461 1190 578 c 1,18,-1
 1229 496 l 1,0,1
EndSplineSet
EndChar

StartChar: uni0D02
Encoding: 3330 3330 46
Width: 751
GlyphClass: 2
Flags: W
LayerCount: 2
Fore
SplineSet
751 267 m 0,0,1
 748 132 748 132 655 54 c 0,2,3
 574 -14 574 -14 460 -15 c 0,4,5
 339 -16 339 -16 257 59 c 0,6,7
 169 139 169 139 168 267 c 0,8,9
 167 400 167 400 261 480 c 0,10,11
 345 552 345 552 460 553 c 1,12,13
 578 553 578 553 663 476 c 0,14,15
 754 394 754 394 751 267 c 0,0,1
639 268 m 1,16,17
 643 499 643 499 460 503 c 1,18,19
 278 497 278 497 280 268 c 0,20,21
 282 38 282 38 460 34 c 0,22,23
 546 32 546 32 595 100 c 0,24,25
 640 163 640 163 639 268 c 1,16,17
EndSplineSet
EndChar

StartChar: uni0D03
Encoding: 3331 3331 47
Width: 692
GlyphClass: 2
Flags: W
LayerCount: 2
Fore
SplineSet
651 777 m 0,0,1
 648 672 648 672 576 611 c 0,2,3
 513 558 513 558 424 557 c 1,4,5
 330 557 330 557 266 615 c 0,6,7
 198 677 198 677 197 777 c 0,8,9
 196 880 196 880 270 942 c 1,10,11
 335 998 335 998 424 999 c 1,12,13
 516 999 516 999 582 939 c 0,14,15
 653 875 653 875 651 777 c 0,0,1
650 201 m 1,16,17
 648 96 648 96 576 35 c 0,18,19
 512 -18 512 -18 424 -19 c 0,20,21
 330 -20 330 -20 266 39 c 1,22,23
 197 100 197 100 197 201 c 0,24,25
 196 303 196 303 269 366 c 0,26,27
 334 422 334 422 424 423 c 1,28,29
 516 423 516 423 582 363 c 0,30,31
 653 299 653 299 650 201 c 1,16,17
564 777 m 1,32,33
 567 957 567 957 424 960 c 1,34,35
 283 956 283 956 284 777 c 1,36,37
 286 599 286 599 424 595 c 0,38,39
 491 594 491 594 529 646 c 1,40,41
 564 696 564 696 564 777 c 1,32,33
563 201 m 1,42,43
 566 380 566 380 424 384 c 1,44,45
 282 380 282 380 284 201 c 0,46,47
 285 22 285 22 424 19 c 0,48,49
 491 17 491 17 529 70 c 0,50,51
 564 120 564 120 563 201 c 1,42,43
EndSplineSet
EndChar

StartChar: uni0D05
Encoding: 3333 3333 48
Width: 2497
GlyphClass: 2
Flags: W
LayerCount: 2
Fore
SplineSet
1604 842 m 1,0,1
 1751 1000 1751 1000 1986.5 1000 c 128,-1,2
 2222 1000 2222 1000 2358 849.5 c 128,-1,3
 2494 699 2494 699 2494 484 c 128,-1,4
 2494 269 2494 269 2416 135 c 0,5,6
 2321 -28 2321 -28 2135 -28 c 0,7,8
 1997 -28 1997 -28 1910 63.5 c 128,-1,9
 1823 155 1823 155 1823 295 c 128,-1,10
 1823 435 1823 435 1906 525.5 c 128,-1,11
 1989 616 1989 616 2136 616 c 128,-1,12
 2283 616 2283 616 2385 489 c 1,13,14
 2387 491 2387 491 2393 492 c 1,15,16
 2392 513 2392 513 2392 519 c 0,17,18
 2392 695 2392 695 2278.5 822 c 128,-1,19
 2165 949 2165 949 1991 949 c 1,20,21
 1899 952 1899 952 1808.5 905 c 128,-1,22
 1718 858 1718 858 1683 783.5 c 128,-1,23
 1648 709 1648 709 1648 604 c 2,24,-1
 1648 326 l 1,25,-1
 1656 0 l 1,26,27
 1630 9 1630 9 1597.5 9 c 128,-1,28
 1565 9 1565 9 1539 0 c 1,29,30
 1551 156 1551 156 1551 321 c 2,31,-1
 1552 610 l 2,32,33
 1552 717 1552 717 1517.5 787 c 128,-1,34
 1483 857 1483 857 1397 902 c 0,35,36
 1260 975 1260 975 1105 928 c 1,37,38
 1314 856 1314 856 1314 665 c 0,39,40
 1314 591 1314 591 1270 529 c 128,-1,41
 1226 467 1226 467 1156 451 c 1,42,43
 1233 430 1233 430 1278.5 370.5 c 128,-1,44
 1324 311 1324 311 1324 232 c 0,45,46
 1324 116 1324 116 1241.5 45.5 c 128,-1,47
 1159 -25 1159 -25 1041 -25 c 0,48,49
 848 -25 848 -25 745 126 c 0,50,51
 656 256 656 256 656 457 c 0,52,53
 656 814 656 814 951 932 c 1,54,55
 871 957 871 957 761 957 c 0,56,57
 555 957 555 957 433 817.5 c 128,-1,58
 311 678 311 678 311 470 c 0,59,60
 311 185 311 185 498 45 c 1,61,62
 464 21 464 21 460 -24 c 1,63,64
 197 139 197 139 197 483 c 0,65,66
 197 721 197 721 357.5 863 c 128,-1,67
 518 1005 518 1005 758 1005 c 0,68,69
 941 1005 941 1005 1042 954 c 1,70,71
 1134 996 1134 996 1254 996 c 0,72,73
 1485 996 1485 996 1604 842 c 1,0,1
2311 119 m 0,74,75
 2357 196 2357 196 2357 309 c 128,-1,76
 2357 422 2357 422 2304.5 493 c 128,-1,77
 2252 564 2252 564 2147.5 564 c 128,-1,78
 2043 564 2043 564 1988.5 488 c 128,-1,79
 1934 412 1934 412 1934 298.5 c 128,-1,80
 1934 185 1934 185 1980 113 c 0,81,82
 2035 25 2035 25 2145.5 25 c 128,-1,83
 2256 25 2256 25 2311 119 c 0,74,75
1041 20 m 0,84,85
 1129 20 1129 20 1178.5 75.5 c 128,-1,86
 1228 131 1228 131 1228 219.5 c 128,-1,87
 1228 308 1228 308 1178.5 363.5 c 128,-1,88
 1129 419 1129 419 1042 419 c 0,89,90
 1034 419 1034 419 957 412 c 1,91,92
 965 428 965 428 965 450.5 c 128,-1,93
 965 473 965 473 958 487 c 1,94,95
 1005 478 1005 478 1033 478 c 0,96,97
 1114 478 1114 478 1162 530.5 c 128,-1,98
 1210 583 1210 583 1210 667 c 128,-1,99
 1210 751 1210 751 1156 820.5 c 128,-1,100
 1102 890 1102 890 1019 905 c 1,101,102
 894 857 894 857 832.5 727.5 c 128,-1,103
 771 598 771 598 771 442.5 c 128,-1,104
 771 287 771 287 826 172 c 0,105,106
 898 20 898 20 1041 20 c 0,84,85
EndSplineSet
EndChar

StartChar: uni0D06
Encoding: 3334 3334 49
Width: 2701
GlyphClass: 2
Flags: W
LayerCount: 2
Fore
SplineSet
2379 578 m 1,0,-1
 2382 580 l 1,1,2
 2383 579 2383 579 2385 582 c 1,3,4
 2380 684 2380 684 2315 780 c 0,5,6
 2203 948 2203 948 1996 949 c 0,7,8
 1901 949 1901 949 1809.5 903.5 c 128,-1,9
 1718 858 1718 858 1683 783.5 c 128,-1,10
 1648 709 1648 709 1648 604 c 2,11,-1
 1648 326 l 1,12,-1
 1656 0 l 1,13,14
 1630 9 1630 9 1597.5 9 c 128,-1,15
 1565 9 1565 9 1539 0 c 1,16,17
 1551 156 1551 156 1551 321 c 2,18,-1
 1552 610 l 2,19,20
 1552 717 1552 717 1518 786.5 c 128,-1,21
 1484 856 1484 856 1400.5 902 c 128,-1,22
 1317 948 1317 948 1237.5 948 c 128,-1,23
 1158 948 1158 948 1105 928 c 1,24,25
 1314 856 1314 856 1314 665 c 0,26,27
 1314 591 1314 591 1270 529 c 128,-1,28
 1226 467 1226 467 1156 451 c 1,29,30
 1233 430 1233 430 1278.5 370.5 c 128,-1,31
 1324 311 1324 311 1324 232 c 0,32,33
 1324 116 1324 116 1241.5 45.5 c 128,-1,34
 1159 -25 1159 -25 1041 -25 c 0,35,36
 848 -25 848 -25 745 126 c 0,37,38
 656 256 656 256 656 457 c 0,39,40
 656 814 656 814 951 932 c 1,41,42
 871 957 871 957 761 957 c 0,43,44
 555 957 555 957 433 817.5 c 128,-1,45
 311 678 311 678 311 470 c 0,46,47
 311 185 311 185 498 45 c 1,48,49
 461 19 461 19 460 -24 c 1,50,51
 197 139 197 139 197 483 c 0,52,53
 197 721 197 721 357.5 863 c 128,-1,54
 518 1005 518 1005 758 1005 c 1,55,56
 934 1010 934 1010 1042 954 c 1,57,58
 1135 997 1135 997 1243 997 c 0,59,60
 1471 997 1471 997 1604 842 c 1,61,62
 1751 1000 1751 1000 1979 1000 c 128,-1,63
 2207 1000 2207 1000 2337.5 872.5 c 128,-1,64
 2468 745 2468 745 2489 530 c 1,65,66
 2589 460 2589 460 2645 347.5 c 128,-1,67
 2701 235 2701 235 2701 111 c 0,68,69
 2701 -109 2701 -109 2551.5 -250.5 c 128,-1,70
 2402 -392 2402 -392 2182 -392 c 0,71,72
 2098 -392 2098 -392 2001 -368 c 128,-1,73
 1904 -344 1904 -344 1860 -297 c 1,74,75
 1910 -276 1910 -276 1925 -236 c 1,76,77
 1999 -337 1999 -337 2185.5 -337 c 128,-1,78
 2372 -337 2372 -337 2480 -204 c 128,-1,79
 2588 -71 2588 -71 2588 137.5 c 128,-1,80
 2588 346 2588 346 2491 438 c 1,81,82
 2493 351 2493 351 2459 233 c 128,-1,83
 2425 115 2425 115 2337 46.5 c 128,-1,84
 2249 -22 2249 -22 2120.5 -22 c 128,-1,85
 1992 -22 1992 -22 1907.5 67.5 c 128,-1,86
 1823 157 1823 157 1823 301.5 c 128,-1,87
 1823 446 1823 446 1917.5 537.5 c 128,-1,88
 2012 629 2012 629 2164 629 c 0,89,90
 2259 629 2259 629 2379 578 c 1,0,-1
2303 119 m 1,91,92
 2386 233 2386 233 2386 430 c 0,93,94
 2386 482 2386 482 2382 504 c 1,95,96
 2309 569 2309 569 2183.5 569 c 128,-1,97
 2058 569 2058 569 1996 488 c 128,-1,98
 1934 407 1934 407 1934 292.5 c 128,-1,99
 1934 178 1934 178 1987.5 105 c 128,-1,100
 2041 32 2041 32 2139.5 32 c 128,-1,101
 2238 32 2238 32 2303 119 c 1,91,92
1041 20 m 0,102,103
 1129 20 1129 20 1178.5 75.5 c 128,-1,104
 1228 131 1228 131 1228 219.5 c 128,-1,105
 1228 308 1228 308 1178.5 363.5 c 128,-1,106
 1129 419 1129 419 1042 419 c 0,107,108
 1034 419 1034 419 957 412 c 1,109,110
 965 428 965 428 965 450.5 c 128,-1,111
 965 473 965 473 958 487 c 1,112,113
 1005 478 1005 478 1033 478 c 0,114,115
 1114 478 1114 478 1162 530.5 c 128,-1,116
 1210 583 1210 583 1210 667 c 128,-1,117
 1210 751 1210 751 1156 820.5 c 128,-1,118
 1102 890 1102 890 1019 905 c 1,119,120
 894 857 894 857 832.5 727.5 c 128,-1,121
 771 598 771 598 771 442.5 c 128,-1,122
 771 287 771 287 826 172 c 0,123,124
 898 20 898 20 1041 20 c 0,102,103
EndSplineSet
EndChar

StartChar: uni0D07
Encoding: 3335 3335 50
Width: 1796
GlyphClass: 2
Flags: W
LayerCount: 2
Fore
SplineSet
1041 834 m 1,0,1
 1135 999 1135 999 1347 999 c 128,-1,2
 1559 999 1559 999 1677.5 858.5 c 128,-1,3
 1796 718 1796 718 1796 522.5 c 128,-1,4
 1796 327 1796 327 1702 198 c 128,-1,5
 1608 69 1608 69 1436 25 c 0,6,7
 1348 2 1348 2 1115 0 c 1,8,-1
 500 0 l 2,9,10
 373 0 373 0 373 -82.5 c 128,-1,11
 373 -165 373 -165 480 -172 c 1,12,13
 556 -175 556 -175 755 -175 c 2,14,-1
 1181 -175 l 2,15,16
 1556 -175 1556 -175 1774 -162 c 1,17,18
 1762 -174 1762 -174 1762 -207 c 128,-1,19
 1762 -240 1762 -240 1774 -260 c 1,20,21
 1428 -254 1428 -254 1314 -254 c 2,22,-1
 768 -254 l 1,23,24
 664 -255 664 -255 469 -254 c 1,25,26
 261 -247 261 -247 261 -106 c 0,27,28
 261 49 261 49 525 49 c 2,29,-1
 1110 49 l 1,30,31
 1390 46 1390 46 1525 143 c 0,32,33
 1681 255 1681 255 1681 524 c 0,34,35
 1681 950 1681 950 1348 950 c 0,36,37
 1187 950 1187 950 1121 795 c 0,38,39
 1088 717 1088 717 1088 628 c 2,40,-1
 1088 422 l 2,41,42
 1088 332 1088 332 1098 164 c 1,43,44
 1076 170 1076 170 1039.5 170 c 128,-1,45
 1003 170 1003 170 984 164 c 1,46,-1
 993 422 l 1,47,-1
 993 625 l 1,48,49
 968 952 968 952 651 952 c 0,50,51
 488 952 488 952 393.5 840 c 128,-1,52
 299 728 299 728 299 562 c 0,53,54
 299 519 299 519 301 503 c 1,55,56
 313 604 313 604 382 660 c 128,-1,57
 451 716 451 716 561.5 716 c 128,-1,58
 672 716 672 716 750 635 c 128,-1,59
 828 554 828 554 828 428.5 c 128,-1,60
 828 303 828 303 747 222 c 128,-1,61
 666 141 666 141 519.5 141 c 128,-1,62
 373 141 373 141 285 260.5 c 128,-1,63
 197 380 197 380 197 546 c 0,64,65
 197 760 197 760 330.5 881.5 c 128,-1,66
 464 1003 464 1003 681 1003 c 128,-1,67
 898 1003 898 1003 1041 834 c 1,0,1
711 429 m 0,68,69
 711 528 711 528 667.5 597.5 c 128,-1,70
 624 667 624 667 531 667 c 256,71,72
 438 667 438 667 390.5 604.5 c 128,-1,73
 343 542 343 542 343 443 c 128,-1,74
 343 344 343 344 384 276 c 1,75,76
 432 192 432 192 527 192 c 0,77,78
 711 192 711 192 711 429 c 0,68,69
EndSplineSet
EndChar

StartChar: uni0D08
Encoding: 3336 3336 51
Width: 3107
GlyphClass: 2
Flags: W
LayerCount: 2
Fore
SplineSet
2419 492 m 1,0,1
 2428 631 2428 631 2426.5 723.5 c 128,-1,2
 2425 816 2425 816 2374.5 884 c 128,-1,3
 2324 952 2324 952 2231 952 c 1,4,5
 2031 946 2031 946 2028 674 c 0,6,7
 2027 563 2027 563 2032 492 c 1,8,9
 2016 496 2016 496 1996.5 496 c 128,-1,10
 1977 496 1977 496 1958 492 c 1,11,-1
 1964 672 l 1,12,13
 1977 1004 1977 1004 2254 1004 c 0,14,15
 2456 1004 2456 1004 2504 811 c 1,16,17
 2559 1005 2559 1005 2770 1005 c 0,18,19
 2943 1005 2943 1005 3032 855 c 0,20,21
 3106 731 3106 731 3106 546 c 0,22,23
 3106 283 3106 283 2956 134 c 128,-1,24
 2806 -15 2806 -15 2544 -15 c 0,25,26
 2400 -15 2400 -15 2270 40.5 c 128,-1,27
 2140 96 2140 96 2073 207 c 1,28,29
 2111 217 2111 217 2142 250 c 1,30,31
 2257 35 2257 35 2518 35 c 0,32,33
 2748 35 2748 35 2869.5 167 c 128,-1,34
 2991 299 2991 299 2991 530 c 0,35,36
 2991 697 2991 697 2943 805 c 0,37,38
 2877 953 2877 953 2732 950 c 1,39,40
 2642 950 2642 950 2585.5 881.5 c 128,-1,41
 2529 813 2529 813 2529 721 c 2,42,-1
 2529 627 l 2,43,44
 2529 584 2529 584 2535 492 c 1,45,46
 2509 499 2509 499 2478.5 499 c 128,-1,47
 2448 499 2448 499 2419 492 c 1,0,1
1040 834 m 1,48,49
 1135 999 1135 999 1346.5 999 c 128,-1,50
 1558 999 1558 999 1676.5 858.5 c 128,-1,51
 1795 718 1795 718 1795 522.5 c 128,-1,52
 1795 327 1795 327 1701 198 c 128,-1,53
 1607 69 1607 69 1436 25 c 0,54,55
 1347 2 1347 2 1114 0 c 1,56,-1
 499 0 l 2,57,58
 373 0 373 0 373 -82.5 c 128,-1,59
 373 -165 373 -165 479 -172 c 1,60,61
 555 -175 555 -175 754 -175 c 2,62,-1
 1180 -175 l 2,63,64
 1556 -175 1556 -175 1774 -162 c 1,65,66
 1762 -174 1762 -174 1762 -207 c 128,-1,67
 1762 -240 1762 -240 1774 -260 c 1,68,69
 1427 -254 1427 -254 1314 -254 c 2,70,-1
 767 -254 l 1,71,72
 663 -255 663 -255 469 -254 c 1,73,74
 260 -247 260 -247 260 -106 c 0,75,76
 260 49 260 49 524 49 c 2,77,-1
 1109 49 l 1,78,79
 1390 46 1390 46 1524 143 c 0,80,81
 1680 255 1680 255 1680 524 c 0,82,83
 1680 950 1680 950 1348 950 c 0,84,85
 1186 950 1186 950 1120 795 c 0,86,87
 1087 717 1087 717 1087 628 c 2,88,-1
 1087 422 l 2,89,90
 1087 332 1087 332 1098 164 c 1,91,92
 1075 170 1075 170 1039 170 c 256,93,94
 1003 170 1003 170 983 164 c 1,95,-1
 992 422 l 1,96,97
 993 498 993 498 992 625 c 1,98,99
 967 952 967 952 650 952 c 0,100,101
 488 952 488 952 393 840 c 128,-1,102
 298 728 298 728 298 562 c 0,103,104
 298 519 298 519 301 503 c 1,105,106
 312 604 312 604 381.5 660 c 128,-1,107
 451 716 451 716 561.5 716 c 128,-1,108
 672 716 672 716 750 635 c 128,-1,109
 828 554 828 554 828 428.5 c 128,-1,110
 828 303 828 303 747 222 c 128,-1,111
 666 141 666 141 519.5 141 c 128,-1,112
 373 141 373 141 284.5 260.5 c 128,-1,113
 196 380 196 380 196 546 c 0,114,115
 196 760 196 760 329.5 881.5 c 128,-1,116
 463 1003 463 1003 680 1003 c 128,-1,117
 897 1003 897 1003 1040 834 c 1,48,49
710 429 m 0,118,119
 710 528 710 528 666.5 597.5 c 128,-1,120
 623 667 623 667 530 667 c 256,121,122
 437 667 437 667 390 604.5 c 128,-1,123
 343 542 343 542 343 443 c 128,-1,124
 343 344 343 344 387.5 268 c 128,-1,125
 432 192 432 192 526 192 c 0,126,127
 710 192 710 192 710 429 c 0,118,119
EndSplineSet
EndChar

StartChar: uni0D09
Encoding: 3337 3337 52
Width: 1197
GlyphClass: 2
Flags: W
LayerCount: 2
Fore
SplineSet
1052.5 864.5 m 128,-1,1
 1197 725 1197 725 1197 491 c 128,-1,2
 1197 257 1197 257 1051.5 128.5 c 128,-1,3
 906 0 906 0 587 0 c 2,4,-1
 503 0 l 2,5,6
 362 0 362 0 363 -86 c 0,7,8
 363 -151 363 -151 440 -169 c 0,9,10
 472 -176 472 -176 564 -176 c 2,11,-1
 811 -176 l 2,12,13
 969 -176 969 -176 1168 -162 c 1,14,15
 1156 -176 1156 -176 1156 -208 c 128,-1,16
 1156 -240 1156 -240 1168 -260 c 1,17,-1
 811 -254 l 1,18,-1
 542 -254 l 2,19,20
 402 -254 402 -254 352 -239 c 0,21,22
 250 -209 250 -209 250 -106 c 0,23,24
 250 51 250 51 515 51 c 0,25,26
 829 51 829 51 956 166.5 c 128,-1,27
 1083 282 1083 282 1083 490.5 c 128,-1,28
 1083 699 1083 699 974 827 c 128,-1,29
 865 955 865 955 685.5 955 c 128,-1,30
 506 955 506 955 399.5 849 c 128,-1,31
 293 743 293 743 293 568 c 0,32,33
 293 541 293 541 296 512 c 1,34,35
 312 613 312 613 382 669.5 c 128,-1,36
 452 726 452 726 561.5 726 c 128,-1,37
 671 726 671 726 749 643.5 c 128,-1,38
 827 561 827 561 827 436.5 c 128,-1,39
 827 312 827 312 746 231 c 128,-1,40
 665 150 665 150 520 150 c 128,-1,41
 375 150 375 150 286 266.5 c 128,-1,42
 197 383 197 383 197 545 c 0,43,44
 197 763 197 763 331.5 883.5 c 128,-1,45
 466 1004 466 1004 687 1004 c 128,-1,0
 908 1004 908 1004 1052.5 864.5 c 128,-1,1
525 201 m 0,46,47
 710 201 710 201 710 438.5 c 128,-1,48
 710 676 710 676 528 676 c 0,49,50
 434 676 434 676 389 609.5 c 128,-1,51
 344 543 344 543 344 443 c 128,-1,52
 344 343 344 343 387.5 272 c 128,-1,53
 431 201 431 201 525 201 c 0,46,47
EndSplineSet
EndChar

StartChar: uni0D0A
Encoding: 3338 3338 53
Width: 2512
GlyphClass: 2
Flags: W
LayerCount: 2
Fore
SplineSet
2512 546 m 0,0,1
 2512 283 2512 283 2362 134 c 128,-1,2
 2212 -15 2212 -15 1949 -15 c 0,3,4
 1805 -15 1805 -15 1675 40.5 c 128,-1,5
 1545 96 1545 96 1478 207 c 1,6,7
 1517 217 1517 217 1548 250 c 1,8,9
 1662 35 1662 35 1924 35 c 0,10,11
 2153 35 2153 35 2274.5 167 c 128,-1,12
 2396 299 2396 299 2396 530 c 0,13,14
 2396 697 2396 697 2348 805 c 0,15,16
 2282 953 2282 953 2137 950 c 1,17,18
 2047 950 2047 950 1991 881.5 c 128,-1,19
 1935 813 1935 813 1935 721 c 2,20,-1
 1935 627 l 2,21,22
 1935 584 1935 584 1941 492 c 1,23,24
 1915 499 1915 499 1884.5 499 c 128,-1,25
 1854 499 1854 499 1824 492 c 1,26,27
 1833 624 1833 624 1831.5 720 c 128,-1,28
 1830 816 1830 816 1780 884 c 128,-1,29
 1730 952 1730 952 1637 952 c 1,30,31
 1436 946 1436 946 1433 674 c 0,32,33
 1432 563 1432 563 1437 492 c 1,34,35
 1421 496 1421 496 1402 496 c 256,36,37
 1383 496 1383 496 1363 492 c 1,38,-1
 1369 672 l 1,39,40
 1382 1004 1382 1004 1659 1004 c 0,41,42
 1861 1004 1861 1004 1910 811 c 1,43,44
 1964 1005 1964 1005 2176 1005 c 0,45,46
 2348 1005 2348 1005 2438 855 c 0,47,48
 2512 731 2512 731 2512 546 c 0,0,1
1052.5 864.5 m 128,-1,50
 1197 725 1197 725 1197 491 c 128,-1,51
 1197 257 1197 257 1051.5 128.5 c 128,-1,52
 906 0 906 0 587 0 c 2,53,-1
 503 0 l 2,54,55
 362 0 362 0 363 -86 c 0,56,57
 363 -151 363 -151 440 -169 c 0,58,59
 472 -176 472 -176 564 -176 c 2,60,-1
 811 -176 l 2,61,62
 969 -176 969 -176 1168 -162 c 1,63,64
 1156 -176 1156 -176 1156 -208 c 128,-1,65
 1156 -240 1156 -240 1168 -260 c 1,66,-1
 811 -254 l 1,67,-1
 542 -254 l 2,68,69
 402 -254 402 -254 352 -239 c 0,70,71
 250 -209 250 -209 250 -106 c 0,72,73
 250 51 250 51 515 51 c 0,74,75
 829 51 829 51 956 166.5 c 128,-1,76
 1083 282 1083 282 1083 490.5 c 128,-1,77
 1083 699 1083 699 974 827 c 128,-1,78
 865 955 865 955 685.5 955 c 128,-1,79
 506 955 506 955 399.5 849 c 128,-1,80
 293 743 293 743 293 568 c 0,81,82
 293 541 293 541 296 512 c 1,83,84
 312 613 312 613 382 669.5 c 128,-1,85
 452 726 452 726 561.5 726 c 128,-1,86
 671 726 671 726 749 643.5 c 128,-1,87
 827 561 827 561 827 436.5 c 128,-1,88
 827 312 827 312 746 231 c 128,-1,89
 665 150 665 150 520 150 c 128,-1,90
 375 150 375 150 286 266.5 c 128,-1,91
 197 383 197 383 197 545 c 0,92,93
 197 763 197 763 331.5 883.5 c 128,-1,94
 466 1004 466 1004 687 1004 c 128,-1,49
 908 1004 908 1004 1052.5 864.5 c 128,-1,50
525 201 m 0,95,96
 710 201 710 201 710 438.5 c 128,-1,97
 710 676 710 676 528 676 c 0,98,99
 434 676 434 676 389 609.5 c 128,-1,100
 344 543 344 543 344 443 c 128,-1,101
 344 343 344 343 387.5 272 c 128,-1,102
 431 201 431 201 525 201 c 0,95,96
EndSplineSet
EndChar

StartChar: uni0D0B
Encoding: 3339 3339 54
Width: 1329
GlyphClass: 2
Flags: W
LayerCount: 2
Fore
SplineSet
1050 1000 m 0,0,1
 1177 1000 1177 1000 1253 906 c 128,-1,2
 1329 812 1329 812 1329 685 c 128,-1,3
 1329 558 1329 558 1257.5 467 c 128,-1,4
 1186 376 1186 376 1064 342 c 1,5,6
 1178 314 1178 314 1251.5 236 c 128,-1,7
 1325 158 1325 158 1325 46 c 0,8,9
 1325 -133 1325 -133 1121 -217 c 0,10,11
 974 -277 974 -277 765 -277 c 256,12,13
 556 -277 556 -277 407 -216 c 0,14,15
 201 -132 201 -132 201 46 c 0,16,17
 201 158 201 158 274.5 236 c 128,-1,18
 348 314 348 314 462 342 c 1,19,20
 340 376 340 376 268.5 467 c 128,-1,21
 197 558 197 558 197 685 c 128,-1,22
 197 812 197 812 273 906 c 128,-1,23
 349 1000 349 1000 475 1000 c 0,24,25
 570 1000 570 1000 629 947 c 128,-1,26
 688 894 688 894 688 801.5 c 128,-1,27
 688 709 688 709 629 652.5 c 128,-1,28
 570 596 570 596 488.5 596 c 128,-1,29
 407 596 407 596 358 641.5 c 128,-1,30
 309 687 309 687 303 756 c 1,31,32
 296 726 296 726 296 692 c 0,33,34
 296 367 296 367 762.5 367 c 128,-1,35
 1229 367 1229 367 1229 692 c 0,36,37
 1229 726 1229 726 1223 756 c 1,38,39
 1215 691 1215 691 1167 644.5 c 128,-1,40
 1119 598 1119 598 1037.5 597 c 128,-1,41
 956 596 956 596 896.5 652.5 c 128,-1,42
 837 709 837 709 837 801.5 c 128,-1,43
 837 894 837 894 896.5 947 c 128,-1,44
 956 1000 956 1000 1050 1000 c 0,0,1
932 793 m 0,45,46
 932 732 932 732 963 689 c 128,-1,47
 994 646 994 646 1052 646 c 128,-1,48
 1110 646 1110 646 1142.5 691 c 128,-1,49
 1175 736 1175 736 1175 796 c 128,-1,50
 1175 856 1175 856 1144 903 c 128,-1,51
 1113 950 1113 950 1054 950 c 0,52,53
 932 950 932 950 932 793 c 0,45,46
594 793 m 0,54,55
 594 950 594 950 472 950 c 0,56,57
 413 950 413 950 382 903 c 128,-1,58
 351 856 351 856 351 796 c 128,-1,59
 351 736 351 736 383 691 c 128,-1,60
 415 646 415 646 473 646 c 128,-1,61
 531 646 531 646 562.5 689 c 128,-1,62
 594 732 594 732 594 793 c 0,54,55
1051 -168 m 0,63,64
 1210 -93 1210 -93 1210 49.5 c 128,-1,65
 1210 192 1210 192 1062 264 c 0,66,67
 943 321 943 321 790 318 c 0,68,69
 761 317 761 317 732 318 c 0,70,71
 579 321 579 321 462 264 c 0,72,73
 316 192 316 192 316 50 c 128,-1,74
 316 -92 316 -92 477 -168 c 0,75,76
 602 -227 602 -227 765 -227 c 256,77,78
 928 -227 928 -227 1051 -168 c 0,63,64
EndSplineSet
EndChar

StartChar: uni0D0C
Encoding: 3340 3340 55
Width: 2085
GlyphClass: 2
Flags: W
LayerCount: 2
Fore
SplineSet
2084 469 m 1,0,1
 2089 269 2089 269 2003 136 c 0,2,3
 1903 -18 1903 -18 1715 -18 c 0,4,5
 1568 -18 1568 -18 1484.5 76.5 c 128,-1,6
 1401 171 1401 171 1401 310 c 128,-1,7
 1401 449 1401 449 1489.5 537.5 c 128,-1,8
 1578 626 1578 626 1707 626 c 0,9,10
 1800 626 1800 626 1878.5 574.5 c 128,-1,11
 1957 523 1957 523 1985 436 c 1,12,13
 1986 448 1986 448 1986 462 c 0,14,15
 1986 635 1986 635 1906.5 765.5 c 128,-1,16
 1827 896 1827 896 1668 933 c 0,17,18
 1611 946 1611 946 1566 946 c 0,19,20
 1459 946 1459 946 1363 902 c 0,21,22
 1188 822 1188 822 1188 610 c 2,23,-1
 1188 328 l 1,24,-1
 1199 0 l 1,25,26
 1168 9 1168 9 1136 9 c 128,-1,27
 1104 9 1104 9 1082 0 c 1,28,29
 1092 131 1092 131 1092 328 c 2,30,-1
 1092 610 l 2,31,32
 1092 720 1092 720 1060 772 c 0,33,34
 950 948 950 948 738 948 c 128,-1,35
 526 948 526 948 410.5 808.5 c 128,-1,36
 295 669 295 669 295 465 c 0,37,38
 295 449 295 449 296 436 c 1,39,40
 325 523 325 523 403 574.5 c 128,-1,41
 481 626 481 626 574 626 c 0,42,43
 703 626 703 626 792 537.5 c 128,-1,44
 881 449 881 449 881 310 c 128,-1,45
 881 171 881 171 797.5 77 c 128,-1,46
 714 -17 714 -17 566 -18 c 1,47,48
 378 -18 378 -18 286 124 c 128,-1,49
 194 266 194 266 197 469 c 1,50,51
 197 710 197 710 343 854.5 c 128,-1,52
 489 999 489 999 739 999 c 128,-1,53
 989 999 989 999 1145 831 c 1,54,55
 1290 999 1290 999 1541 999 c 128,-1,56
 1792 999 1792 999 1938 854 c 128,-1,57
 2084 709 2084 709 2084 469 c 1,0,1
1955 311.5 m 128,-1,59
 1955 420 1955 420 1894 497 c 128,-1,60
 1833 574 1833 574 1725.5 574 c 128,-1,61
 1618 574 1618 574 1561 497.5 c 128,-1,62
 1504 421 1504 421 1504 306 c 128,-1,63
 1504 191 1504 191 1561.5 111.5 c 128,-1,64
 1619 32 1619 32 1727.5 32 c 128,-1,65
 1836 32 1836 32 1895.5 117.5 c 128,-1,58
 1955 203 1955 203 1955 311.5 c 128,-1,59
777 306 m 128,-1,67
 777 421 777 421 720 497.5 c 128,-1,68
 663 574 663 574 555.5 574 c 128,-1,69
 448 574 448 574 387 497 c 128,-1,70
 326 420 326 420 325.5 310 c 128,-1,71
 325 200 325 200 384.5 116 c 128,-1,72
 444 32 444 32 553 32 c 128,-1,73
 662 32 662 32 719.5 111.5 c 128,-1,66
 777 191 777 191 777 306 c 128,-1,67
EndSplineSet
EndChar

StartChar: uni0D0E
Encoding: 3342 3342 56
Width: 2278
GlyphClass: 2
Flags: W
LayerCount: 2
Fore
SplineSet
2279 285 m 0,0,1
 2279 -249 2279 -249 1929 -453 c 1,2,3
 1928 -403 1928 -403 1890 -373 c 1,4,5
 2163 -224 2163 -224 2163 284 c 0,6,7
 2163 564 2163 564 2073 733 c 0,8,9
 1956 953 1956 953 1701 950 c 0,10,11
 1470 948 1470 948 1346 778 c 128,-1,12
 1222 608 1222 608 1224 178 c 1,13,-1
 1225 49 l 1,14,-1
 1612 49 l 1,15,-1
 1613 160 l 2,16,17
 1617 643 1617 643 1599 797 c 1,18,19
 1622 787 1622 787 1655.5 787 c 128,-1,20
 1689 787 1689 787 1716 797 c 1,21,22
 1708 557 1708 557 1708 -22 c 0,23,24
 1708 -222 1708 -222 1680 -296 c 0,25,26
 1630 -430 1630 -430 1467 -430 c 128,-1,27
 1304 -430 1304 -430 1211 -290 c 0,28,29
 1137 -178 1137 -178 1116 0 c 1,30,-1
 608 0 l 1,31,32
 609 24 609 24 608 38 c 1,33,34
 747 149 747 149 747 311 c 0,35,36
 747 426 747 426 693.5 500.5 c 128,-1,37
 640 575 640 575 530 575 c 128,-1,38
 420 575 420 575 362 502 c 128,-1,39
 304 429 304 429 304 318 c 0,40,41
 304 107 304 107 459 38 c 1,42,43
 435 20 435 20 437 -19 c 1,44,45
 311 39 311 39 254 110.5 c 128,-1,46
 197 182 197 182 197 320 c 128,-1,47
 197 458 197 458 291 541.5 c 128,-1,48
 385 625 385 625 530.5 625 c 128,-1,49
 676 625 676 625 767 541.5 c 128,-1,50
 858 458 858 458 858 305 c 128,-1,51
 858 152 858 152 719 49 c 1,52,-1
 1110 49 l 1,53,54
 1105 142 1105 142 1105 212 c 0,55,56
 1105 548 1105 548 1234 753 c 0,57,58
 1389 999 1389 999 1698 999 c 128,-1,59
 2007 999 2007 999 2154 784 c 0,60,61
 2279 601 2279 601 2279 285 c 0,0,1
1612 0 m 1,62,-1
 1231 0 l 1,63,64
 1239 -146 1239 -146 1289 -246 c 0,65,66
 1356 -381 1356 -381 1481 -381 c 0,67,68
 1618 -381 1618 -381 1618 -157 c 0,69,70
 1618 -132 1618 -132 1614.5 -79.5 c 128,-1,71
 1611 -27 1611 -27 1612 0 c 1,62,-1
EndSplineSet
EndChar

StartChar: uni0D0F
Encoding: 3343 3343 57
Width: 2279
GlyphClass: 2
Flags: W
LayerCount: 2
Fore
SplineSet
2279 -63 m 0,0,1
 2279 -233 2279 -233 2171.5 -328 c 128,-1,2
 2064 -423 2064 -423 1892 -423 c 0,3,4
 1855 -423 1855 -423 1823 -418 c 1,5,6
 1837 -390 1837 -390 1837 -360.5 c 128,-1,7
 1837 -331 1837 -331 1831 -317 c 1,8,9
 1865 -334 1865 -334 1922 -334 c 0,10,11
 2040 -334 2040 -334 2103 -257 c 128,-1,12
 2166 -180 2166 -180 2166 -55.5 c 128,-1,13
 2166 69 2166 69 2086 142.5 c 128,-1,14
 2006 216 2006 216 1876 216 c 0,15,16
 1834 216 1834 216 1798 207 c 1,17,18
 1806 227 1806 227 1806 266 c 128,-1,19
 1806 305 1806 305 1798 325 c 1,20,21
 1842 313 1842 313 1889 313 c 0,22,23
 2006 313 2006 313 2073.5 382 c 128,-1,24
 2141 451 2141 451 2141 569 c 0,25,26
 2141 748 2141 748 2007.5 849 c 128,-1,27
 1874 950 1874 950 1690 950 c 0,28,29
 1592 950 1592 950 1496.5 901.5 c 128,-1,30
 1401 853 1401 853 1343 774 c 0,31,32
 1222 607 1222 607 1224 177 c 1,33,-1
 1225 49 l 1,34,-1
 1612 49 l 1,35,-1
 1613 160 l 2,36,37
 1617 644 1617 644 1599 797 c 1,38,39
 1653 773 1653 773 1716 797 c 1,40,41
 1708 557 1708 557 1708 -24 c 0,42,43
 1708 -219 1708 -219 1681 -294 c 0,44,45
 1632 -430 1632 -430 1472 -430 c 0,46,47
 1172 -430 1172 -430 1116 0 c 1,48,-1
 606 0 l 1,49,50
 607 44 607 44 608 38 c 1,51,52
 747 149 747 149 747 311 c 0,53,54
 747 426 747 426 693.5 500.5 c 128,-1,55
 640 575 640 575 530 575 c 128,-1,56
 420 575 420 575 362 502 c 128,-1,57
 304 429 304 429 304 318 c 0,58,59
 304 107 304 107 459 38 c 1,60,61
 436 21 436 21 437 -19 c 1,62,63
 311 39 311 39 254 110.5 c 128,-1,64
 197 182 197 182 197 320 c 128,-1,65
 197 458 197 458 291 541.5 c 128,-1,66
 385 625 385 625 530.5 625 c 128,-1,67
 676 625 676 625 767 541.5 c 128,-1,68
 858 458 858 458 858 305.5 c 128,-1,69
 858 153 858 153 719 49 c 1,70,-1
 1110 49 l 1,71,72
 1105 142 1105 142 1105 212 c 0,73,74
 1105 548 1105 548 1234 753 c 0,75,76
 1389 999 1389 999 1706 999 c 0,77,78
 1926 999 1926 999 2090.5 882 c 128,-1,79
 2255 765 2255 765 2255 553 c 0,80,81
 2255 449 2255 449 2197 368.5 c 128,-1,82
 2139 288 2139 288 2040 266 c 1,83,84
 2149 237 2149 237 2214 145 c 128,-1,85
 2279 53 2279 53 2279 -63 c 0,0,1
1617 -152 m 0,86,87
 1617 -128 1617 -128 1614 -77 c 128,-1,88
 1611 -26 1611 -26 1612 0 c 1,89,-1
 1231 0 l 1,90,91
 1239 -142 1239 -142 1290 -245 c 0,92,93
 1358 -381 1358 -381 1481 -381 c 0,94,95
 1617 -381 1617 -381 1617 -152 c 0,86,87
EndSplineSet
EndChar

StartChar: uni0D10
Encoding: 3344 3344 58
Width: 3509
GlyphClass: 2
Flags: W
LayerCount: 2
Fore
SplineSet
3509 285 m 0,0,1
 3509 -249 3509 -249 3160 -453 c 1,2,3
 3159 -403 3159 -403 3121 -373 c 1,4,5
 3394 -224 3394 -224 3394 284 c 0,6,7
 3394 564 3394 564 3304 733 c 0,8,9
 3187 953 3187 953 2932 950 c 0,10,11
 2701 948 2701 948 2577 778 c 128,-1,12
 2453 608 2453 608 2455 178 c 1,13,-1
 2455 49 l 1,14,-1
 2842 49 l 1,15,-1
 2843 160 l 2,16,17
 2847 643 2847 643 2830 797 c 1,18,19
 2883 773 2883 773 2947 797 c 1,20,21
 2939 557 2939 557 2939 -22 c 0,22,23
 2939 -223 2939 -223 2911 -297 c 0,24,25
 2861 -430 2861 -430 2696 -430 c 0,26,27
 2402 -430 2402 -430 2347 0 c 1,28,-1
 1838 0 l 1,29,30
 1840 24 1840 24 1838 38 c 1,31,32
 1978 149 1978 149 1978 311 c 0,33,34
 1978 426 1978 426 1924 500.5 c 128,-1,35
 1870 575 1870 575 1760.5 575 c 128,-1,36
 1651 575 1651 575 1593 502 c 128,-1,37
 1535 429 1535 429 1535 318 c 0,38,39
 1535 107 1535 107 1690 38 c 1,40,41
 1666 20 1666 20 1667 -19 c 1,42,43
 1542 39 1542 39 1484.5 110.5 c 128,-1,44
 1427 182 1427 182 1427 320 c 128,-1,45
 1427 458 1427 458 1521 541.5 c 128,-1,46
 1615 625 1615 625 1760.5 625 c 128,-1,47
 1906 625 1906 625 1997.5 541.5 c 128,-1,48
 2089 458 2089 458 2089 305 c 128,-1,49
 2089 152 2089 152 1950 49 c 1,50,-1
 2341 49 l 1,51,52
 2336 142 2336 142 2336 212 c 0,53,54
 2336 548 2336 548 2465 753 c 0,55,56
 2620 999 2620 999 2929 999 c 128,-1,57
 3238 999 3238 999 3385 784 c 0,58,59
 3509 601 3509 601 3509 285 c 0,0,1
2843 0 m 1,60,-1
 2462 0 l 1,61,62
 2470 -142 2470 -142 2521 -245 c 0,63,64
 2589 -381 2589 -381 2711 -381 c 0,65,66
 2848 -381 2848 -381 2848 -152 c 0,67,68
 2848 -128 2848 -128 2845 -77 c 128,-1,69
 2842 -26 2842 -26 2843 0 c 1,60,-1
1243 474 m 0,70,71
 1243 163 1243 163 997 -23 c 1,72,73
 988 14 988 14 952 43 c 1,74,75
 1042 97 1042 97 1088 218 c 128,-1,76
 1134 339 1134 339 1134 461 c 0,77,78
 1134 662 1134 662 1028 802 c 128,-1,79
 922 942 922 942 725.5 942 c 128,-1,80
 529 942 529 942 411 816 c 128,-1,81
 293 690 293 690 293 490 c 0,82,83
 293 460 293 460 297 436 c 1,84,85
 325 522 325 522 403.5 574 c 128,-1,86
 482 626 482 626 575 626 c 0,87,88
 703 626 703 626 792 537.5 c 128,-1,89
 881 449 881 449 881 310.5 c 128,-1,90
 881 172 881 172 797.5 77 c 128,-1,91
 714 -18 714 -18 567 -18 c 0,92,93
 382 -18 382 -18 283 127 c 0,94,95
 197 253 197 253 197 447 c 0,96,97
 197 697 197 697 336 847 c 128,-1,98
 475 997 475 997 716 997 c 128,-1,99
 957 997 957 997 1100 852.5 c 128,-1,100
 1243 708 1243 708 1243 474 c 0,70,71
778 306 m 128,-1,102
 778 420 778 420 720.5 497 c 128,-1,103
 663 574 663 574 556 574 c 128,-1,104
 449 574 449 574 388 497 c 128,-1,105
 327 420 327 420 327 311.5 c 128,-1,106
 327 203 327 203 386.5 117.5 c 128,-1,107
 446 32 446 32 554.5 32 c 128,-1,108
 663 32 663 32 720.5 112 c 128,-1,101
 778 192 778 192 778 306 c 128,-1,102
EndSplineSet
EndChar

StartChar: uni0D12
Encoding: 3346 3346 59
Width: 1243
GlyphClass: 2
Flags: W
LayerCount: 2
Fore
SplineSet
1243 244 m 0,0,1
 1243 110 1243 110 1150.5 40 c 128,-1,2
 1058 -30 1058 -30 922 -27 c 1,3,4
 926 27 926 27 905 57 c 1,5,6
 930 51 930 51 954 51 c 0,7,8
 1028 51 1028 51 1078 105.5 c 128,-1,9
 1128 160 1128 160 1128 242.5 c 128,-1,10
 1128 325 1128 325 1081.5 381 c 128,-1,11
 1035 437 1035 437 952 437 c 0,12,13
 930 437 930 437 913 432 c 1,14,15
 921 450 921 450 921 479.5 c 128,-1,16
 921 509 921 509 913 527 c 1,17,18
 933 525 933 525 951 525 c 0,19,20
 1017 525 1017 525 1058.5 568.5 c 128,-1,21
 1100 612 1100 612 1102 679 c 0,22,23
 1106 814 1106 814 986 888 c 0,24,25
 885 951 885 951 740 951 c 0,26,27
 529 951 529 951 415 812.5 c 128,-1,28
 301 674 301 674 301 461 c 0,29,30
 301 411 301 411 308 386 c 1,31,32
 365 557 365 557 549 557 c 0,33,34
 664 557 664 557 743 477 c 128,-1,35
 822 397 822 397 822 271.5 c 128,-1,36
 822 146 822 146 747.5 61.5 c 128,-1,37
 673 -23 673 -23 539 -23 c 1,38,39
 357 -18 357 -18 267 137 c 0,40,41
 196 261 196 261 196 455 c 0,42,43
 196 702 196 702 339.5 851.5 c 128,-1,44
 483 1001 483 1001 729 1001 c 1,45,46
 905 1009 905 1009 1043 939 c 0,47,48
 1210 854 1210 854 1216.5 692 c 128,-1,49
 1223 530 1223 530 1073 481 c 1,50,51
 1149 454 1149 454 1196 389 c 128,-1,52
 1243 324 1243 324 1243 244 c 0,0,1
524 22 m 0,53,54
 707 22 707 22 707 266 c 128,-1,55
 707 510 707 510 517 510 c 0,56,57
 427 510 427 510 382 442.5 c 128,-1,58
 337 375 337 375 337 275.5 c 128,-1,59
 337 176 337 176 381.5 99 c 128,-1,60
 426 22 426 22 524 22 c 0,53,54
EndSplineSet
EndChar

StartChar: uni0D13
Encoding: 3347 3347 60
Width: 2186
GlyphClass: 2
Flags: W
LayerCount: 2
Fore
SplineSet
2185 470 m 1,0,1
 2183 270 2183 270 2067.5 131 c 128,-1,2
 1952 -8 1952 -8 1758 -8 c 0,3,4
 1467 -8 1467 -8 1378 240 c 1,5,6
 1385 238 1385 238 1410 238 c 128,-1,7
 1435 238 1435 238 1468 252 c 1,8,9
 1491 151 1491 151 1572.5 91 c 128,-1,10
 1654 31 1654 31 1759 31 c 1,11,12
 1917 34 1917 34 2001 179 c 0,13,14
 2070 299 2070 299 2072 478.5 c 128,-1,15
 2074 658 2074 658 2010 784 c 0,16,17
 1929 946 1929 946 1752 946 c 0,18,19
 1642 946 1642 946 1562 872 c 128,-1,20
 1482 798 1482 798 1470 688 c 1,21,22
 1437 718 1437 718 1383 721 c 1,23,24
 1473 990 1473 990 1773 990 c 1,25,26
 1982 986 1982 986 2095 821 c 0,27,28
 2193 677 2193 677 2185 470 c 1,0,1
1244 244 m 0,29,30
 1244 110 1244 110 1151.5 40 c 128,-1,31
 1059 -30 1059 -30 922 -27 c 1,32,33
 927 27 927 27 906 57 c 1,34,35
 931 51 931 51 955 51 c 0,36,37
 1029 51 1029 51 1079 105.5 c 128,-1,38
 1129 160 1129 160 1129 242.5 c 128,-1,39
 1129 325 1129 325 1082.5 381 c 128,-1,40
 1036 437 1036 437 953 437 c 0,41,42
 931 437 931 437 914 432 c 1,43,44
 922 450 922 450 922 479.5 c 128,-1,45
 922 509 922 509 914 527 c 1,46,47
 934 525 934 525 952 525 c 0,48,49
 1018 525 1018 525 1059.5 568.5 c 128,-1,50
 1101 612 1101 612 1103 679 c 0,51,52
 1107 814 1107 814 996 882.5 c 128,-1,53
 885 951 885 951 740 951 c 0,54,55
 530 951 530 951 416 812.5 c 128,-1,56
 302 674 302 674 302 461 c 0,57,58
 302 411 302 411 309 386 c 1,59,60
 366 557 366 557 550 557 c 0,61,62
 665 557 665 557 743.5 477 c 128,-1,63
 822 397 822 397 822 271.5 c 128,-1,64
 822 146 822 146 747.5 61.5 c 128,-1,65
 673 -23 673 -23 540 -23 c 1,66,67
 357 -18 357 -18 268 137 c 0,68,69
 197 261 197 261 197 455 c 0,70,71
 197 702 197 702 340.5 851.5 c 128,-1,72
 484 1001 484 1001 730 1001 c 1,73,74
 906 1009 906 1009 1044 939 c 0,75,76
 1211 854 1211 854 1217 692 c 128,-1,77
 1223 530 1223 530 1074 481 c 1,78,79
 1150 454 1150 454 1197 389 c 128,-1,80
 1244 324 1244 324 1244 244 c 0,29,30
524 22 m 0,81,82
 707 22 707 22 707 266 c 128,-1,83
 707 510 707 510 517 510 c 0,84,85
 428 510 428 510 383 442.5 c 128,-1,86
 338 375 338 375 338 275.5 c 128,-1,87
 338 176 338 176 382.5 99 c 128,-1,88
 427 22 427 22 524 22 c 0,81,82
EndSplineSet
EndChar

StartChar: uni0D14
Encoding: 3348 3348 61
Width: 2523
GlyphClass: 2
Flags: W
LayerCount: 2
Fore
SplineSet
1921 811 m 1,0,1
 1975 1005 1975 1005 2187 1005 c 0,2,3
 2326 1005 2326 1005 2413 905 c 0,4,5
 2524 777 2524 777 2523 539 c 1,6,7
 2527 276 2527 276 2365 127 c 128,-1,8
 2203 -22 2203 -22 1936 -14 c 1,9,10
 1697 -12 1697 -12 1549 133 c 0,11,12
 1513 167 1513 167 1490 207 c 1,13,14
 1528 217 1528 217 1559 250 c 1,15,16
 1670 41 1670 41 1935 35 c 1,17,18
 2161 36 2161 36 2281.5 162.5 c 128,-1,19
 2402 289 2402 289 2407 499 c 0,20,21
 2417 942 2417 942 2154 950 c 0,22,23
 2073 953 2073 953 2009.5 889.5 c 128,-1,24
 1946 826 1946 826 1946 721 c 2,25,-1
 1946 627 l 2,26,27
 1946 603 1946 603 1952 492 c 1,28,29
 1926 499 1926 499 1895.5 499 c 128,-1,30
 1865 499 1865 499 1836 492 c 1,31,32
 1846 627 1846 627 1842.5 725 c 128,-1,33
 1839 823 1839 823 1785 887.5 c 128,-1,34
 1731 952 1731 952 1648 952 c 0,35,36
 1635 952 1635 952 1621 950 c 0,37,38
 1445 927 1445 927 1445 694 c 0,39,40
 1445 548 1445 548 1449 492 c 1,41,42
 1416 500 1416 500 1374 492 c 1,43,-1
 1381 672 l 1,44,45
 1385 855 1385 855 1487 943 c 0,46,47
 1563 1008 1563 1008 1647.5 1004 c 128,-1,48
 1732 1000 1732 1000 1772 986 c 1,49,50
 1888 942 1888 942 1921 811 c 1,0,1
1244 244 m 0,51,52
 1244 110 1244 110 1151.5 40 c 128,-1,53
 1059 -30 1059 -30 922 -27 c 1,54,55
 927 27 927 27 906 57 c 1,56,57
 931 51 931 51 955 51 c 0,58,59
 1029 51 1029 51 1079 105.5 c 128,-1,60
 1129 160 1129 160 1129 242.5 c 128,-1,61
 1129 325 1129 325 1082.5 381 c 128,-1,62
 1036 437 1036 437 953 437 c 0,63,64
 931 437 931 437 914 432 c 1,65,66
 922 450 922 450 922 479.5 c 128,-1,67
 922 509 922 509 914 527 c 1,68,69
 934 525 934 525 952 525 c 0,70,71
 1018 525 1018 525 1059.5 568.5 c 128,-1,72
 1101 612 1101 612 1103 679 c 0,73,74
 1107 814 1107 814 996 882.5 c 128,-1,75
 885 951 885 951 740 951 c 0,76,77
 530 951 530 951 416 812.5 c 128,-1,78
 302 674 302 674 302 461 c 0,79,80
 302 411 302 411 309 386 c 1,81,82
 366 557 366 557 550 557 c 0,83,84
 665 557 665 557 743.5 477 c 128,-1,85
 822 397 822 397 822 271.5 c 128,-1,86
 822 146 822 146 747.5 61.5 c 128,-1,87
 673 -23 673 -23 540 -23 c 1,88,89
 357 -18 357 -18 268 137 c 0,90,91
 197 261 197 261 197 455 c 0,92,93
 197 702 197 702 340.5 851.5 c 128,-1,94
 484 1001 484 1001 730 1001 c 1,95,96
 906 1009 906 1009 1044 939 c 0,97,98
 1211 854 1211 854 1217 692 c 128,-1,99
 1223 530 1223 530 1074 481 c 1,100,101
 1150 454 1150 454 1197 389 c 128,-1,102
 1244 324 1244 324 1244 244 c 0,51,52
524 22 m 0,103,104
 707 22 707 22 707 266 c 128,-1,105
 707 510 707 510 517 510 c 0,106,107
 428 510 428 510 383 442.5 c 128,-1,108
 338 375 338 375 338 275.5 c 128,-1,109
 338 176 338 176 382.5 99 c 128,-1,110
 427 22 427 22 524 22 c 0,103,104
EndSplineSet
EndChar

StartChar: uni0D15
Encoding: 3349 3349 62
Width: 1752
GlyphClass: 2
Flags: W
LayerCount: 2
Fore
SplineSet
1647 492 m 1,0,1
 1752 408 1752 408 1752 265 c 128,-1,2
 1752 122 1752 122 1639.5 48.5 c 128,-1,3
 1527 -25 1527 -25 1371 -18 c 1,4,5
 1375 -4 1375 -4 1375 16.5 c 128,-1,6
 1375 37 1375 37 1362 57 c 1,7,8
 1393 49 1393 49 1428 49 c 0,9,10
 1525 49 1525 49 1584.5 112.5 c 128,-1,11
 1644 176 1644 176 1644 284 c 128,-1,12
 1644 392 1644 392 1567 451 c 1,13,14
 1510 498 1510 498 1342 498 c 1,15,16
 1342 283 1342 283 1272 153 c 0,17,18
 1182 -16 1182 -16 981 -16 c 128,-1,19
 780 -16 780 -16 705 170 c 1,20,21
 692 81 692 81 624 32.5 c 128,-1,22
 556 -16 556 -16 450 -16 c 128,-1,23
 344 -16 344 -16 270.5 58.5 c 128,-1,24
 197 133 197 133 197 261 c 128,-1,25
 197 389 197 389 284 464.5 c 128,-1,26
 371 540 371 540 513 546 c 0,27,28
 561 548 561 548 635 546 c 1,29,30
 637 732 637 732 720 855 c 0,31,32
 817 998 817 998 992 999.5 c 128,-1,33
 1167 1001 1167 1001 1259 854 c 1,34,35
 1338 730 1338 730 1340 546 c 1,36,37
 1345 545 1345 545 1422 545 c 0,38,39
 1579 545 1579 545 1647 492 c 1,0,1
1225 546 m 1,40,41
 1224 691 1224 691 1201 773 c 128,-1,42
 1178 855 1178 855 1123.5 903 c 128,-1,43
 1069 951 1069 951 995 951 c 0,44,45
 739 949 739 949 750 546 c 1,46,-1
 1225 546 l 1,40,41
1225 424 m 2,47,-1
 1225 496 l 1,48,-1
 750 496 l 1,49,50
 746 411 746 411 760 293 c 0,51,52
 791 41 791 41 986 33 c 1,53,54
 1137 33 1137 33 1191 163 c 0,55,56
 1225 246 1225 246 1225 424 c 2,47,-1
656 221 m 1,57,-1
 633 496 l 1,58,59
 651 497 651 497 542 497 c 128,-1,60
 433 497 433 497 367 435 c 128,-1,61
 301 373 301 373 301 272.5 c 128,-1,62
 301 172 301 172 350.5 105.5 c 128,-1,63
 400 39 400 39 486 39 c 0,64,65
 656 39 656 39 656 221 c 1,57,-1
EndSplineSet
EndChar

StartChar: uni0D16
Encoding: 3350 3350 63
Width: 1672
GlyphClass: 2
Flags: W
LayerCount: 2
Fore
SplineSet
1631 0 m 1,0,-1
 900 0 l 1,1,2
 902 8 902 8 902 18 c 256,3,4
 902 28 902 28 900 37 c 1,5,6
 1101 218 1101 218 1101 479 c 0,7,8
 1101 684 1101 684 992 815.5 c 128,-1,9
 883 947 883 947 683 947 c 1,10,11
 486 938 486 938 387 804.5 c 128,-1,12
 288 671 288 671 288 469 c 0,13,14
 288 421 288 421 293 369 c 1,15,16
 335 627 335 627 572 627 c 0,17,18
 697 627 697 627 778.5 534 c 128,-1,19
 860 441 860 441 860 308.5 c 128,-1,20
 860 176 860 176 780.5 84.5 c 128,-1,21
 701 -7 701 -7 565 -7 c 0,22,23
 387 -7 387 -7 285 151 c 0,24,25
 197 288 197 288 197 479 c 0,26,27
 197 715 197 715 336.5 856.5 c 128,-1,28
 476 998 476 998 700 998 c 128,-1,29
 924 998 924 998 1064.5 856.5 c 128,-1,30
 1205 715 1205 715 1205 502 c 1,31,32
 1212 223 1212 223 988 49 c 1,33,-1
 1514 49 l 1,34,35
 1526 192 1526 192 1526 366 c 2,36,-1
 1526 661 l 2,37,38
 1526 827 1526 827 1514 971 c 1,39,40
 1543 965 1543 965 1574.5 965 c 128,-1,41
 1606 965 1606 965 1631 971 c 1,42,43
 1623 791 1623 791 1623 674 c 2,44,-1
 1623 334 l 2,45,46
 1623 184 1623 184 1631 0 c 1,0,-1
757 297 m 0,47,48
 757 572 757 572 536 572 c 1,49,50
 437 569 437 569 384.5 494 c 128,-1,51
 332 419 332 419 332 313 c 128,-1,52
 332 207 332 207 386.5 124.5 c 128,-1,53
 441 42 441 42 545.5 42 c 128,-1,54
 650 42 650 42 703.5 116 c 128,-1,55
 757 190 757 190 757 297 c 0,47,48
EndSplineSet
EndChar

StartChar: uni0D17
Encoding: 3351 3351 64
Width: 1678
GlyphClass: 2
Flags: W
LayerCount: 2
Fore
SplineSet
882 322 m 1,0,-1
 860 586 l 1,1,2
 851 766 851 766 954.5 882 c 128,-1,3
 1058 998 1058 998 1251.5 1001 c 128,-1,4
 1445 1004 1445 1004 1564 854.5 c 128,-1,5
 1683 705 1683 705 1678 498 c 0,6,7
 1669 144 1669 144 1349 -31 c 1,8,9
 1343 13 1343 13 1310 43 c 1,10,11
 1559 160 1559 160 1559 508 c 1,12,13
 1562 700 1562 700 1481.5 825 c 128,-1,14
 1401 950 1401 950 1251.5 950 c 128,-1,15
 1102 950 1102 950 1036 854 c 128,-1,16
 970 758 970 758 977 612 c 0,17,18
 978 576 978 576 987 479 c 128,-1,19
 996 382 996 382 996 330 c 0,20,21
 996 176 996 176 894.5 75.5 c 128,-1,22
 793 -25 793 -25 640 -25 c 1,23,24
 432 -29 432 -29 312 115.5 c 128,-1,25
 192 260 192 260 197 463 c 1,26,27
 197 736 197 736 386 905 c 0,28,29
 465 975 465 975 549 1004 c 1,30,31
 540 963 540 963 576 926 c 1,32,33
 444 882 444 882 373 738 c 0,34,35
 312 615 312 615 312 455 c 128,-1,36
 312 295 312 295 387 172 c 1,37,38
 475 25 475 25 630 25 c 0,39,40
 754 25 754 25 818 109.5 c 128,-1,41
 882 194 882 194 882 322 c 1,0,-1
EndSplineSet
EndChar

StartChar: uni0D18
Encoding: 3352 3352 65
Width: 2275
GlyphClass: 2
Flags: W
LayerCount: 2
Fore
SplineSet
2234 0 m 1,0,-1
 1034 0 l 1,1,2
 1038 122 1038 122 1044 367 c 1,3,-1
 567 367 l 1,4,5
 573 383 573 383 573 392.5 c 128,-1,6
 573 402 573 402 567 416 c 1,7,8
 689 503 689 503 689 656 c 0,9,10
 689 750 689 750 634.5 818 c 128,-1,11
 580 886 580 886 489 885 c 1,12,13
 389 879 389 879 339 812 c 128,-1,14
 289 745 289 745 289.5 649.5 c 128,-1,15
 290 554 290 554 342 480 c 1,16,17
 374 437 374 437 422 412 c 1,18,19
 399 394 399 394 398 360 c 1,20,21
 197 455 197 455 197 666 c 1,22,23
 198 788 198 788 283.5 861 c 128,-1,24
 369 934 369 934 492 935 c 128,-1,25
 615 936 615 936 701.5 857 c 128,-1,26
 788 778 788 778 788 659 c 0,27,28
 788 503 788 503 654 416 c 1,29,-1
 1044 416 l 1,30,-1
 1044 625 l 2,31,32
 1044 807 1044 807 1102 879 c 0,33,34
 1200 1002 1200 1002 1387.5 1001.5 c 128,-1,35
 1575 1001 1575 1001 1671 879 c 1,36,37
 1726 813 1726 813 1726 610 c 0,38,39
 1726 507 1726 507 1733 367 c 1,40,-1
 1141 367 l 1,41,-1
 1141 49 l 1,42,-1
 2130 49 l 1,43,-1
 2130 653 l 2,44,45
 2130 760 2130 760 2118 971 c 1,46,47
 2140 962 2140 962 2171.5 962 c 128,-1,48
 2203 962 2203 962 2234 971 c 1,49,50
 2226 783 2226 783 2226 669 c 2,51,-1
 2226 305 l 2,52,53
 2226 232 2226 232 2234 0 c 1,0,-1
1632 416 m 1,54,-1
 1632 607 l 1,55,56
 1630 738 1630 738 1628 750 c 0,57,58
 1618 825 1618 825 1568 872 c 1,59,60
 1498 941 1498 941 1382 941 c 128,-1,61
 1266 941 1266 941 1203.5 871.5 c 128,-1,62
 1141 802 1141 802 1141 634 c 2,63,-1
 1141 416 l 1,64,-1
 1632 416 l 1,54,-1
EndSplineSet
EndChar

StartChar: uni0D19
Encoding: 3353 3353 66
Width: 1939
GlyphClass: 2
Flags: W
LayerCount: 2
Fore
SplineSet
1939 252 m 0,0,1
 1939 105 1939 105 1810 26 c 0,2,3
 1703 -39 1703 -39 1546 -39 c 0,4,5
 1462 -39 1462 -39 1395 -20 c 1,6,7
 1423 6 1423 6 1423 35 c 128,-1,8
 1423 64 1423 64 1419 78 c 1,9,10
 1472 36 1472 36 1580.5 36 c 128,-1,11
 1689 36 1689 36 1758 88 c 128,-1,12
 1827 140 1827 140 1827 240.5 c 128,-1,13
 1827 341 1827 341 1759.5 390.5 c 128,-1,14
 1692 440 1692 440 1604.5 440 c 128,-1,15
 1517 440 1517 440 1468 424 c 1,16,17
 1476 443 1476 443 1476 482.5 c 128,-1,18
 1476 522 1476 522 1468 542 c 1,19,20
 1538 531 1538 531 1589 531 c 0,21,22
 1802 531 1802 531 1802 722 c 0,23,24
 1802 837 1802 837 1717 893.5 c 128,-1,25
 1632 950 1632 950 1510 950 c 0,26,27
 1290 950 1290 950 1201 778 c 0,28,29
 1171 721 1171 721 1171 604 c 2,30,-1
 1171 328 l 1,31,-1
 1181 0 l 1,32,33
 1151 9 1151 9 1119 9 c 128,-1,34
 1087 9 1087 9 1065 0 c 1,35,36
 1075 130 1075 130 1075 321 c 2,37,-1
 1075 610 l 2,38,39
 1075 768 1075 768 980 857 c 128,-1,40
 885 946 885 946 726 946 c 0,41,42
 514 946 514 946 404 812.5 c 128,-1,43
 294 679 294 679 294 465 c 0,44,45
 294 449 294 449 295 436 c 1,46,47
 324 523 324 523 402 574.5 c 128,-1,48
 480 626 480 626 573 626 c 0,49,50
 702 626 702 626 791 537.5 c 128,-1,51
 880 449 880 449 880 310 c 128,-1,52
 880 171 880 171 796.5 76.5 c 128,-1,53
 713 -18 713 -18 565 -18 c 0,54,55
 377 -18 377 -18 285 125 c 128,-1,56
 193 268 193 268 196 469 c 1,57,58
 196 710 196 710 342 854.5 c 128,-1,59
 488 999 488 999 728.5 999 c 128,-1,60
 969 999 969 999 1127 846 c 1,61,62
 1269 1000 1269 1000 1514 1000 c 0,63,64
 1677 1000 1677 1000 1786 928 c 0,65,66
 1915 844 1915 844 1915 691.5 c 128,-1,67
 1915 539 1915 539 1751 487 c 1,68,69
 1833 464 1833 464 1886 400 c 128,-1,70
 1939 336 1939 336 1939 252 c 0,0,1
776 306.5 m 128,-1,72
 776 421 776 421 718 498.5 c 128,-1,73
 660 576 660 576 551.5 574 c 128,-1,74
 443 572 443 572 384 496 c 128,-1,75
 325 420 325 420 325 311 c 128,-1,76
 325 202 325 202 383 118 c 128,-1,77
 441 34 441 34 550.5 33 c 128,-1,78
 660 32 660 32 718 112 c 128,-1,71
 776 192 776 192 776 306.5 c 128,-1,72
EndSplineSet
EndChar

StartChar: uni0D1A
Encoding: 3354 3354 67
Width: 1786
GlyphClass: 2
Flags: W
LayerCount: 2
Fore
SplineSet
1745 0 m 1,0,-1
 632 0 l 2,1,2
 259 0 259 0 147 -8 c 1,3,4
 180 28 180 28 147 66 c 1,5,6
 480 48 480 48 657 48 c 128,-1,7
 834 48 834 48 895 64.5 c 128,-1,8
 956 81 956 81 995 155.5 c 128,-1,9
 1034 230 1034 230 1034 328.5 c 128,-1,10
 1034 427 1034 427 976 501 c 128,-1,11
 918 575 918 575 812.5 575 c 128,-1,12
 707 575 707 575 647 512 c 128,-1,13
 587 449 587 449 587 352 c 0,14,15
 587 294 587 294 606 248 c 1,16,17
 551 253 551 253 521 211 c 1,18,19
 489 271 489 271 489 343 c 0,20,21
 489 477 489 477 584.5 551.5 c 128,-1,22
 680 626 680 626 820.5 626 c 128,-1,23
 961 626 961 626 1055 541.5 c 128,-1,24
 1149 457 1149 457 1149 315 c 0,25,26
 1149 134 1149 134 1005 49 c 1,27,-1
 1640 49 l 1,28,-1
 1648 510 l 1,29,30
 1650 780 1650 780 1628 971 c 1,31,32
 1682 948 1682 948 1745 971 c 1,33,34
 1731 428 1731 428 1745 0 c 1,0,-1
EndSplineSet
EndChar

StartChar: uni0D1B
Encoding: 3355 3355 68
Width: 2456
GlyphClass: 2
Flags: W
LayerCount: 2
Fore
SplineSet
2456 467 m 0,0,1
 2456 259 2456 259 2381 134 c 1,2,3
 2290 -15 2290 -15 2099 -18 c 1,4,5
 1948 -18 1948 -18 1857.5 87.5 c 128,-1,6
 1767 193 1767 193 1767 346 c 128,-1,7
 1767 499 1767 499 1857 601 c 128,-1,8
 1947 703 1947 703 2098 703 c 0,9,10
 2162 703 2162 703 2230 677 c 128,-1,11
 2298 651 2298 651 2329 604 c 1,12,13
 2314 753 2314 753 2199 847.5 c 128,-1,14
 2084 942 2084 942 1932 942 c 0,15,16
 1726 942 1726 942 1619 803 c 128,-1,17
 1512 664 1512 664 1512 452 c 0,18,19
 1512 174 1512 174 1681 49 c 1,20,21
 1674 38 1674 38 1674 22.5 c 128,-1,22
 1674 7 1674 7 1677 0 c 1,23,-1
 528 0 l 1,24,25
 401 1 401 1 147 -8 c 1,26,27
 160 5 160 5 160 28.5 c 128,-1,28
 160 52 160 52 147 66 c 1,29,30
 422 51 422 51 635 51 c 128,-1,31
 848 51 848 51 889 61 c 1,32,33
 961 81 961 81 997.5 154.5 c 128,-1,34
 1034 228 1034 228 1034 327 c 128,-1,35
 1034 426 1034 426 974.5 500.5 c 128,-1,36
 915 575 915 575 810.5 573.5 c 128,-1,37
 706 572 706 572 646.5 510.5 c 128,-1,38
 587 449 587 449 587 352 c 0,39,40
 587 294 587 294 606 248 c 1,41,42
 552 256 552 256 521 211 c 1,43,44
 489 279 489 279 489 343 c 0,45,46
 489 478 489 478 584.5 552 c 128,-1,47
 680 626 680 626 820.5 626 c 128,-1,48
 961 626 961 626 1055 541.5 c 128,-1,49
 1149 457 1149 457 1149 315 c 0,50,51
 1149 133 1149 133 1005 49 c 1,52,-1
 1572 49 l 1,53,54
 1403 215 1403 215 1403 461 c 128,-1,55
 1403 707 1403 707 1545 851 c 128,-1,56
 1687 995 1687 995 1926.5 995 c 128,-1,57
 2166 995 2166 995 2311 855.5 c 128,-1,58
 2456 716 2456 716 2456 467 c 0,0,1
2329 333 m 0,59,60
 2329 645 2329 645 2115 645 c 0,61,62
 1996 645 1996 645 1936 547 c 0,63,64
 1886 466 1886 466 1886 343 c 128,-1,65
 1886 220 1886 220 1943.5 126 c 128,-1,66
 2001 32 2001 32 2111 32 c 128,-1,67
 2221 32 2221 32 2275 124.5 c 128,-1,68
 2329 217 2329 217 2329 333 c 0,59,60
EndSplineSet
EndChar

StartChar: uni0D1C
Encoding: 3356 3356 69
Width: 1603
GlyphClass: 2
Flags: W
LayerCount: 2
Fore
SplineSet
1603 666 m 0,0,1
 1603 393 1603 393 1344 328 c 0,2,3
 1223 297 1223 297 953 297 c 2,4,-1
 508 297 l 2,5,6
 441 297 441 297 392 255.5 c 128,-1,7
 343 214 343 214 343 147 c 0,8,9
 343 -1 343 -1 494.5 -1 c 128,-1,10
 646 -1 646 -1 845 81 c 0,11,12
 947 124 947 124 1172 244 c 0,13,14
 1305 315 1305 315 1398 315 c 128,-1,15
 1491 315 1491 315 1541 263 c 128,-1,16
 1591 211 1591 211 1591 118 c 128,-1,17
 1591 25 1591 25 1525.5 -29.5 c 128,-1,18
 1460 -84 1460 -84 1358.5 -84 c 128,-1,19
 1257 -84 1257 -84 1176 -31.5 c 128,-1,20
 1095 21 1095 21 1065 119 c 1,21,22
 848 18 848 18 774 -9 c 0,23,24
 606 -70 606 -70 484.5 -70 c 128,-1,25
 363 -70 363 -70 297.5 -18.5 c 128,-1,26
 232 33 232 33 232 132.5 c 128,-1,27
 232 232 232 232 304 289 c 128,-1,28
 376 346 376 346 479 346 c 2,29,-1
 969 346 l 2,30,31
 1216 346 1216 346 1319 388 c 0,32,33
 1488 456 1488 456 1488 660 c 0,34,35
 1488 789 1488 789 1415 869.5 c 128,-1,36
 1342 950 1342 950 1221.5 948.5 c 128,-1,37
 1101 947 1101 947 1033 873 c 128,-1,38
 965 799 965 799 965 687 c 2,39,-1
 965 568 l 2,40,41
 965 585 965 585 975 416 c 1,42,43
 950 423 950 423 913.5 423 c 128,-1,44
 877 423 877 423 861 416 c 1,45,46
 890 711 890 711 852 795 c 0,47,48
 779 952 779 952 571 952 c 0,49,50
 441 952 441 952 357 869 c 128,-1,51
 273 786 273 786 276 658 c 1,52,-1
 276 637 l 1,53,54
 302 798 302 798 463 798 c 0,55,56
 547 798 547 798 602 740 c 128,-1,57
 657 682 657 682 657 591 c 128,-1,58
 657 500 657 500 596.5 441 c 128,-1,59
 536 382 536 382 428.5 383 c 128,-1,60
 321 384 321 384 257.5 462 c 128,-1,61
 194 540 194 540 197 655 c 1,62,63
 197 816 197 816 309 908.5 c 128,-1,64
 421 1001 421 1001 585 1001 c 0,65,66
 815 1001 815 1001 918 854 c 1,67,68
 1035 1002 1035 1002 1227 1002 c 0,69,70
 1376 1002 1376 1002 1489.5 907.5 c 128,-1,71
 1603 813 1603 813 1603 666 c 0,0,1
1517 135 m 0,72,73
 1517 257 1517 257 1396 257 c 0,74,75
 1298 257 1298 257 1151 157 c 1,76,77
 1189 2 1189 2 1353 2 c 128,-1,78
 1517 2 1517 2 1517 135 c 0,72,73
430 424 m 1,79,80
 556 424 556 424 556 586.5 c 128,-1,81
 556 749 556 749 428 749 c 1,82,83
 307 741 307 741 307 584 c 128,-1,84
 307 427 307 427 430 424 c 1,79,80
EndSplineSet
EndChar

StartChar: uni0D1D
Encoding: 3357 3357 70
Width: 3081
GlyphClass: 2
Flags: W
LayerCount: 2
Fore
SplineSet
1768 620 m 1,0,-1
 1748 336 l 1,1,2
 1748 33 1748 33 1985 33 c 0,3,4
 2115 33 2115 33 2183 141 c 1,5,6
 2241 231 2241 231 2241 369 c 2,7,-1
 2241 643 l 1,8,-1
 2233 979 l 1,9,10
 2264 970 2264 970 2295.5 970 c 128,-1,11
 2327 970 2327 970 2349 979 c 1,12,13
 2337 822 2337 822 2337 643 c 2,14,-1
 2337 369 l 2,15,16
 2337 220 2337 220 2410.5 125 c 128,-1,17
 2484 30 2484 30 2636.5 30 c 128,-1,18
 2789 30 2789 30 2875.5 159 c 128,-1,19
 2962 288 2962 288 2962 457 c 0,20,21
 2962 823 2962 823 2724 926 c 1,22,23
 2749 949 2749 949 2759 999 c 1,24,25
 2913 935 2913 935 2997 789 c 128,-1,26
 3081 643 3081 643 3081 451.5 c 128,-1,27
 3081 260 3081 260 2956 120 c 128,-1,28
 2831 -20 2831 -20 2620.5 -20 c 128,-1,29
 2410 -20 2410 -20 2286 131 c 1,30,31
 2183 -20 2183 -20 1972 -20 c 0,32,33
 1858 -20 1858 -20 1770 46 c 0,34,35
 1637 147 1637 147 1637 354 c 1,36,-1
 1655 629 l 1,37,38
 1655 780 1655 780 1569 864 c 128,-1,39
 1483 948 1483 948 1348 948 c 128,-1,40
 1213 948 1213 948 1132 899 c 1,41,42
 1400 777 1400 777 1400 458 c 0,43,44
 1400 271 1400 271 1315 137 c 0,45,46
 1215 -20 1215 -20 1039.5 -20 c 128,-1,47
 864 -20 864 -20 768.5 120.5 c 128,-1,48
 673 261 673 261 673 429 c 128,-1,49
 673 597 673 597 743 718 c 128,-1,50
 813 839 813 839 947 901 c 1,51,52
 868 951 868 951 742 951 c 0,53,54
 548 951 548 951 429.5 812 c 128,-1,55
 311 673 311 673 311 477 c 0,56,57
 311 185 311 185 519 25 c 1,58,59
 482 7 482 7 470 -33 c 1,60,61
 197 148 197 148 197 470 c 0,62,63
 197 710 197 710 344.5 855 c 128,-1,64
 492 1000 492 1000 733 1000 c 0,65,66
 910 1000 910 1000 1046 936 c 1,67,68
 1166 1001 1166 1001 1327 1001 c 0,69,70
 1768 1001 1768 1001 1768 620 c 1,0,-1
1285 449 m 0,71,72
 1285 766 1285 766 1110 841 c 0,73,74
 1070 858 1070 858 1030 858 c 128,-1,75
 990 858 990 858 952 830 c 1,76,77
 788 735 788 735 788 446 c 0,78,79
 788 287 788 287 838 177 c 0,80,81
 904 29 904 29 1040.5 29 c 128,-1,82
 1177 29 1177 29 1240 181 c 0,83,84
 1285 292 1285 292 1285 449 c 0,71,72
EndSplineSet
EndChar

StartChar: uni0D1E
Encoding: 3358 3358 71
Width: 2659
GlyphClass: 2
Flags: W
LayerCount: 2
Fore
SplineSet
1157 854 m 1,0,1
 1300 999 1300 999 1556 999 c 0,2,3
 1712 999 1712 999 1821 946 c 1,4,5
 1939 1006 1939 1006 2105 1006 c 0,6,7
 2307 1006 2307 1006 2447 911 c 0,8,9
 2549 842 2549 842 2604 730 c 128,-1,10
 2659 618 2659 618 2659 480 c 0,11,12
 2659 158 2659 158 2386 -29 c 1,13,14
 2375 21 2375 21 2337 29 c 1,15,16
 2545 189 2545 189 2545 481 c 0,17,18
 2545 636 2545 636 2469.5 761.5 c 128,-1,19
 2394 887 2394 887 2251 935 c 1,20,21
 2186 954 2186 954 2113 954 c 0,22,23
 1980 954 1980 954 1907 905 c 1,24,25
 2013 857 2013 857 2092.5 746.5 c 128,-1,26
 2172 636 2172 636 2175 465 c 0,27,28
 2178 241 2178 241 2073.5 108.5 c 128,-1,29
 1969 -24 1969 -24 1802.5 -20 c 128,-1,30
 1636 -16 1636 -16 1542 118.5 c 128,-1,31
 1448 253 1448 253 1448 442 c 1,32,33
 1446 581 1446 581 1505 697 c 1,34,35
 1576 840 1576 840 1722 907 c 1,36,37
 1649 951 1649 951 1564.5 951 c 128,-1,38
 1480 951 1480 951 1415 929 c 0,39,40
 1201 858 1201 858 1195 689 c 1,41,42
 1196 650 1196 650 1196 610 c 2,43,-1
 1196 328 l 1,44,-1
 1206 0 l 1,45,46
 1137 19 1137 19 1089 0 c 1,47,48
 1100 130 1100 130 1100 328 c 2,49,-1
 1100 610 l 2,50,51
 1100 738 1100 738 1079 778 c 1,52,53
 1012 869 1012 869 908 907.5 c 128,-1,54
 804 946 804 946 715 944 c 0,55,56
 445 938 445 938 344 714 c 0,57,58
 287 586 287 586 295 436 c 1,59,60
 322 518 322 518 397 571.5 c 128,-1,61
 472 625 472 625 588.5 626 c 128,-1,62
 705 627 705 627 795 533.5 c 128,-1,63
 885 440 885 440 879 306 c 1,64,65
 879 168 879 168 798.5 78.5 c 128,-1,66
 718 -11 718 -11 588 -17 c 0,67,68
 330 -30 330 -30 229 242 c 0,69,70
 187 354 187 354 197 496 c 1,71,72
 206 721 206 721 348 860 c 128,-1,73
 490 999 490 999 728 995.5 c 128,-1,74
 966 992 966 992 1157 854 c 1,0,1
2060 455 m 0,75,76
 2061 596 2061 596 2012 705 c 0,77,78
 1947 851 1947 851 1815 862 c 1,79,80
 1715 849 1715 849 1649 764 c 0,81,82
 1563 652 1563 652 1563 442 c 1,83,84
 1562 284 1562 284 1610 176 c 0,85,86
 1675 29 1675 29 1819 29 c 1,87,88
 2058 35 2058 35 2060 455 c 0,75,76
732 131 m 0,89,90
 778 207 778 207 776.5 314 c 128,-1,91
 775 421 775 421 718.5 498 c 128,-1,92
 662 575 662 575 553 572.5 c 128,-1,93
 444 570 444 570 383 493.5 c 128,-1,94
 322 417 322 417 324 305 c 128,-1,95
 326 193 326 193 388.5 112.5 c 128,-1,96
 451 32 451 32 562 32 c 128,-1,97
 673 32 673 32 732 131 c 0,89,90
EndSplineSet
EndChar

StartChar: uni0D1F
Encoding: 3359 3359 72
Width: 894
GlyphClass: 2
Flags: W
LayerCount: 2
Fore
SplineSet
894 257 m 1,0,1
 894 121 894 121 789 46.5 c 128,-1,2
 684 -28 684 -28 543 -28 c 0,3,4
 310 -28 310 -28 197 171 c 1,5,6
 244 186 244 186 272 223 c 1,7,8
 341 22 341 22 541 22 c 0,9,10
 642 22 642 22 714 77.5 c 128,-1,11
 786 133 786 133 786 232 c 0,12,13
 786 358 786 358 664 411 c 0,14,15
 618 431 618 431 434 462 c 0,16,17
 212 500 212 500 212 724 c 0,18,19
 212 852 212 852 305.5 926 c 128,-1,20
 399 1000 399 1000 522.5 1001 c 128,-1,21
 646 1002 646 1002 738 952.5 c 128,-1,22
 830 903 830 903 873 811 c 1,23,24
 831 805 831 805 805 765 c 1,25,26
 749 945 749 945 546 949 c 1,27,28
 445 952 445 952 379 897 c 128,-1,29
 313 842 313 842 312 744 c 1,30,31
 312 618 312 618 423 582 c 0,32,33
 464 569 464 569 524 561 c 128,-1,34
 584 553 584 553 638 545 c 0,35,36
 758 528 758 528 828.5 447.5 c 128,-1,37
 899 367 899 367 894 257 c 1,0,1
EndSplineSet
EndChar

StartChar: uni0D20
Encoding: 3360 3360 73
Width: 1214
GlyphClass: 2
Flags: W
LayerCount: 2
Fore
SplineSet
1211 484 m 128,-1,1
 1208 248 1208 248 1056.5 117 c 128,-1,2
 905 -14 905 -14 702.5 -14 c 128,-1,3
 500 -14 500 -14 347 121.5 c 128,-1,4
 194 257 194 257 197 494 c 128,-1,5
 200 731 200 731 348.5 863.5 c 128,-1,6
 497 996 497 996 707 996.5 c 128,-1,7
 917 997 917 997 1065.5 858.5 c 128,-1,0
 1214 720 1214 720 1211 484 c 128,-1,1
402 804 m 0,8,9
 310 678 310 678 310.5 485.5 c 128,-1,10
 311 293 311 293 413 164.5 c 128,-1,11
 515 36 515 36 701 35.5 c 128,-1,12
 887 35 887 35 992.5 159.5 c 128,-1,13
 1098 284 1098 284 1097.5 487 c 128,-1,14
 1097 690 1097 690 997 819 c 128,-1,15
 897 948 897 948 702.5 949 c 128,-1,16
 508 950 508 950 402 804 c 0,8,9
EndSplineSet
EndChar

StartChar: uni0D21
Encoding: 3361 3361 74
Width: 2258
GlyphClass: 2
Flags: W
LayerCount: 2
Fore
SplineSet
1936 999 m 1,0,1
 2090 935 2090 935 2174 789 c 128,-1,2
 2258 643 2258 643 2258 451 c 128,-1,3
 2258 259 2258 259 2133 119.5 c 128,-1,4
 2008 -20 2008 -20 1795.5 -20 c 128,-1,5
 1583 -20 1583 -20 1459 131 c 1,6,7
 1355 -20 1355 -20 1149 -20 c 0,8,9
 994 -20 994 -20 903 85.5 c 128,-1,10
 812 191 812 191 814 349 c 0,11,12
 814 407 814 407 829.5 520 c 128,-1,13
 845 633 845 633 845 690 c 0,14,15
 845 807 845 807 781.5 880 c 128,-1,16
 718 953 718 953 602 949 c 1,17,18
 445 936 445 936 367 784 c 0,19,20
 304 661 304 661 312 505 c 1,21,22
 312 357 312 357 368 238 c 0,23,24
 435 95 435 95 562 59 c 1,25,26
 543 42 543 42 531 -18 c 1,27,28
 368 37 368 37 282.5 182.5 c 128,-1,29
 197 328 197 328 197 483.5 c 128,-1,30
 197 639 197 639 237 751 c 128,-1,31
 277 863 277 863 375.5 930.5 c 128,-1,32
 474 998 474 998 618.5 999 c 128,-1,33
 763 1000 763 1000 859 913 c 128,-1,34
 955 826 955 826 955 672 c 0,35,36
 955 617 955 617 940 508 c 128,-1,37
 925 399 925 399 925 344 c 1,38,39
 920 226 920 226 974 133.5 c 128,-1,40
 1028 41 1028 41 1150 33 c 0,41,42
 1230 28 1230 28 1297 73.5 c 128,-1,43
 1364 119 1364 119 1391 189.5 c 128,-1,44
 1418 260 1418 260 1418 369 c 2,45,-1
 1418 643 l 1,46,-1
 1410 979 l 1,47,48
 1441 970 1441 970 1472.5 970 c 128,-1,49
 1504 970 1504 970 1526 979 c 1,50,51
 1514 823 1514 823 1514 643 c 2,52,-1
 1514 369 l 2,53,54
 1514 261 1514 261 1539 201 c 0,55,56
 1608 30 1608 30 1804 30 c 0,57,58
 1966 30 1966 30 2058 168 c 0,59,60
 2139 288 2139 288 2139 457 c 0,61,62
 2139 823 2139 823 1901 926 c 1,63,64
 1925 948 1925 948 1936 999 c 1,0,1
EndSplineSet
EndChar

StartChar: uni0D22
Encoding: 3362 3362 75
Width: 2284
GlyphClass: 2
Flags: W
LayerCount: 2
Fore
SplineSet
2284 477 m 1,0,1
 2275 255 2275 255 2141.5 115 c 128,-1,2
 2008 -25 2008 -25 1776 -19 c 1,3,4
 1575 -9 1575 -9 1459 131 c 1,5,6
 1355 -20 1355 -20 1149 -20 c 0,7,8
 994 -20 994 -20 903 85.5 c 128,-1,9
 812 191 812 191 814 349 c 0,10,11
 814 407 814 407 829.5 520 c 128,-1,12
 845 633 845 633 845 690 c 0,13,14
 845 807 845 807 781.5 880 c 128,-1,15
 718 953 718 953 602 949 c 1,16,17
 445 936 445 936 367 784 c 0,18,19
 304 661 304 661 312 505 c 1,20,21
 312 357 312 357 368 238 c 0,22,23
 435 95 435 95 562 59 c 1,24,25
 543 42 543 42 531 -18 c 1,26,27
 368 37 368 37 282.5 182.5 c 128,-1,28
 197 328 197 328 197 483.5 c 128,-1,29
 197 639 197 639 237 751 c 128,-1,30
 277 863 277 863 375.5 930.5 c 128,-1,31
 474 998 474 998 618.5 999 c 128,-1,32
 763 1000 763 1000 859 913 c 128,-1,33
 955 826 955 826 955 672 c 0,34,35
 955 617 955 617 940 508 c 128,-1,36
 925 399 925 399 925 344 c 1,37,38
 920 226 920 226 974 133.5 c 128,-1,39
 1028 41 1028 41 1150 33 c 0,40,41
 1230 28 1230 28 1297 73.5 c 128,-1,42
 1364 119 1364 119 1391 189.5 c 128,-1,43
 1418 260 1418 260 1418 369 c 2,44,-1
 1418 643 l 1,45,-1
 1410 979 l 1,46,47
 1441 970 1441 970 1472.5 970 c 128,-1,48
 1504 970 1504 970 1526 979 c 1,49,50
 1514 823 1514 823 1514 643 c 2,51,-1
 1514 369 l 2,52,53
 1514 52 1514 52 1788 31 c 1,54,55
 2049 22 2049 22 2142 263 c 0,56,57
 2195 398 2195 398 2186 561 c 1,58,59
 2117 398 2117 398 1932 396 c 1,60,61
 1805 392 1805 392 1718.5 481 c 128,-1,62
 1632 570 1632 570 1638 703 c 1,63,64
 1639 838 1639 838 1723.5 919 c 128,-1,65
 1808 1000 1808 1000 1942 1000 c 0,66,67
 2168 1000 2168 1000 2255 743 c 0,68,69
 2294 630 2294 630 2284 477 c 1,0,1
2155 692 m 1,70,71
 2160 805 2160 805 2102 879 c 128,-1,72
 2044 953 2044 953 1942 950 c 128,-1,73
 1840 947 1840 947 1789.5 870 c 128,-1,74
 1739 793 1739 793 1741 700 c 1,75,76
 1738 469 1738 469 1932 448 c 1,77,78
 2142 448 2142 448 2155 692 c 1,70,71
EndSplineSet
EndChar

StartChar: uni0D23
Encoding: 3363 3363 76
Width: 2551
GlyphClass: 2
Flags: W
LayerCount: 2
Fore
SplineSet
2551 509 m 0,0,1
 2551 354 2551 354 2488 231 c 1,2,3
 2394 63 2394 63 2219 -25 c 1,4,5
 2213 27 2213 27 2188 52 c 1,6,7
 2434 174 2434 174 2434 503 c 1,8,9
 2440 680 2440 680 2356 813 c 128,-1,10
 2272 946 2272 946 2103 950 c 1,11,12
 1900 950 1900 950 1828 778 c 0,13,14
 1804 722 1804 722 1804 615 c 2,15,-1
 1804 328 l 1,16,-1
 1814 0 l 1,17,18
 1783 9 1783 9 1751.5 9 c 128,-1,19
 1720 9 1720 9 1697 0 c 1,20,21
 1708 130 1708 130 1708 321 c 2,22,-1
 1708 610 l 2,23,24
 1708 754 1708 754 1645.5 851 c 128,-1,25
 1583 948 1583 948 1448 948 c 0,26,27
 1367 948 1367 948 1301.5 901.5 c 128,-1,28
 1236 855 1236 855 1209.5 785.5 c 128,-1,29
 1183 716 1183 716 1183 615 c 2,30,-1
 1183 328 l 1,31,-1
 1194 0 l 1,32,33
 1163 9 1163 9 1131 9 c 128,-1,34
 1099 9 1099 9 1077 0 c 1,35,36
 1087 130 1087 130 1087 321 c 2,37,-1
 1087 610 l 2,38,39
 1087 727 1087 727 1057 778 c 0,40,41
 959 943 959 943 747.5 943 c 128,-1,42
 536 943 536 943 413.5 819.5 c 128,-1,43
 291 696 291 696 291 490 c 0,44,45
 291 458 291 458 295 436 c 1,46,47
 324 523 324 523 402 574.5 c 128,-1,48
 480 626 480 626 573 626 c 0,49,50
 702 626 702 626 791 537.5 c 128,-1,51
 880 449 880 449 880 310 c 128,-1,52
 880 171 880 171 796.5 76.5 c 128,-1,53
 713 -18 713 -18 565 -18 c 0,54,55
 376 -18 376 -18 277 134 c 0,56,57
 190 267 190 267 196 469 c 1,58,59
 196 711 196 711 341.5 854 c 128,-1,60
 487 997 487 997 730 997 c 128,-1,61
 973 997 973 997 1137 853 c 1,62,63
 1237 1000 1237 1000 1442.5 1000 c 128,-1,64
 1648 1000 1648 1000 1758 853 c 1,65,66
 1877 1000 1877 1000 2090.5 1000 c 128,-1,67
 2304 1000 2304 1000 2427.5 862.5 c 128,-1,68
 2551 725 2551 725 2551 509 c 0,0,1
776 306 m 128,-1,70
 776 421 776 421 719 497.5 c 128,-1,71
 662 574 662 574 554.5 574 c 128,-1,72
 447 574 447 574 386 497 c 128,-1,73
 325 420 325 420 325 311.5 c 128,-1,74
 325 203 325 203 384.5 117.5 c 128,-1,75
 444 32 444 32 552.5 32 c 128,-1,76
 661 32 661 32 718.5 111.5 c 128,-1,69
 776 191 776 191 776 306 c 128,-1,70
EndSplineSet
EndChar

StartChar: uni0D24
Encoding: 3364 3364 77
Width: 1884
GlyphClass: 2
Flags: W
LayerCount: 2
Fore
SplineSet
1884 470 m 0,0,1
 1884 153 1884 153 1611 -33 c 1,2,3
 1599 15 1599 15 1562 25 c 1,4,5
 1770 185 1770 185 1770 477 c 0,6,7
 1770 674 1770 674 1655 811.5 c 128,-1,8
 1540 949 1540 949 1347 949 c 0,9,10
 1208 949 1208 949 1132 899 c 1,11,12
 1400 777 1400 777 1400 458 c 0,13,14
 1400 271 1400 271 1315 137 c 0,15,16
 1216 -20 1216 -20 1039 -20 c 128,-1,17
 862 -20 862 -20 760 133 c 0,18,19
 670 267 670 267 673 454 c 0,20,21
 678 777 678 777 947 901 c 1,22,23
 869 951 869 951 742 951 c 0,24,25
 548 951 548 951 429.5 812 c 128,-1,26
 311 673 311 673 311 477 c 0,27,28
 311 185 311 185 519 25 c 1,29,30
 481 8 481 8 470 -33 c 1,31,32
 197 148 197 148 197 470 c 0,33,34
 197 710 197 710 344.5 855 c 128,-1,35
 492 1000 492 1000 733 1000 c 0,36,37
 911 1000 911 1000 1046 936 c 1,38,39
 1163 999 1163 999 1345 999 c 0,40,41
 1588 999 1588 999 1736 856 c 128,-1,42
 1884 713 1884 713 1884 470 c 0,0,1
1285 449 m 0,43,44
 1288 764 1288 764 1110 841 c 0,45,46
 1070 858 1070 858 1031 858 c 128,-1,47
 992 858 992 858 952 830 c 1,48,49
 788 739 788 739 788 446 c 0,50,51
 788 288 788 288 837 177 c 1,52,53
 904 29 904 29 1041 29 c 128,-1,54
 1178 29 1178 29 1240 182 c 0,55,56
 1284 291 1284 291 1285 449 c 0,43,44
EndSplineSet
EndChar

StartChar: uni0D25
Encoding: 3365 3365 78
Width: 1587
GlyphClass: 2
Flags: W
LayerCount: 2
Fore
SplineSet
1554 462 m 1,0,-1
 1543 86 l 1,1,2
 1543 37 1543 37 1546 0 c 1,3,-1
 229 0 l 1,4,5
 243 428 243 428 229 971 c 1,6,7
 256 961 256 961 290 961 c 128,-1,8
 324 961 324 961 346 971 c 1,9,10
 325 779 325 779 327.5 529.5 c 128,-1,11
 330 280 330 280 334 49 c 1,12,-1
 844 49 l 1,13,14
 856 307 856 307 856 645 c 0,15,16
 856 804 856 804 951.5 902.5 c 128,-1,17
 1047 1001 1047 1001 1206 1001 c 0,18,19
 1411 1001 1411 1001 1493 835 c 0,20,21
 1554 710 1554 710 1554 462 c 1,0,-1
1444 49 m 1,22,-1
 1444 645 l 2,23,24
 1444 777 1444 777 1387 864.5 c 128,-1,25
 1330 952 1330 952 1205 952 c 128,-1,26
 1080 952 1080 952 1016 863.5 c 128,-1,27
 952 775 952 775 952 645 c 2,28,-1
 952 49 l 1,29,-1
 1444 49 l 1,22,-1
EndSplineSet
EndChar

StartChar: uni0D26
Encoding: 3366 3366 79
Width: 1239
GlyphClass: 2
Flags: W
LayerCount: 2
Fore
SplineSet
240 313 m 1,0,-1
 237 478 l 1,1,2
 237 697 237 697 315 809 c 1,3,4
 445 999 445 999 761 999 c 0,5,6
 931 999 931 999 1059 927 c 0,7,8
 1215 839 1215 839 1215 682.5 c 128,-1,9
 1215 526 1215 526 1071 481 c 1,10,11
 1144 455 1144 455 1191.5 388.5 c 128,-1,12
 1239 322 1239 322 1239 244 c 0,13,14
 1239 100 1239 100 1124 30 c 0,15,16
 1030 -27 1030 -27 876.5 -27 c 128,-1,17
 723 -27 723 -27 584 14 c 1,18,19
 614 56 614 56 614 104 c 1,20,21
 652 74 652 74 729.5 50.5 c 128,-1,22
 807 27 807 27 860 27 c 0,23,24
 973 27 973 27 1049.5 76.5 c 128,-1,25
 1126 126 1126 126 1126 231 c 128,-1,26
 1126 336 1126 336 1056.5 385 c 128,-1,27
 987 434 987 434 898 434 c 128,-1,28
 809 434 809 434 760 418 c 1,29,30
 782 477 782 477 760 536 c 1,31,32
 828 525 828 525 899.5 525 c 128,-1,33
 971 525 971 525 1035.5 564.5 c 128,-1,34
 1100 604 1100 604 1100 688 c 0,35,36
 1100 818 1100 818 998 884 c 128,-1,37
 896 950 896 950 760 950 c 0,38,39
 568 950 568 950 452.5 835.5 c 128,-1,40
 337 721 337 721 336 529 c 0,41,42
 335 268 335 268 346 0 c 1,43,44
 315 9 315 9 284 9 c 256,45,46
 253 9 253 9 229 0 c 1,47,48
 240 130 240 130 240 313 c 1,0,-1
EndSplineSet
EndChar

StartChar: uni0D27
Encoding: 3367 3367 80
Width: 1792
GlyphClass: 2
Flags: W
LayerCount: 2
Fore
SplineSet
1792 468 m 0,0,1
 1792 254 1792 254 1664.5 115 c 128,-1,2
 1537 -24 1537 -24 1329 -24 c 128,-1,3
 1121 -24 1121 -24 992 121 c 1,4,5
 874 -25 874 -25 659.5 -25 c 128,-1,6
 445 -25 445 -25 321 113.5 c 128,-1,7
 197 252 197 252 197 471 c 0,8,9
 197 646 197 646 283.5 789 c 128,-1,10
 370 932 370 932 527 998 c 1,11,12
 533 947 533 947 558 921 c 1,13,14
 315 810 315 810 315 472 c 0,15,16
 315 293 315 293 391 171 c 0,17,18
 481 28 481 28 650 25 c 1,19,20
 858 25 858 25 926 195 c 0,21,22
 946 244 946 244 946 363 c 2,23,-1
 946 646 l 1,24,-1
 936 973 l 1,25,26
 967 965 967 965 998.5 965 c 128,-1,27
 1030 965 1030 965 1052 973 c 1,28,29
 1042 843 1042 843 1042 663 c 2,30,-1
 1042 363 l 2,31,32
 1042 243 1042 243 1063 195 c 0,33,34
 1136 25 1136 25 1329 26 c 1,35,36
 1502 30 1502 30 1596 175 c 1,37,38
 1679 301 1679 301 1673 480 c 1,39,40
 1673 619 1673 619 1609 748 c 128,-1,41
 1545 877 1545 877 1426 921 c 1,42,43
 1456 947 1456 947 1462 998 c 1,44,45
 1616 931 1616 931 1704 785 c 128,-1,46
 1792 639 1792 639 1792 468 c 0,0,1
EndSplineSet
EndChar

StartChar: uni0D28
Encoding: 3368 3368 81
Width: 1792
GlyphClass: 2
Flags: W
LayerCount: 2
Fore
SplineSet
1792 502 m 0,0,1
 1792 327 1792 327 1705.5 184.5 c 128,-1,2
 1619 42 1619 42 1462 -25 c 1,3,4
 1456 27 1456 27 1431 52 c 1,5,6
 1674 164 1674 164 1674 502 c 0,7,8
 1674 681 1674 681 1598 802 c 0,9,10
 1508 945 1508 945 1339 949 c 1,11,12
 1131 949 1131 949 1063 778 c 0,13,14
 1043 729 1043 729 1043 610 c 2,15,-1
 1043 328 l 1,16,-1
 1053 0 l 1,17,18
 1022 9 1022 9 990.5 9 c 128,-1,19
 959 9 959 9 937 0 c 1,20,21
 947 130 947 130 947 311 c 2,22,-1
 947 610 l 2,23,24
 947 731 947 731 926 778 c 0,25,26
 853 949 853 949 660 948 c 1,27,28
 487 943 487 943 398.5 807.5 c 128,-1,29
 310 672 310 672 316 494 c 1,30,31
 316 354 316 354 380 225.5 c 128,-1,32
 444 97 444 97 563 52 c 1,33,34
 532 26 532 26 527 -25 c 1,35,36
 373 42 373 42 285 188 c 128,-1,37
 197 334 197 334 197 506 c 0,38,39
 197 719 197 719 324.5 858 c 128,-1,40
 452 997 452 997 660 997 c 128,-1,41
 868 997 868 997 997 853 c 1,42,43
 1115 998 1115 998 1329.5 998 c 128,-1,44
 1544 998 1544 998 1668 860 c 128,-1,45
 1792 722 1792 722 1792 502 c 0,0,1
EndSplineSet
EndChar

StartChar: uni0D2A
Encoding: 3370 3370 82
Width: 1583
GlyphClass: 2
Flags: W
LayerCount: 2
Fore
SplineSet
1542 0 m 1,0,-1
 608 0 l 1,1,2
 608 0 608 0 608 49 c 1,3,4
 747 136 747 136 747 323 c 0,5,6
 747 435 747 435 689 505 c 128,-1,7
 631 575 631 575 521 575 c 1,8,9
 415 568 415 568 360 494.5 c 128,-1,10
 305 421 305 421 304 315.5 c 128,-1,11
 303 210 303 210 347 136.5 c 128,-1,12
 391 63 391 63 459 38 c 1,13,14
 432 19 432 19 437 -19 c 1,15,16
 333 9 333 9 264 97 c 128,-1,17
 195 185 195 185 196 318.5 c 128,-1,18
 197 452 197 452 291.5 538.5 c 128,-1,19
 386 625 386 625 529 625 c 128,-1,20
 672 625 672 625 764.5 542 c 128,-1,21
 857 459 857 459 857.5 300.5 c 128,-1,22
 858 142 858 142 713 49 c 1,23,-1
 1438 49 l 1,24,-1
 1438 645 l 2,25,26
 1438 862 1438 862 1425 971 c 1,27,28
 1449 961 1449 961 1482.5 961 c 128,-1,29
 1516 961 1516 961 1542 971 c 1,30,31
 1534 646 1534 646 1534 645 c 2,32,-1
 1534 358 l 2,33,34
 1534 255 1534 255 1542 0 c 1,0,-1
EndSplineSet
EndChar

StartChar: uni0D2B
Encoding: 3371 3371 83
Width: 1978
GlyphClass: 2
Flags: W
LayerCount: 2
Fore
SplineSet
1937 0 m 1,0,-1
 608 0 l 1,1,2
 608 0 608 0 608 49 c 1,3,4
 747 136 747 136 747 323 c 0,5,6
 747 435 747 435 689 505 c 128,-1,7
 631 575 631 575 521 575 c 1,8,9
 415 568 415 568 360 494.5 c 128,-1,10
 305 421 305 421 304 315.5 c 128,-1,11
 303 210 303 210 347 136.5 c 128,-1,12
 391 63 391 63 459 38 c 1,13,14
 432 19 432 19 437 -19 c 1,15,16
 333 9 333 9 264 97 c 128,-1,17
 195 185 195 185 196 318.5 c 128,-1,18
 197 452 197 452 291.5 538.5 c 128,-1,19
 386 625 386 625 529 625 c 128,-1,20
 672 625 672 625 764.5 542 c 128,-1,21
 857 459 857 459 857.5 300.5 c 128,-1,22
 858 142 858 142 713 49 c 1,23,-1
 1229 49 l 1,24,25
 1245 256 1245 256 1245 367 c 2,26,-1
 1245 645 l 1,27,28
 1241 768 1241 768 1310 867 c 0,29,30
 1403 1001 1403 1001 1586.5 1001 c 128,-1,31
 1770 1001 1770 1001 1858 886 c 0,32,33
 1929 792 1929 792 1929 645 c 2,34,-1
 1929 367 l 2,35,36
 1929 310 1929 310 1937 0 c 1,0,-1
1833 645 m 2,37,38
 1833 802 1833 802 1765.5 878 c 128,-1,39
 1698 954 1698 954 1595 952 c 0,40,41
 1454 950 1454 950 1388 839 c 0,42,43
 1341 759 1341 759 1341 645 c 2,44,-1
 1342 49 l 1,45,-1
 1833 49 l 1,46,-1
 1833 645 l 2,37,38
EndSplineSet
EndChar

StartChar: uni0D2C
Encoding: 3372 3372 84
Width: 2471
GlyphClass: 2
Flags: W
LayerCount: 2
Fore
SplineSet
2430 0 m 1,0,-1
 1587 0 l 1,1,2
 1600 20 1600 20 1587 49 c 1,3,4
 1829 161 1829 161 1829 502 c 1,5,6
 1835 679 1835 679 1760 800 c 0,7,8
 1672 944 1672 944 1495 949 c 1,9,10
 1296 949 1296 949 1223 774 c 0,11,12
 1199 718 1199 718 1199 627 c 2,13,-1
 1199 328 l 1,14,15
 1199 328 1199 328 1209 0 c 1,16,17
 1178 9 1178 9 1146.5 9 c 128,-1,18
 1115 9 1115 9 1092 0 c 1,19,20
 1103 131 1103 131 1103 336 c 2,21,-1
 1103 618 l 2,22,23
 1103 724 1103 724 1078 774 c 1,24,25
 974 954 974 954 727 946 c 1,26,27
 535 942 535 942 413.5 817 c 128,-1,28
 292 692 292 692 292 490 c 0,29,30
 292 458 292 458 296 436 c 1,31,32
 325 523 325 523 403 574.5 c 128,-1,33
 481 626 481 626 574 626 c 0,34,35
 703 626 703 626 792 537.5 c 128,-1,36
 881 449 881 449 881 310 c 128,-1,37
 881 171 881 171 797.5 76.5 c 128,-1,38
 714 -18 714 -18 566 -18 c 0,39,40
 377 -18 377 -18 278 134 c 0,41,42
 191 267 191 267 197 469 c 1,43,44
 197 710 197 710 342.5 853 c 128,-1,45
 488 996 488 996 744.5 996 c 128,-1,46
 1001 996 1001 996 1153 848 c 1,47,48
 1274 998 1274 998 1487 998 c 128,-1,49
 1700 998 1700 998 1826 859 c 128,-1,50
 1952 720 1952 720 1948 502 c 1,51,52
 1948 210 1948 210 1721 49 c 1,53,-1
 2325 49 l 1,54,-1
 2325 645 l 2,55,56
 2325 862 2325 862 2313 971 c 1,57,58
 2335 961 2335 961 2369 961 c 128,-1,59
 2403 961 2403 961 2430 971 c 1,60,-1
 2422 645 l 1,61,-1
 2422 355 l 2,62,63
 2422 255 2422 255 2430 0 c 1,0,-1
554 32 m 256,64,65
 663 32 663 32 720 111.5 c 128,-1,66
 777 191 777 191 777 306 c 128,-1,67
 777 421 777 421 720 497.5 c 128,-1,68
 663 574 663 574 555.5 574 c 128,-1,69
 448 574 448 574 387.5 497 c 128,-1,70
 327 420 327 420 327 311.5 c 128,-1,71
 327 203 327 203 386 117.5 c 128,-1,72
 445 32 445 32 554 32 c 256,64,65
EndSplineSet
EndChar

StartChar: uni0D2D
Encoding: 3373 3373 85
Width: 1243
GlyphClass: 2
Flags: W
LayerCount: 2
Fore
SplineSet
229 0 m 1,0,1
 242 166 242 166 240.5 331 c 128,-1,2
 239 496 239 496 239 516 c 0,3,4
 239 700 239 700 315 809 c 0,5,6
 446 999 446 999 759 999 c 1,7,8
 927 1003 927 1003 1061 934 c 0,9,10
 1224 851 1224 851 1218 700 c 1,11,12
 1217 627 1217 627 1167.5 591.5 c 128,-1,13
 1118 556 1118 556 1046 560 c 1,14,15
 1008 560 1008 560 937.5 573.5 c 128,-1,16
 867 587 867 587 833 587 c 0,17,18
 712 587 712 587 708 483 c 1,19,20
 715 392 715 392 810 392 c 0,21,22
 843 392 843 392 917.5 414 c 128,-1,23
 992 436 992 436 1037 433 c 1,24,25
 1124 433 1124 433 1183.5 378.5 c 128,-1,26
 1243 324 1243 324 1243 238 c 0,27,28
 1243 -27 1243 -27 856 -27 c 0,29,30
 724 -27 724 -27 584 14 c 1,31,32
 616 59 616 59 616 104 c 1,33,34
 653 71 653 71 731.5 49 c 128,-1,35
 810 27 810 27 893 27 c 128,-1,36
 976 27 976 27 1053.5 71.5 c 128,-1,37
 1131 116 1131 116 1131 216 c 0,38,39
 1131 282 1131 282 1090.5 326.5 c 128,-1,40
 1050 371 1050 371 985 371 c 0,41,42
 953 371 953 371 886.5 347.5 c 128,-1,43
 820 324 820 324 772 324 c 1,44,45
 602 330 602 330 602 490 c 0,46,47
 602 568 602 568 656.5 608 c 128,-1,48
 711 648 711 648 770.5 648 c 128,-1,49
 830 648 830 648 894.5 632.5 c 128,-1,50
 959 617 959 617 998.5 615 c 128,-1,51
 1038 613 1038 613 1072 642.5 c 128,-1,52
 1106 672 1106 672 1106 726 c 0,53,54
 1106 837 1106 837 989 900 c 0,55,56
 894 952 894 952 773 952 c 0,57,58
 573 952 573 952 455 841 c 128,-1,59
 337 730 337 730 337 512 c 2,60,-1
 337 273 l 1,61,62
 340 145 340 145 346 0 c 1,63,64
 315 9 315 9 286.5 9 c 128,-1,65
 258 9 258 9 229 0 c 1,0,1
EndSplineSet
EndChar

StartChar: uni0D2E
Encoding: 3374 3374 86
Width: 1233
GlyphClass: 2
Flags: W
LayerCount: 2
Fore
SplineSet
1212 0 m 1,0,-1
 213 0 l 1,1,2
 217 75 217 75 218.5 189 c 128,-1,3
 220 303 220 303 222 526.5 c 128,-1,4
 224 750 224 750 365.5 875.5 c 128,-1,5
 507 1001 507 1001 730 1001 c 128,-1,6
 953 1001 953 1001 1087 869 c 0,7,8
 1159 798 1159 798 1178 720.5 c 128,-1,9
 1197 643 1197 643 1199 542 c 128,-1,10
 1201 441 1201 441 1201.5 343 c 128,-1,11
 1202 245 1202 245 1212 0 c 1,0,-1
1106 49 m 1,12,13
 1108 283 1108 283 1105.5 494 c 128,-1,14
 1103 705 1103 705 1044.5 788.5 c 128,-1,15
 986 872 986 872 900 912 c 128,-1,16
 814 952 814 952 723 952 c 0,17,18
 563 952 563 952 452 859.5 c 128,-1,19
 341 767 341 767 311 610 c 1,20,21
 407 778 407 778 592 778 c 0,22,23
 721 778 721 778 801 697 c 128,-1,24
 881 616 881 616 880 486 c 1,25,26
 872 213 872 213 602 49 c 1,27,-1
 1106 49 l 1,12,13
498 49 m 1,28,29
 620 126 620 126 694 247.5 c 128,-1,30
 768 369 768 369 768 484 c 0,31,32
 768 725 768 725 582 729 c 0,33,34
 488 732 488 732 408 656 c 128,-1,35
 328 580 328 580 315 491 c 1,36,37
 312 272 312 272 315 49 c 1,38,-1
 498 49 l 1,28,29
EndSplineSet
EndChar

StartChar: uni0D2F
Encoding: 3375 3375 87
Width: 1834
GlyphClass: 2
Flags: W
LayerCount: 2
Fore
SplineSet
1834 512 m 0,0,1
 1834 275 1834 275 1702 127 c 128,-1,2
 1570 -21 1570 -21 1330 -28 c 1,3,4
 1180 -28 1180 -28 1050 29 c 1,5,6
 939 -26 939 -26 772 -26 c 1,7,8
 516 -30 516 -30 356.5 123.5 c 128,-1,9
 197 277 197 277 197 530 c 1,10,11
 195 717 195 717 279 849 c 0,12,13
 377 1002 377 1002 553 1002 c 0,14,15
 642 1002 642 1002 704 955 c 128,-1,16
 766 908 766 908 786 825 c 1,17,18
 861 1003 861 1003 1068 1001 c 1,19,20
 1232 1001 1232 1001 1323.5 870 c 128,-1,21
 1415 739 1415 739 1413.5 570.5 c 128,-1,22
 1412 402 1412 402 1335.5 268 c 128,-1,23
 1259 134 1259 134 1120 59 c 1,24,25
 1197 9 1197 9 1332 22 c 0,26,27
 1526 40 1526 40 1623 177 c 128,-1,28
 1720 314 1720 314 1720 517 c 0,29,30
 1720 638 1720 638 1666 753 c 128,-1,31
 1612 868 1612 868 1521 932 c 1,32,33
 1561 958 1561 958 1566 1001 c 1,34,35
 1833 818 1833 818 1834 512 c 0,0,1
1047 88 m 1,36,37
 1174 155 1174 155 1236 292 c 128,-1,38
 1298 429 1298 429 1298 580.5 c 128,-1,39
 1298 732 1298 732 1247 831 c 0,40,41
 1183 955 1183 955 1056 953 c 1,42,43
 956 950 956 950 896 870 c 1,44,45
 803 749 803 749 803 544 c 0,46,47
 803 215 803 215 1047 88 c 1,36,37
978 61 m 1,48,49
 683 193 683 193 692 542 c 0,50,51
 694 583 694 583 702.5 652 c 128,-1,52
 711 721 711 721 711 751 c 1,53,54
 718 952 718 952 556 953 c 1,55,56
 428 948 428 948 361 804 c 1,57,58
 307 691 307 691 309 551 c 1,59,60
 301 325 301 325 422.5 174.5 c 128,-1,61
 544 24 544 24 770 23 c 0,62,63
 886 23 886 23 978 61 c 1,48,49
EndSplineSet
EndChar

StartChar: uni0D30
Encoding: 3376 3376 88
Width: 1281
GlyphClass: 2
Flags: W
LayerCount: 2
Fore
SplineSet
1256 648 m 0,0,1
 1281 560 1281 560 1281 404.5 c 128,-1,2
 1281 249 1281 249 1187.5 115.5 c 128,-1,3
 1094 -18 1094 -18 932.5 -18 c 128,-1,4
 771 -18 771 -18 680.5 87.5 c 128,-1,5
 590 193 590 193 590 346 c 128,-1,6
 590 499 590 499 680.5 601 c 128,-1,7
 771 703 771 703 928 703 c 128,-1,8
 1085 703 1085 703 1152 604 c 1,9,10
 1126 770 1126 770 1012 857.5 c 128,-1,11
 898 945 898 945 743 942 c 0,12,13
 540 938 540 938 425.5 796.5 c 128,-1,14
 311 655 311 655 311 449 c 0,15,16
 311 189 311 189 468 40 c 1,17,18
 429 18 429 18 425 -25 c 1,19,20
 197 168 197 168 197 463 c 0,21,22
 197 695 197 695 344.5 845 c 128,-1,23
 492 995 492 995 724 995 c 1,24,25
 919 999 919 999 1061.5 912 c 128,-1,26
 1204 825 1204 825 1256 648 c 0,0,1
1153 356 m 0,27,28
 1153 648 1153 648 933 645 c 1,29,30
 821 642 821 642 766.5 556 c 128,-1,31
 712 470 712 470 709.5 344.5 c 128,-1,32
 707 219 707 219 761 125.5 c 128,-1,33
 815 32 815 32 935 31 c 1,34,35
 1052 38 1052 38 1109 148 c 0,36,37
 1153 233 1153 233 1153 356 c 0,27,28
EndSplineSet
EndChar

StartChar: uni0D31
Encoding: 3377 3377 89
Width: 1204
GlyphClass: 2
Flags: W
LayerCount: 2
Fore
SplineSet
188 489 m 0,0,1
 191 731 191 731 340 863.5 c 128,-1,2
 489 996 489 996 699 996.5 c 128,-1,3
 909 997 909 997 1057.5 858.5 c 128,-1,4
 1206 720 1206 720 1203.5 508.5 c 128,-1,5
 1201 297 1201 297 1100.5 163 c 128,-1,6
 1000 29 1000 29 862 -20 c 1,7,8
 863 11 863 11 840 39 c 1,9,10
 957 83 957 83 1023.5 205 c 128,-1,11
 1090 327 1090 327 1089.5 508.5 c 128,-1,12
 1089 690 1089 690 988.5 819 c 128,-1,13
 888 948 888 948 694 949 c 128,-1,14
 500 950 500 950 394 804 c 1,15,16
 301 678 301 678 302 505 c 128,-1,17
 303 332 303 332 368.5 208 c 128,-1,18
 434 84 434 84 557 39 c 1,19,20
 539 15 539 15 535 -20 c 1,21,22
 386 43 386 43 286 177 c 128,-1,23
 186 311 186 311 188 489 c 0,0,1
EndSplineSet
EndChar

StartChar: uni0D32
Encoding: 3378 3378 90
Width: 1470
GlyphClass: 2
Flags: W
LayerCount: 2
Fore
SplineSet
1429 0 m 1,0,-1
 229 0 l 1,1,2
 237 89 237 89 235 264.5 c 128,-1,3
 233 440 233 440 234 471 c 0,4,5
 240 804 240 804 297 879 c 0,6,7
 391 1001 391 1001 582.5 1001 c 128,-1,8
 774 1001 774 1001 867 879 c 0,9,10
 921 808 921 808 924 654 c 128,-1,11
 927 500 927 500 928 367 c 1,12,-1
 336 367 l 1,13,-1
 342 49 l 1,14,-1
 1325 49 l 1,15,16
 1325 93 1325 93 1327 318 c 0,17,18
 1331 747 1331 747 1313 971 c 1,19,20
 1335 962 1335 962 1367 962 c 128,-1,21
 1399 962 1399 962 1429 971 c 1,22,23
 1418 514 1418 514 1429 0 c 1,0,-1
332 597 m 1,24,-1
 336 416 l 1,25,-1
 828 416 l 1,26,-1
 828 562 l 2,27,28
 828 744 828 744 798 817 c 0,29,30
 746 941 746 941 590 941 c 128,-1,31
 434 941 434 941 375 834 c 0,32,33
 332 756 332 756 332 597 c 1,24,-1
EndSplineSet
EndChar

StartChar: uni0D33
Encoding: 3379 3379 91
Width: 1227
GlyphClass: 2
Flags: W
LayerCount: 2
Fore
SplineSet
1227 259 m 0,0,1
 1227 104 1227 104 1094 37 c 0,2,3
 1021 0 1021 0 794 0 c 2,4,-1
 532 0 l 2,5,6
 359 0 359 0 359 -84 c 0,7,8
 359 -147 359 -147 424 -166 c 0,9,10
 457 -175 457 -175 541 -175 c 2,11,-1
 816 -175 l 2,12,13
 1052 -175 1052 -175 1226 -158 c 1,14,15
 1214 -178 1214 -178 1214 -208.5 c 128,-1,16
 1214 -239 1214 -239 1226 -260 c 1,17,18
 855 -253 855 -253 481 -253 c 0,19,20
 375 -253 375 -253 324 -231 c 0,21,22
 246 -197 246 -197 246 -105 c 0,23,24
 246 51 246 51 492 51 c 2,25,-1
 734 51 l 2,26,27
 902 51 902 51 980 78 c 0,28,29
 1113 124 1113 124 1113 258 c 0,30,31
 1113 343 1113 343 1066 396 c 128,-1,32
 1019 449 1019 449 936 449 c 0,33,34
 915 449 915 449 897 444 c 1,35,36
 905 464 905 464 905 491.5 c 128,-1,37
 905 519 905 519 898 540 c 1,38,39
 918 537 918 537 937 537 c 0,40,41
 1002 537 1002 537 1044 578.5 c 128,-1,42
 1086 620 1086 620 1086 686 c 0,43,44
 1086 815 1086 815 974 883.5 c 128,-1,45
 862 952 862 952 724 952 c 0,46,47
 527 952 527 952 404 833 c 128,-1,48
 281 714 281 714 281 518 c 2,49,-1
 281 491 l 1,50,51
 282 471 282 471 282 464 c 1,52,53
 297 561 297 561 360 620 c 128,-1,54
 423 679 423 679 527.5 679 c 128,-1,55
 632 679 632 679 706 605 c 128,-1,56
 780 531 780 531 780 409.5 c 128,-1,57
 780 288 780 288 707.5 216 c 128,-1,58
 635 144 635 144 495.5 144 c 128,-1,59
 356 144 356 144 276.5 253.5 c 128,-1,60
 197 363 197 363 197 518 c 0,61,62
 197 754 197 754 349.5 878.5 c 128,-1,63
 502 1003 502 1003 742 1003 c 0,64,65
 907 1003 907 1003 1040 930 c 0,66,67
 1201 841 1201 841 1201 683 c 128,-1,68
 1201 525 1201 525 1057 494 c 1,69,70
 1132 467 1132 467 1179.5 402.5 c 128,-1,71
 1227 338 1227 338 1227 259 c 0,0,1
505 192 m 0,72,73
 669 192 669 192 669 411 c 128,-1,74
 669 630 669 630 505 630 c 0,75,76
 420 630 420 630 380.5 566 c 128,-1,77
 341 502 341 502 341 411.5 c 128,-1,78
 341 321 341 321 381 256.5 c 128,-1,79
 421 192 421 192 505 192 c 0,72,73
EndSplineSet
EndChar

StartChar: uni0D34
Encoding: 3380 3380 92
Width: 1373
GlyphClass: 2
Flags: W
LayerCount: 2
Fore
SplineSet
477 924 m 1,0,1
 315 829 315 829 307 633 c 1,2,3
 312 563 312 563 338 498 c 1,4,5
 375 434 375 434 432 387 c 1,6,7
 499 349 499 349 574 328 c 1,8,9
 792 281 792 281 962 307 c 1,10,11
 897 333 897 333 836 368 c 1,12,13
 783 406 783 406 737 453 c 1,14,15
 700 501 700 501 676 556 c 1,16,17
 659 611 659 611 655 669 c 1,18,19
 658 730 658 730 677 788 c 1,20,21
 704 843 704 843 746 889 c 1,22,23
 802 935 802 935 868 966 c 1,24,25
 934 987 934 987 1003 991 c 1,26,27
 1122 983 1122 983 1226 925 c 1,28,29
 1267 895 1267 895 1301 858 c 1,30,31
 1353 788 1353 788 1363 730 c 0,32,33
 1381 626 1381 626 1354 534 c 1,34,35
 1334 485 1334 485 1303 440 c 1,36,37
 1264 395 1264 395 1218 357 c 1,38,39
 1165 321 1165 321 1106 295 c 1,40,41
 1151 276 1151 276 1183 240 c 1,42,43
 1204 204 1204 204 1207 163 c 1,44,45
 1200 121 1200 121 1176 86 c 1,46,47
 1137 50 1137 50 1088 27 c 1,48,49
 1034 6 1034 6 978 -7 c 1,50,51
 792 -36 792 -36 606 18 c 1,52,53
 529 59 529 59 473 127 c 1,54,55
 522 135 522 135 556 171 c 1,56,57
 565 141 565 141 584 114 c 1,58,59
 669 30 669 30 831 26 c 1,60,61
 990 30 990 30 1070 112 c 1,62,63
 1087 138 1087 138 1093 169 c 1,64,65
 1093 200 1093 200 1080 228 c 1,66,67
 1061 254 1061 254 1033 269 c 1,68,69
 917 246 917 246 781 247 c 1,70,71
 667 253 667 253 555 269 c 1,72,73
 461 289 461 289 374 329 c 1,74,75
 295 385 295 385 240 465 c 1,76,77
 207 538 207 538 197 618 c 1,78,79
 206 727 206 727 258 824 c 1,80,81
 335 915 335 915 441 969 c 1,82,83
 447 937 447 937 477 924 c 1,0,1
1148 388 m 1,84,85
 1286 529 1286 529 1255 740 c 1,86,87
 1246 778 1246 778 1230 813 c 1,88,89
 1195 870 1195 870 1141 910 c 1,90,91
 1080 935 1080 935 1014 938 c 1,92,93
 959 933 959 933 907 912 c 1,94,95
 862 885 862 885 826 845 c 1,96,97
 802 810 802 810 786 771 c 1,98,99
 775 729 775 729 773 686 c 1,100,101
 786 570 786 570 844 469 c 1,102,103
 932 375 932 375 1053 334 c 1,104,105
 1104 354 1104 354 1148 388 c 1,84,85
EndSplineSet
EndChar

StartChar: uni0D35
Encoding: 3381 3381 93
Width: 1634
GlyphClass: 2
Flags: W
LayerCount: 2
Fore
SplineSet
1594 0 m 1,0,-1
 840 0 l 1,1,2
 845 24 845 24 840 49 c 1,3,4
 1090 194 1090 194 1090 496 c 0,5,6
 1090 689 1090 689 986.5 817 c 128,-1,7
 883 945 883 945 697 944 c 128,-1,8
 511 943 511 943 407 815.5 c 128,-1,9
 303 688 303 688 303 506.5 c 128,-1,10
 303 325 303 325 386.5 201.5 c 128,-1,11
 470 78 470 78 573 45 c 1,12,13
 547 21 547 21 541 -23 c 1,14,15
 197 132 197 132 197 504 c 0,16,17
 197 730 197 730 338 862 c 128,-1,18
 479 994 479 994 703 994 c 128,-1,19
 927 994 927 994 1065.5 860.5 c 128,-1,20
 1204 727 1204 727 1204 508 c 0,21,22
 1204 209 1204 209 950 49 c 1,23,-1
 1491 49 l 1,24,-1
 1491 645 l 2,25,26
 1491 814 1491 814 1479 971 c 1,27,28
 1502 962 1502 962 1535 962 c 128,-1,29
 1568 962 1568 962 1594 971 c 1,30,31
 1585 744 1585 744 1585 492 c 128,-1,32
 1585 240 1585 240 1594 0 c 1,0,-1
EndSplineSet
EndChar

StartChar: uni0D36
Encoding: 3382 3382 94
Width: 1791
GlyphClass: 2
Flags: W
LayerCount: 2
Fore
SplineSet
882 322 m 1,0,-1
 860 586 l 1,1,2
 860 786 860 786 979 893 c 128,-1,3
 1098 1000 1098 1000 1319 1000 c 128,-1,4
 1540 1000 1540 1000 1664 856.5 c 128,-1,5
 1788 713 1788 713 1790 473 c 1,6,7
 1799 267 1799 267 1718 133 c 1,8,9
 1621 -25 1621 -25 1425 -17 c 1,10,11
 1277 -13 1277 -13 1191 88 c 128,-1,12
 1105 189 1105 189 1105 344 c 128,-1,13
 1105 499 1105 499 1194.5 600.5 c 128,-1,14
 1284 702 1284 702 1445 702 c 1,15,16
 1644 699 1644 699 1699 537 c 1,17,18
 1683 709 1683 709 1579 828.5 c 128,-1,19
 1475 948 1475 948 1315.5 948 c 128,-1,20
 1156 948 1156 948 1066 854 c 128,-1,21
 976 760 976 760 978 608 c 1,22,-1
 996 330 l 1,23,24
 996 176 996 176 894.5 75.5 c 128,-1,25
 793 -25 793 -25 640 -25 c 1,26,27
 432 -31 432 -31 311 112.5 c 128,-1,28
 190 256 190 256 197 463 c 1,29,30
 197 736 197 736 386 905 c 0,31,32
 465 975 465 975 549 1004 c 1,33,34
 540 963 540 963 576 926 c 1,35,36
 441 864 441 864 376.5 737.5 c 128,-1,37
 312 611 312 611 312 453 c 128,-1,38
 312 295 312 295 387 172 c 1,39,40
 475 25 475 25 630 25 c 0,41,42
 754 25 754 25 818 109.5 c 128,-1,43
 882 194 882 194 882 322 c 1,0,-1
1262 146 m 0,44,45
 1318 38 1318 38 1438.5 34 c 128,-1,46
 1559 30 1559 30 1612 120 c 128,-1,47
 1665 210 1665 210 1667 337 c 128,-1,48
 1669 464 1669 464 1616.5 554.5 c 128,-1,49
 1564 645 1564 645 1449 645 c 128,-1,50
 1334 645 1334 645 1279 557.5 c 128,-1,51
 1224 470 1224 470 1224 353 c 1,52,53
 1219 228 1219 228 1262 146 c 0,44,45
EndSplineSet
EndChar

StartChar: uni0D37
Encoding: 3383 3383 95
Width: 1835
GlyphClass: 2
Flags: W
LayerCount: 2
Fore
SplineSet
1794 0 m 1,0,-1
 608 0 l 1,1,2
 608 0 608 0 608 49 c 1,3,4
 747 136 747 136 747 323 c 0,5,6
 747 435 747 435 689 505 c 128,-1,7
 631 575 631 575 521 575 c 1,8,9
 415 568 415 568 360 494.5 c 128,-1,10
 305 421 305 421 304 315.5 c 128,-1,11
 303 210 303 210 347 136.5 c 128,-1,12
 391 63 391 63 459 38 c 1,13,14
 432 19 432 19 437 -19 c 1,15,16
 333 9 333 9 264 97 c 128,-1,17
 195 185 195 185 196 318.5 c 128,-1,18
 197 452 197 452 291.5 538.5 c 128,-1,19
 386 625 386 625 529 625 c 128,-1,20
 672 625 672 625 764.5 542 c 128,-1,21
 857 459 857 459 857.5 300.5 c 128,-1,22
 858 142 858 142 713 49 c 1,23,-1
 1237 49 l 1,24,25
 1249 235 1249 235 1245 471 c 1,26,27
 1185 452 1185 452 1122 452 c 0,28,29
 1002 452 1002 452 917 527 c 128,-1,30
 832 602 832 602 830 723.5 c 128,-1,31
 828 845 828 845 906 923 c 128,-1,32
 984 1001 984 1001 1109 1000 c 0,33,34
 1342 998 1342 998 1345 758 c 1,35,-1
 1345 561 l 1,36,37
 1431 614 1431 614 1525.5 736.5 c 128,-1,38
 1620 859 1620 859 1677 971 c 1,39,40
 1698 961 1698 961 1733 961 c 128,-1,41
 1768 961 1768 961 1794 971 c 1,42,-1
 1786 645 l 1,43,-1
 1786 358 l 2,44,45
 1786 255 1786 255 1794 0 c 1,0,-1
1690 49 m 1,46,-1
 1689 643 l 2,47,48
 1688 753 1688 753 1684 848 c 1,49,50
 1523 597 1523 597 1343 496 c 1,51,-1
 1343 311 l 1,52,53
 1344 154 1344 154 1352 49 c 1,54,-1
 1690 49 l 1,46,-1
1245 533 m 1,55,-1
 1248 758 l 2,56,57
 1248 829 1248 829 1241.5 862.5 c 128,-1,58
 1235 896 1235 896 1196 923 c 128,-1,59
 1157 950 1157 950 1110 949 c 1,60,61
 1025 945 1025 945 983.5 883.5 c 128,-1,62
 942 822 942 822 943.5 732.5 c 128,-1,63
 945 643 945 643 1002.5 579.5 c 128,-1,64
 1060 516 1060 516 1151 516 c 0,65,66
 1209 516 1209 516 1245 533 c 1,55,-1
EndSplineSet
EndChar

StartChar: uni0D38
Encoding: 3384 3384 96
Width: 2258
GlyphClass: 2
Flags: W
LayerCount: 2
Fore
SplineSet
1923 997 m 1,0,1
 2087 942 2087 942 2172.5 796.5 c 128,-1,2
 2258 651 2258 651 2258 456 c 128,-1,3
 2258 261 2258 261 2155.5 121 c 128,-1,4
 2053 -19 2053 -19 1847 -20 c 0,5,6
 1691 -21 1691 -21 1595 66 c 128,-1,7
 1499 153 1499 153 1499 307 c 0,8,9
 1499 362 1499 362 1514 471 c 128,-1,10
 1529 580 1529 580 1529 635 c 1,11,12
 1534 753 1534 753 1480 845.5 c 128,-1,13
 1426 938 1426 938 1304 946 c 0,14,15
 1225 951 1225 951 1157.5 905.5 c 128,-1,16
 1090 860 1090 860 1063 789.5 c 128,-1,17
 1036 719 1036 719 1036 610 c 2,18,-1
 1036 336 l 1,19,-1
 1045 0 l 1,20,21
 1014 9 1014 9 982 9 c 128,-1,22
 950 9 950 9 928 0 c 1,23,24
 940 156 940 156 940 336 c 2,25,-1
 940 610 l 2,26,27
 940 718 940 718 916 778 c 0,28,29
 846 949 846 949 650 949 c 0,30,31
 488 949 488 949 396 811 c 0,32,33
 315 691 315 691 315 522 c 0,34,35
 315 156 315 156 553 53 c 1,36,37
 529 31 529 31 518 -20 c 1,38,39
 364 44 364 44 280.5 190 c 128,-1,40
 197 336 197 336 197 528 c 128,-1,41
 197 720 197 720 321.5 859.5 c 128,-1,42
 446 999 446 999 658.5 999 c 128,-1,43
 871 999 871 999 996 848 c 1,44,45
 1099 999 1099 999 1305 999 c 0,46,47
 1461 999 1461 999 1552 893.5 c 128,-1,48
 1643 788 1643 788 1640 630 c 1,49,50
 1640 572 1640 572 1624.5 459 c 128,-1,51
 1609 346 1609 346 1609 289 c 0,52,53
 1609 172 1609 172 1672.5 99 c 128,-1,54
 1736 26 1736 26 1852 29 c 1,55,56
 2008 43 2008 43 2085 195 c 1,57,58
 2147 315 2147 315 2143 470 c 128,-1,59
 2139 625 2139 625 2085 741 c 0,60,61
 2018 885 2018 885 1893 920 c 1,62,63
 1911 937 1911 937 1923 997 c 1,0,1
EndSplineSet
EndChar

StartChar: uni0D39
Encoding: 3385 3385 97
Width: 2136
GlyphClass: 2
Flags: W
LayerCount: 2
Fore
SplineSet
2136 489 m 0,0,1
 2136 322 2136 322 2042.5 178.5 c 128,-1,2
 1949 35 1949 35 1794 -20 c 1,3,4
 1795 13 1795 13 1771 39 c 1,5,6
 1897 87 1897 87 1959 213.5 c 128,-1,7
 2021 340 2021 340 2021 489 c 0,8,9
 2021 688 2021 688 1921 818 c 128,-1,10
 1821 948 1821 948 1628.5 948 c 128,-1,11
 1436 948 1436 948 1335.5 817.5 c 128,-1,12
 1235 687 1235 687 1235 489 c 0,13,14
 1235 348 1235 348 1291.5 225.5 c 128,-1,15
 1348 103 1348 103 1464 49 c 1,16,17
 1458 38 1458 38 1458 24.5 c 128,-1,18
 1458 11 1458 11 1464 0 c 1,19,-1
 608 0 l 1,20,-1
 608 49 l 1,21,22
 747 136 747 136 747 323 c 0,23,24
 747 435 747 435 689 505 c 128,-1,25
 631 575 631 575 521 575 c 1,26,27
 415 568 415 568 360 494.5 c 128,-1,28
 305 421 305 421 304 315.5 c 128,-1,29
 303 210 303 210 347 136.5 c 128,-1,30
 391 63 391 63 459 38 c 1,31,32
 432 19 432 19 437 -19 c 1,33,34
 333 9 333 9 264 97 c 128,-1,35
 195 185 195 185 196 318.5 c 128,-1,36
 197 452 197 452 291.5 538.5 c 128,-1,37
 386 625 386 625 529 625 c 128,-1,38
 672 625 672 625 764.5 542 c 128,-1,39
 857 459 857 459 857.5 300.5 c 128,-1,40
 858 142 858 142 713 49 c 1,41,-1
 1346 49 l 1,42,43
 1120 218 1120 218 1120 489 c 0,44,45
 1120 711 1120 711 1263.5 854 c 128,-1,46
 1407 997 1407 997 1628.5 997 c 128,-1,47
 1850 997 1850 997 1993 854.5 c 128,-1,48
 2136 712 2136 712 2136 489 c 0,0,1
EndSplineSet
EndChar

StartChar: uni0D3E
Encoding: 3390 3390 98
Width: 976
GlyphClass: 2
Flags: W
LayerCount: 2
Fore
SplineSet
885 821 m 0,0,1
 983 677 983 677 978 473.5 c 128,-1,2
 973 270 973 270 858 131 c 128,-1,3
 743 -8 743 -8 548 -8 c 0,4,5
 257 -8 257 -8 168 240 c 1,6,7
 176 238 176 238 200.5 238 c 128,-1,8
 225 238 225 238 258 252 c 1,9,10
 281 151 281 151 362.5 91 c 128,-1,11
 444 31 444 31 549 31 c 1,12,13
 707 34 707 34 791 179 c 0,14,15
 860 299 860 299 862 478.5 c 128,-1,16
 864 658 864 658 801 784 c 0,17,18
 719 946 719 946 542 946 c 0,19,20
 432 946 432 946 352 872 c 128,-1,21
 272 798 272 798 260 688 c 1,22,23
 227 718 227 718 173 721 c 1,24,25
 263 990 263 990 563 990 c 1,26,27
 773 986 773 986 885 821 c 0,0,1
EndSplineSet
EndChar

StartChar: uni0D3F
Encoding: 3391 3391 99
Width: 395
GlyphClass: 2
Flags: W
LayerCount: 2
Fore
SplineSet
354 0 m 1,0,1
 323 12 323 12 300.5 12 c 128,-1,2
 278 12 278 12 240 0 c 1,3,4
 248 119 248 119 248 405 c 2,5,-1
 248 1088 l 2,6,7
 248 1335 248 1335 105 1338 c 1,8,9
 30 1338 30 1338 -9.5 1284.5 c 128,-1,10
 -49 1231 -49 1231 -47 1151 c 1,11,-1
 -43 1053 l 1,12,13
 -69 1063 -69 1063 -102.5 1063 c 128,-1,14
 -136 1063 -136 1063 -158 1052 c 1,15,16
 -157 1185 -157 1185 -117 1262 c 0,17,18
 -48 1393 -48 1393 105 1393 c 0,19,20
 209 1393 209 1393 271.5 1326 c 128,-1,21
 334 1259 334 1259 342 1155 c 1,22,23
 347 1120 347 1120 347 1016 c 2,24,-1
 346 406 l 2,25,26
 346 115 346 115 354 0 c 1,0,1
EndSplineSet
EndChar

StartChar: uni0D40
Encoding: 3392 3392 100
Width: 344
GlyphClass: 2
Flags: W
LayerCount: 2
Fore
SplineSet
303 0 m 1,0,1
 275 8 275 8 245.5 8 c 128,-1,2
 216 8 216 8 188 0 c 1,3,4
 197 119 197 119 197 405 c 2,5,-1
 197 1135 l 2,6,7
 197 1299 197 1299 74 1334 c 1,8,9
 70 1332 70 1332 69 1327 c 1,10,11
 84 1316 84 1316 98 1277 c 128,-1,12
 112 1238 112 1238 112 1204 c 0,13,14
 112 1129 112 1129 66.5 1080 c 128,-1,15
 21 1031 21 1031 -57 1026 c 1,16,17
 -129 1026 -129 1026 -173.5 1073.5 c 128,-1,18
 -218 1121 -218 1121 -218 1206 c 128,-1,19
 -218 1291 -218 1291 -146.5 1341 c 128,-1,20
 -75 1391 -75 1391 25 1391 c 0,21,22
 260 1391 260 1391 291 1155 c 0,23,24
 295 1127 295 1127 295 909 c 2,25,-1
 295 406 l 2,26,27
 295 115 295 115 303 0 c 1,0,1
59 1218 m 0,28,29
 59 1310 59 1310 2 1341 c 1,30,31
 -64 1343 -64 1343 -111 1305.5 c 128,-1,32
 -158 1268 -158 1268 -158 1199 c 1,33,34
 -153 1095 -153 1095 -61 1090 c 1,35,36
 -8 1090 -8 1090 25.5 1127 c 128,-1,37
 59 1164 59 1164 59 1218 c 0,28,29
EndSplineSet
EndChar

StartChar: uni0D41
Encoding: 3393 3393 101
Width: 611
GlyphClass: 2
Flags: W
LayerCount: 2
Fore
SplineSet
537.5 9 m 128,-1,1
 590 -58 590 -58 590 -161 c 128,-1,2
 590 -264 590 -264 515.5 -337 c 128,-1,3
 441 -410 441 -410 327.5 -410 c 128,-1,4
 214 -410 214 -410 140 -338 c 128,-1,5
 66 -266 66 -266 66 -156 c 128,-1,6
 66 -46 66 -46 133.5 23 c 128,-1,7
 201 92 201 92 309 100 c 1,8,9
 442 338 442 338 442 547.5 c 128,-1,10
 442 757 442 757 344 860 c 0,11,12
 306 900 306 900 218 933 c 1,13,14
 254 964 254 964 253 1020 c 1,15,16
 398 982 398 982 479 856.5 c 128,-1,17
 560 731 560 731 557 576 c 1,18,19
 557 386 557 386 395 95 c 1,20,0
 485 76 485 76 537.5 9 c 128,-1,1
328 -365 m 1,21,22
 488 -365 488 -365 488 -154.5 c 128,-1,23
 488 56 488 56 328 56 c 0,24,25
 247 56 247 56 207.5 -3 c 128,-1,26
 168 -62 168 -62 168 -147 c 0,27,28
 168 -359 168 -359 328 -365 c 1,21,22
EndSplineSet
EndChar

StartChar: uni0D42
Encoding: 3394 3394 102
Width: 682
GlyphClass: 2
Flags: W
LayerCount: 2
Fore
SplineSet
666 -126 m 0,0,1
 664 -252 664 -252 575 -331 c 128,-1,2
 486 -410 486 -410 375 -410 c 0,3,4
 140 -410 140 -410 61 -254 c 1,5,6
 102 -244 102 -244 147 -205 c 1,7,8
 192 -360 192 -360 365 -360 c 0,9,10
 451 -360 451 -360 511.5 -293.5 c 128,-1,11
 572 -227 572 -227 572 -147 c 128,-1,12
 572 -67 572 -67 530 -27 c 1,13,-1
 513 -33 l 1,14,15
 515 -40 515 -40 515 -55 c 0,16,17
 515 -103 515 -103 480.5 -145 c 128,-1,18
 446 -187 446 -187 360 -187.5 c 128,-1,19
 274 -188 274 -188 234 -149.5 c 128,-1,20
 194 -111 194 -111 194 -35 c 0,21,22
 194 45 194 45 242 80 c 0,23,24
 297 121 297 121 372 124 c 1,25,26
 503 368 503 368 503 562 c 128,-1,27
 503 756 503 756 405 860 c 0,28,29
 355 914 355 914 280 933 c 1,30,31
 315 964 315 964 315 1020 c 1,32,33
 459 982 459 982 539 856.5 c 128,-1,34
 619 731 619 731 619 576 c 0,35,36
 619 386 619 386 458 119 c 1,37,38
 557 102 557 102 612 33 c 128,-1,39
 667 -36 667 -36 666 -126 c 0,0,1
350 -133 m 0,40,41
 445 -133 445 -133 448 -43 c 0,42,43
 451 72 451 72 362 73 c 0,44,45
 306 74 306 74 286 42 c 0,46,47
 264 7 264 7 268 -37 c 1,48,49
 274 -133 274 -133 350 -133 c 0,40,41
EndSplineSet
EndChar

StartChar: uni0D43
Encoding: 3395 3395 103
Width: 495
GlyphClass: 2
Flags: W
LayerCount: 2
Fore
SplineSet
373 971 m 1,0,1
 252 785 252 785 252 592 c 1,2,3
 249 473 249 473 313 317 c 0,4,5
 329 278 329 278 432.5 118.5 c 128,-1,6
 536 -41 536 -41 536 -153 c 128,-1,7
 536 -265 536 -265 455.5 -336.5 c 128,-1,8
 375 -408 375 -408 246 -408 c 1,9,10
 163 -410 163 -410 91.5 -373.5 c 128,-1,11
 20 -337 20 -337 20 -262.5 c 128,-1,12
 20 -188 20 -188 87 -154 c 0,13,14
 232 -79 232 -79 434 -172 c 1,15,16
 441 -143 441 -143 441 -112 c 0,17,18
 441 -7 441 -7 357 115 c 0,19,20
 224 308 224 308 219 317 c 0,21,22
 158 445 158 445 158 581 c 0,23,24
 158 791 158 791 258 971 c 1,25,26
 280 962 280 962 314 962 c 128,-1,27
 348 962 348 962 373 971 c 1,0,1
421 -233 m 1,28,29
 345 -160 345 -160 244 -160 c 1,30,31
 190 -158 190 -158 152.5 -183 c 128,-1,32
 115 -208 115 -208 117 -260 c 1,33,34
 117 -356 117 -356 245 -356 c 0,35,36
 306 -356 306 -356 355.5 -323 c 128,-1,37
 405 -290 405 -290 421 -233 c 1,28,29
EndSplineSet
EndChar

StartChar: uni0D46
Encoding: 3398 3398 104
Width: 1243
GlyphClass: 2
Flags: W
LayerCount: 2
Fore
SplineSet
1243 474 m 0,0,1
 1243 163 1243 163 997 -23 c 1,2,3
 990 12 990 12 952 43 c 1,4,5
 1042 96 1042 96 1088 218 c 128,-1,6
 1134 340 1134 340 1134 461 c 0,7,8
 1134 663 1134 663 1028 802.5 c 128,-1,9
 922 942 922 942 725.5 942 c 128,-1,10
 529 942 529 942 411 816 c 128,-1,11
 293 690 293 690 293 490 c 0,12,13
 293 463 293 463 297 436 c 1,14,15
 325 523 325 523 403.5 574.5 c 128,-1,16
 482 626 482 626 575 626 c 0,17,18
 704 626 704 626 792.5 537.5 c 128,-1,19
 881 449 881 449 881 310 c 128,-1,20
 881 171 881 171 797.5 76.5 c 128,-1,21
 714 -18 714 -18 567 -18 c 1,22,23
 374 -20 374 -20 273 139 c 1,24,25
 188 275 188 275 197 469 c 1,26,27
 201 711 201 711 340.5 854 c 128,-1,28
 480 997 480 997 719 997 c 128,-1,29
 958 997 958 997 1100.5 852.5 c 128,-1,30
 1243 708 1243 708 1243 474 c 0,0,1
778 305.5 m 128,-1,32
 778 420 778 420 721 497 c 128,-1,33
 664 574 664 574 556.5 574 c 128,-1,34
 449 574 449 574 388 497 c 128,-1,35
 327 420 327 420 327 311.5 c 128,-1,36
 327 203 327 203 386.5 117.5 c 128,-1,37
 446 32 446 32 554.5 32 c 128,-1,38
 663 32 663 32 720.5 111.5 c 128,-1,31
 778 191 778 191 778 305.5 c 128,-1,32
EndSplineSet
EndChar

StartChar: uni0D47
Encoding: 3399 3399 105
Width: 980
GlyphClass: 2
Flags: W
LayerCount: 2
Fore
SplineSet
997 203 m 0,0,1
 997 80 997 80 885 23 c 1,2,3
 799 -22 799 -22 664 -22 c 0,4,5
 448 -22 448 -22 322.5 121.5 c 128,-1,6
 197 265 197 265 197 485 c 128,-1,7
 197 705 197 705 327.5 852.5 c 128,-1,8
 458 1000 458 1000 677 1000 c 0,9,10
 806 1000 806 1000 890 952 c 1,11,12
 996 894 996 894 996 774 c 0,13,14
 996 682 996 682 933.5 633 c 128,-1,15
 871 584 871 584 777 584 c 128,-1,16
 683 584 683 584 616 633 c 128,-1,17
 549 682 549 682 549 761 c 128,-1,18
 549 840 549 840 593.5 888.5 c 128,-1,19
 638 937 638 937 707 947 c 1,20,21
 661 955 661 955 623 948 c 0,22,23
 462 920 462 920 382 782 c 1,24,25
 313 665 313 665 313 487 c 128,-1,26
 313 309 313 309 380 193 c 0,27,28
 460 54 460 54 624 29 c 0,29,30
 673 21 673 21 708 30 c 1,31,32
 550 59 550 59 550 205 c 0,33,34
 550 299 550 299 617.5 346.5 c 128,-1,35
 685 394 685 394 780 394 c 128,-1,36
 875 394 875 394 936 343.5 c 128,-1,37
 997 293 997 293 997 203 c 0,0,1
893 774 m 0,38,39
 893 835 893 835 862.5 878.5 c 128,-1,40
 832 922 832 922 773.5 922 c 128,-1,41
 715 922 715 922 683 881 c 128,-1,42
 651 840 651 840 651 779 c 128,-1,43
 651 718 651 718 682.5 675.5 c 128,-1,44
 714 633 714 633 774 633 c 0,45,46
 893 633 893 633 893 774 c 0,38,39
894 203 m 1,47,48
 890 344 890 344 775 344 c 1,49,50
 650 336 650 336 652 197 c 0,51,52
 652 137 652 137 684 96 c 128,-1,53
 716 55 716 55 776.5 55 c 128,-1,54
 837 55 837 55 867.5 101 c 128,-1,55
 898 147 898 147 894 203 c 1,47,48
EndSplineSet
EndChar

StartChar: uni0D48
Encoding: 3400 3400 106
Width: 2455
GlyphClass: 2
Flags: W
LayerCount: 2
Fore
SplineSet
2455 474 m 0,0,1
 2455 163 2455 163 2209 -23 c 1,2,3
 2202 12 2202 12 2164 43 c 1,4,5
 2255 96 2255 96 2300.5 218 c 128,-1,6
 2346 340 2346 340 2346 461 c 0,7,8
 2346 663 2346 663 2240.5 802.5 c 128,-1,9
 2135 942 2135 942 1938 942 c 128,-1,10
 1741 942 1741 942 1623 816 c 128,-1,11
 1505 690 1505 690 1505 490 c 0,12,13
 1505 463 1505 463 1509 436 c 1,14,15
 1538 523 1538 523 1616 574.5 c 128,-1,16
 1694 626 1694 626 1787 626 c 0,17,18
 1916 626 1916 626 2005 537.5 c 128,-1,19
 2094 449 2094 449 2094 310 c 128,-1,20
 2094 171 2094 171 2010.5 76.5 c 128,-1,21
 1927 -18 1927 -18 1779 -18 c 1,22,23
 1586 -20 1586 -20 1486 139 c 0,24,25
 1400 275 1400 275 1410 469 c 1,26,27
 1414 711 1414 711 1553.5 854 c 128,-1,28
 1693 997 1693 997 1931.5 997 c 128,-1,29
 2170 997 2170 997 2312.5 852.5 c 128,-1,30
 2455 708 2455 708 2455 474 c 0,0,1
1243 474 m 0,31,32
 1243 163 1243 163 997 -23 c 1,33,34
 990 12 990 12 952 43 c 1,35,36
 1042 96 1042 96 1088 218 c 128,-1,37
 1134 340 1134 340 1134 461 c 0,38,39
 1134 663 1134 663 1028 802.5 c 128,-1,40
 922 942 922 942 725.5 942 c 128,-1,41
 529 942 529 942 411 816 c 128,-1,42
 293 690 293 690 293 490 c 0,43,44
 293 463 293 463 297 436 c 1,45,46
 325 523 325 523 403.5 574.5 c 128,-1,47
 482 626 482 626 575 626 c 0,48,49
 704 626 704 626 792.5 537.5 c 128,-1,50
 881 449 881 449 881 310 c 128,-1,51
 881 171 881 171 797.5 76.5 c 128,-1,52
 714 -18 714 -18 567 -18 c 1,53,54
 374 -20 374 -20 273 139 c 1,55,56
 188 275 188 275 197 469 c 1,57,58
 201 711 201 711 340.5 854 c 128,-1,59
 480 997 480 997 719 997 c 128,-1,60
 958 997 958 997 1100.5 852.5 c 128,-1,61
 1243 708 1243 708 1243 474 c 0,31,32
1990 305.5 m 128,-1,63
 1990 420 1990 420 1933 497 c 128,-1,64
 1876 574 1876 574 1769 574 c 128,-1,65
 1662 574 1662 574 1600.5 497 c 128,-1,66
 1539 420 1539 420 1539 311.5 c 128,-1,67
 1539 203 1539 203 1598.5 117.5 c 128,-1,68
 1658 32 1658 32 1766.5 32 c 128,-1,69
 1875 32 1875 32 1932.5 111.5 c 128,-1,62
 1990 191 1990 191 1990 305.5 c 128,-1,63
778 305.5 m 128,-1,71
 778 420 778 420 721 497 c 128,-1,72
 664 574 664 574 556.5 574 c 128,-1,73
 449 574 449 574 388 497 c 128,-1,74
 327 420 327 420 327 311.5 c 128,-1,75
 327 203 327 203 386.5 117.5 c 128,-1,76
 446 32 446 32 554.5 32 c 128,-1,77
 663 32 663 32 720.5 111.5 c 128,-1,70
 778 191 778 191 778 305.5 c 128,-1,71
EndSplineSet
EndChar

StartChar: uni0D4A
Encoding: 3402 3402 107
Width: 3416
GlyphClass: 2
Flags: W
LayerCount: 2
Fore
SplineSet
3416 501 m 1,0,1
 3423 269 3423 269 3294.5 127 c 128,-1,2
 3166 -15 3166 -15 2989 -8 c 1,3,4
 2877 -12 2877 -12 2781 38 c 0,5,6
 2658 103 2658 103 2608 240 c 1,7,8
 2652 231 2652 231 2699 252 c 1,9,10
 2724 137 2724 137 2810 82 c 128,-1,11
 2896 27 2896 27 2989 31 c 1,12,13
 3152 44 3152 44 3227.5 173 c 128,-1,14
 3303 302 3303 302 3300 497 c 1,15,16
 3302 688 3302 688 3221.5 815.5 c 128,-1,17
 3141 943 3141 943 3000.5 946 c 128,-1,18
 2860 949 2860 949 2785.5 865.5 c 128,-1,19
 2711 782 2711 782 2701 688 c 1,20,21
 2670 717 2670 717 2613 721 c 1,22,23
 2700 979 2700 979 2985 989 c 1,24,25
 3168 997 3168 997 3292.5 862.5 c 128,-1,26
 3417 728 3417 728 3416 501 c 1,0,1
1243 474 m 0,27,28
 1243 163 1243 163 997 -23 c 1,29,30
 990 12 990 12 952 43 c 1,31,32
 1042 96 1042 96 1088 218 c 128,-1,33
 1134 340 1134 340 1134 461 c 0,34,35
 1134 663 1134 663 1028 802.5 c 128,-1,36
 922 942 922 942 725.5 942 c 128,-1,37
 529 942 529 942 411 816 c 128,-1,38
 293 690 293 690 293 490 c 0,39,40
 293 463 293 463 297 436 c 1,41,42
 325 523 325 523 403.5 574.5 c 128,-1,43
 482 626 482 626 575 626 c 0,44,45
 704 626 704 626 792.5 537.5 c 128,-1,46
 881 449 881 449 881 310 c 128,-1,47
 881 171 881 171 797.5 76.5 c 128,-1,48
 714 -18 714 -18 567 -18 c 1,49,50
 374 -20 374 -20 273 139 c 1,51,52
 188 275 188 275 197 469 c 1,53,54
 201 711 201 711 340.5 854 c 128,-1,55
 480 997 480 997 719 997 c 128,-1,56
 958 997 958 997 1100.5 852.5 c 128,-1,57
 1243 708 1243 708 1243 474 c 0,27,28
778 305.5 m 128,-1,59
 778 420 778 420 721 497 c 128,-1,60
 664 574 664 574 556.5 574 c 128,-1,61
 449 574 449 574 388 497 c 128,-1,62
 327 420 327 420 327 311.5 c 128,-1,63
 327 203 327 203 386.5 117.5 c 128,-1,64
 446 32 446 32 554.5 32 c 128,-1,65
 663 32 663 32 720.5 111.5 c 128,-1,58
 778 191 778 191 778 305.5 c 128,-1,59
EndSplineSet
EndChar

StartChar: uni0D4B
Encoding: 3403 3403 108
Width: 3151
GlyphClass: 2
Flags: W
LayerCount: 2
Fore
SplineSet
3150 470 m 1,0,1
 3148 270 3148 270 3032.5 131 c 128,-1,2
 2917 -8 2917 -8 2723 -8 c 0,3,4
 2432 -8 2432 -8 2342 240 c 1,5,6
 2350 238 2350 238 2375 238 c 128,-1,7
 2400 238 2400 238 2433 252 c 1,8,9
 2455 151 2455 151 2537 91 c 128,-1,10
 2619 31 2619 31 2724 31 c 1,11,12
 2882 34 2882 34 2966 179 c 0,13,14
 3035 299 3035 299 3036.5 478.5 c 128,-1,15
 3038 658 3038 658 2975 784 c 0,16,17
 2893 946 2893 946 2717 946 c 0,18,19
 2606 946 2606 946 2526.5 872 c 128,-1,20
 2447 798 2447 798 2435 688 c 1,21,22
 2402 718 2402 718 2348 721 c 1,23,24
 2437 990 2437 990 2737 990 c 1,25,26
 2947 986 2947 986 3060 821 c 0,27,28
 3158 677 3158 677 3150 470 c 1,0,1
997 203 m 0,29,30
 997 80 997 80 885 23 c 1,31,32
 799 -22 799 -22 664 -22 c 0,33,34
 448 -22 448 -22 322.5 121.5 c 128,-1,35
 197 265 197 265 197 485 c 128,-1,36
 197 705 197 705 327.5 852.5 c 128,-1,37
 458 1000 458 1000 677 1000 c 0,38,39
 806 1000 806 1000 890 952 c 1,40,41
 996 894 996 894 996 774 c 0,42,43
 996 682 996 682 933.5 633 c 128,-1,44
 871 584 871 584 777 584 c 128,-1,45
 683 584 683 584 616 633 c 128,-1,46
 549 682 549 682 549 761 c 128,-1,47
 549 840 549 840 593.5 888.5 c 128,-1,48
 638 937 638 937 707 947 c 1,49,50
 661 955 661 955 623 948 c 0,51,52
 462 920 462 920 382 782 c 1,53,54
 313 665 313 665 313 487 c 128,-1,55
 313 309 313 309 380 193 c 0,56,57
 460 54 460 54 624 29 c 0,58,59
 673 21 673 21 708 30 c 1,60,61
 550 59 550 59 550 205 c 0,62,63
 550 299 550 299 617.5 346.5 c 128,-1,64
 685 394 685 394 780 394 c 128,-1,65
 875 394 875 394 936 343.5 c 128,-1,66
 997 293 997 293 997 203 c 0,29,30
893 774 m 0,67,68
 893 835 893 835 862.5 878.5 c 128,-1,69
 832 922 832 922 773.5 922 c 128,-1,70
 715 922 715 922 683 881 c 128,-1,71
 651 840 651 840 651 779 c 128,-1,72
 651 718 651 718 682.5 675.5 c 128,-1,73
 714 633 714 633 774 633 c 0,74,75
 893 633 893 633 893 774 c 0,67,68
894 203 m 1,76,77
 890 344 890 344 775 344 c 1,78,79
 650 336 650 336 652 197 c 0,80,81
 652 137 652 137 684 96 c 128,-1,82
 716 55 716 55 776.5 55 c 128,-1,83
 837 55 837 55 867.5 101 c 128,-1,84
 898 147 898 147 894 203 c 1,76,77
EndSplineSet
EndChar

StartChar: uni0D4C
Encoding: 3404 3404 109
Width: 1312
GlyphClass: 2
Flags: W
LayerCount: 2
Fore
SplineSet
1312 546 m 0,0,1
 1312 283 1312 283 1162.5 134 c 128,-1,2
 1013 -15 1013 -15 750 -15 c 0,3,4
 606 -15 606 -15 476 40.5 c 128,-1,5
 346 96 346 96 279 207 c 1,6,7
 318 217 318 217 349 250 c 1,8,9
 463 35 463 35 724 35 c 0,10,11
 954 35 954 35 1075.5 167 c 128,-1,12
 1197 299 1197 299 1197 530 c 0,13,14
 1197 697 1197 697 1149 805 c 0,15,16
 1083 953 1083 953 938 950 c 1,17,18
 848 950 848 950 792 881.5 c 128,-1,19
 736 813 736 813 736 721 c 2,20,-1
 735 627 l 2,21,22
 735 584 735 584 742 492 c 1,23,24
 715 499 715 499 684.5 499 c 128,-1,25
 654 499 654 499 625 492 c 1,26,27
 634 624 634 624 632.5 720 c 128,-1,28
 631 816 631 816 580.5 884 c 128,-1,29
 530 952 530 952 437 952 c 1,30,31
 237 946 237 946 234 674 c 0,32,33
 233 563 233 563 238 492 c 1,34,35
 222 496 222 496 203 496 c 256,36,37
 184 496 184 496 164 492 c 1,38,-1
 170 672 l 1,39,40
 183 1004 183 1004 460 1004 c 0,41,42
 662 1004 662 1004 711 811 c 1,43,44
 765 1005 765 1005 976 1005 c 0,45,46
 1149 1005 1149 1005 1238 855 c 0,47,48
 1312 731 1312 731 1312 546 c 0,0,1
EndSplineSet
EndChar

StartChar: uni0D4D
Encoding: 3405 3405 110
Width: 147
GlyphClass: 2
Flags: W
LayerCount: 2
Fore
SplineSet
477 1442 m 1,0,1
 473 1156 473 1156 172 1149 c 1,2,3
 -129 1155 -129 1155 -133 1442 c 1,4,5
 -87 1417 -87 1417 -18 1442 c 1,6,7
 -20 1424 -20 1424 -20 1407 c 0,8,9
 -20 1198 -20 1198 172 1198 c 256,10,11
 364 1198 364 1198 364 1407 c 0,12,13
 364 1424 364 1424 362 1442 c 1,14,15
 431 1417 431 1417 477 1442 c 1,0,1
EndSplineSet
EndChar

StartChar: uni0D57
Encoding: 3415 3415 111
Width: 1316
GlyphClass: 2
Flags: W
LayerCount: 2
Fore
SplineSet
1316 546 m 0,0,1
 1316 283 1316 283 1166.5 134 c 128,-1,2
 1017 -15 1017 -15 754 -15 c 0,3,4
 610 -15 610 -15 480 40.5 c 128,-1,5
 350 96 350 96 283 207 c 1,6,7
 322 217 322 217 353 250 c 1,8,9
 467 35 467 35 728 35 c 0,10,11
 958 35 958 35 1079.5 167 c 128,-1,12
 1201 299 1201 299 1201 530 c 0,13,14
 1201 697 1201 697 1153 805 c 0,15,16
 1087 953 1087 953 942 950 c 1,17,18
 852 950 852 950 796 881.5 c 128,-1,19
 740 813 740 813 740 721 c 2,20,-1
 739 627 l 2,21,22
 739 584 739 584 746 492 c 1,23,24
 720 499 720 499 689 499 c 256,25,26
 658 499 658 499 629 492 c 1,27,28
 638 624 638 624 636.5 720 c 128,-1,29
 635 816 635 816 584.5 884 c 128,-1,30
 534 952 534 952 441 952 c 1,31,32
 241 946 241 946 238 674 c 0,33,34
 237 563 237 563 242 492 c 1,35,36
 226 496 226 496 207 496 c 256,37,38
 188 496 188 496 168 492 c 1,39,-1
 174 672 l 1,40,41
 187 1004 187 1004 464 1004 c 0,42,43
 666 1004 666 1004 715 811 c 1,44,45
 769 1005 769 1005 980 1005 c 0,46,47
 1153 1005 1153 1005 1242 855 c 0,48,49
 1316 731 1316 731 1316 546 c 0,0,1
EndSplineSet
EndChar

StartChar: uni0D60
Encoding: 3424 3424 112
Width: 1329
GlyphClass: 2
Flags: W
LayerCount: 2
Fore
SplineSet
1050 1000 m 0,0,1
 1177 1000 1177 1000 1253 906 c 128,-1,2
 1329 812 1329 812 1329 685 c 128,-1,3
 1329 558 1329 558 1257.5 467 c 128,-1,4
 1186 376 1186 376 1064 342 c 1,5,6
 1178 314 1178 314 1251.5 236 c 128,-1,7
 1325 158 1325 158 1325 46 c 0,8,9
 1325 -133 1325 -133 1121 -217 c 0,10,11
 974 -277 974 -277 765 -277 c 256,12,13
 556 -277 556 -277 407 -216 c 0,14,15
 201 -132 201 -132 201 46 c 0,16,17
 201 158 201 158 274.5 236 c 128,-1,18
 348 314 348 314 462 342 c 1,19,20
 340 376 340 376 268.5 467 c 128,-1,21
 197 558 197 558 197 685 c 128,-1,22
 197 812 197 812 273 906 c 128,-1,23
 349 1000 349 1000 475 1000 c 0,24,25
 570 1000 570 1000 629 947 c 128,-1,26
 688 894 688 894 688 801.5 c 128,-1,27
 688 709 688 709 629 652.5 c 128,-1,28
 570 596 570 596 488.5 596 c 128,-1,29
 407 596 407 596 358 641.5 c 128,-1,30
 309 687 309 687 303 756 c 1,31,32
 296 726 296 726 296 692 c 0,33,34
 296 367 296 367 762.5 367 c 128,-1,35
 1229 367 1229 367 1229 692 c 0,36,37
 1229 726 1229 726 1223 756 c 1,38,39
 1215 691 1215 691 1167 644.5 c 128,-1,40
 1119 598 1119 598 1037.5 597 c 128,-1,41
 956 596 956 596 896.5 652.5 c 128,-1,42
 837 709 837 709 837 801.5 c 128,-1,43
 837 894 837 894 896.5 947 c 128,-1,44
 956 1000 956 1000 1050 1000 c 0,0,1
932 793 m 0,45,46
 932 732 932 732 963 689 c 128,-1,47
 994 646 994 646 1052 646 c 128,-1,48
 1110 646 1110 646 1142.5 691 c 128,-1,49
 1175 736 1175 736 1175 796 c 128,-1,50
 1175 856 1175 856 1144 903 c 128,-1,51
 1113 950 1113 950 1054 950 c 0,52,53
 932 950 932 950 932 793 c 0,45,46
594 793 m 0,54,55
 594 950 594 950 472 950 c 0,56,57
 413 950 413 950 382 903 c 128,-1,58
 351 856 351 856 351 796 c 128,-1,59
 351 736 351 736 383 691 c 128,-1,60
 415 646 415 646 473 646 c 128,-1,61
 531 646 531 646 562.5 689 c 128,-1,62
 594 732 594 732 594 793 c 0,54,55
1051 -168 m 0,63,64
 1210 -93 1210 -93 1210 49.5 c 128,-1,65
 1210 192 1210 192 1062 264 c 0,66,67
 943 321 943 321 790 318 c 0,68,69
 761 317 761 317 732 318 c 0,70,71
 579 321 579 321 462 264 c 0,72,73
 316 192 316 192 316 50 c 128,-1,74
 316 -92 316 -92 477 -168 c 0,75,76
 602 -227 602 -227 765 -227 c 256,77,78
 928 -227 928 -227 1051 -168 c 0,63,64
975.5 85.5 m 128,-1,80
 999 62 999 62 999 28.5 c 128,-1,81
 999 -5 999 -5 975.5 -28.5 c 128,-1,82
 952 -52 952 -52 918.5 -52 c 128,-1,83
 885 -52 885 -52 861.5 -28.5 c 128,-1,84
 838 -5 838 -5 838 28.5 c 128,-1,85
 838 62 838 62 861.5 85.5 c 128,-1,86
 885 109 885 109 918.5 109 c 128,-1,79
 952 109 952 109 975.5 85.5 c 128,-1,80
677.5 85.5 m 128,-1,88
 701 62 701 62 701 28.5 c 128,-1,89
 701 -5 701 -5 677.5 -28.5 c 128,-1,90
 654 -52 654 -52 620.5 -52 c 128,-1,91
 587 -52 587 -52 563.5 -28.5 c 128,-1,92
 540 -5 540 -5 540 28.5 c 128,-1,93
 540 62 540 62 563.5 85.5 c 128,-1,94
 587 109 587 109 620.5 109 c 128,-1,87
 654 109 654 109 677.5 85.5 c 128,-1,88
EndSplineSet
EndChar

StartChar: uni0D61
Encoding: 3425 3425 113
Width: 2278
GlyphClass: 2
Flags: W
LayerCount: 2
Fore
SplineSet
2278 111 m 0,0,1
 2278 -109 2278 -109 2128.5 -250.5 c 128,-1,2
 1979 -392 1979 -392 1759 -392 c 0,3,4
 1675 -392 1675 -392 1578 -368 c 128,-1,5
 1481 -344 1481 -344 1437 -297 c 1,6,7
 1487 -276 1487 -276 1502 -236 c 1,8,9
 1576 -337 1576 -337 1762.5 -337 c 128,-1,10
 1949 -337 1949 -337 2057 -204 c 128,-1,11
 2165 -71 2165 -71 2165 137.5 c 128,-1,12
 2165 346 2165 346 2068 438 c 1,13,14
 2070 351 2070 351 2036 233 c 128,-1,15
 2002 115 2002 115 1914 46.5 c 128,-1,16
 1826 -22 1826 -22 1697.5 -22 c 128,-1,17
 1569 -22 1569 -22 1484.5 67.5 c 128,-1,18
 1400 157 1400 157 1400 301.5 c 128,-1,19
 1400 446 1400 446 1494.5 537.5 c 128,-1,20
 1589 629 1589 629 1741 629 c 0,21,22
 1836 629 1836 629 1956 578 c 1,23,24
 1955 582 1955 582 1956 582 c 128,-1,25
 1957 582 1957 582 1956 586 c 0,26,27
 1938 743 1938 743 1827.5 844.5 c 128,-1,28
 1717 946 1717 946 1566 946 c 0,29,30
 1459 946 1459 946 1363 902 c 0,31,32
 1188 822 1188 822 1188 610 c 2,33,-1
 1188 328 l 1,34,-1
 1199 0 l 1,35,36
 1168 9 1168 9 1136 9 c 128,-1,37
 1104 9 1104 9 1082 0 c 1,38,39
 1092 131 1092 131 1092 328 c 2,40,-1
 1092 610 l 2,41,42
 1092 720 1092 720 1060 772 c 0,43,44
 950 948 950 948 738 948 c 128,-1,45
 526 948 526 948 410.5 808.5 c 128,-1,46
 295 669 295 669 295 465 c 0,47,48
 295 449 295 449 296 436 c 1,49,50
 325 523 325 523 403 574.5 c 128,-1,51
 481 626 481 626 574 626 c 0,52,53
 703 626 703 626 792 537.5 c 128,-1,54
 881 449 881 449 881 310 c 128,-1,55
 881 171 881 171 797.5 77 c 128,-1,56
 714 -17 714 -17 566 -18 c 1,57,58
 378 -18 378 -18 286 124 c 128,-1,59
 194 266 194 266 197 469 c 1,60,61
 197 710 197 710 343 854.5 c 128,-1,62
 489 999 489 999 739 999 c 128,-1,63
 989 999 989 999 1145 831 c 1,64,65
 1290 999 1290 999 1551 999 c 1,66,67
 1766 1002 1766 1002 1907 871.5 c 128,-1,68
 2048 741 2048 741 2066 530 c 1,69,70
 2166 460 2166 460 2222 347.5 c 128,-1,71
 2278 235 2278 235 2278 111 c 0,0,1
1880 119 m 1,72,73
 1963 233 1963 233 1963 435 c 0,74,75
 1963 493 1963 493 1961 504 c 1,76,77
 1888 569 1888 569 1761.5 569 c 128,-1,78
 1635 569 1635 569 1573 488 c 128,-1,79
 1511 407 1511 407 1511 292.5 c 128,-1,80
 1511 178 1511 178 1564.5 105 c 128,-1,81
 1618 32 1618 32 1716.5 32 c 128,-1,82
 1815 32 1815 32 1880 119 c 1,72,73
777 306 m 128,-1,84
 777 421 777 421 720 497.5 c 128,-1,85
 663 574 663 574 555.5 574 c 128,-1,86
 448 574 448 574 387 497 c 128,-1,87
 326 420 326 420 325.5 310 c 128,-1,88
 325 200 325 200 384.5 116 c 128,-1,89
 444 32 444 32 553 32 c 128,-1,90
 662 32 662 32 719.5 111.5 c 128,-1,83
 777 191 777 191 777 306 c 128,-1,84
EndSplineSet
EndChar

StartChar: uni0D66
Encoding: 3430 3430 114
Width: 1541
GlyphClass: 2
Flags: W
LayerCount: 2
Fore
SplineSet
1541 630 m 1,0,1
 1410 640 1410 640 1175 640 c 2,2,-1
 666 641 l 2,3,4
 637 641 637 641 577.5 640.5 c 128,-1,5
 518 640 518 640 489 640 c 0,6,7
 393 640 393 640 331.5 581 c 128,-1,8
 270 522 270 522 267.5 428.5 c 128,-1,9
 265 335 265 335 314.5 274.5 c 128,-1,10
 364 214 364 214 457 212 c 1,11,12
 508 212 508 212 532 233 c 1,13,-1
 525 236 l 1,14,15
 514 234 514 234 502 234 c 0,16,17
 449 234 449 234 411 271 c 128,-1,18
 373 308 373 308 371 372.5 c 128,-1,19
 369 437 369 437 410 475 c 128,-1,20
 451 513 451 513 517.5 515 c 128,-1,21
 584 517 584 517 628 477.5 c 128,-1,22
 672 438 672 438 672.5 361.5 c 128,-1,23
 673 285 673 285 616.5 227 c 128,-1,24
 560 169 560 169 455 164 c 128,-1,25
 350 159 350 159 273.5 235 c 128,-1,26
 197 311 197 311 197 427 c 0,27,28
 197 688 197 688 457 716 c 0,29,30
 495 721 495 721 642 721 c 2,31,-1
 1175 721 l 2,32,33
 1415 721 1415 721 1541 730 c 1,34,35
 1533 700 1533 700 1533 680.5 c 128,-1,36
 1533 661 1533 661 1541 630 c 1,0,1
598 369 m 0,37,38
 600 412 600 412 582.5 443.5 c 128,-1,39
 565 475 565 475 523.5 475 c 128,-1,40
 482 475 482 475 463 444 c 128,-1,41
 444 413 444 413 444.5 372.5 c 128,-1,42
 445 332 445 332 466 302.5 c 128,-1,43
 487 273 487 273 528 274 c 0,44,45
 594 277 594 277 598 369 c 0,37,38
EndSplineSet
EndChar

StartChar: uni0D67
Encoding: 3431 3431 115
Width: 1563
GlyphClass: 2
Flags: W
LayerCount: 2
Fore
SplineSet
1542 0 m 1,0,-1
 385 0 l 2,1,2
 280 0 280 0 280 -90 c 0,3,4
 280 -186 280 -186 469 -186 c 128,-1,5
 658 -186 658 -186 747 -172 c 1,6,7
 737 -191 737 -191 737 -219 c 256,8,9
 737 -247 737 -247 747 -266 c 1,10,11
 702 -258 702 -258 635 -260 c 2,12,-1
 522 -263 l 1,13,14
 366 -263 366 -263 313 -249 c 1,15,16
 197 -216 197 -216 197 -103 c 0,17,18
 197 -33 197 -33 247 8 c 128,-1,19
 297 49 297 49 369 49 c 2,20,-1
 836 49 l 1,21,22
 850 226 850 226 850 656 c 0,23,24
 850 811 850 811 948.5 906 c 128,-1,25
 1047 1001 1047 1001 1202 1001 c 0,26,27
 1407 1001 1407 1001 1490 818 c 1,28,29
 1551 681 1551 681 1551 414 c 0,30,31
 1551 344 1551 344 1545.5 201 c 128,-1,32
 1540 58 1540 58 1542 0 c 1,0,-1
1440 49 m 1,33,-1
 1440 645 l 2,34,35
 1440 776 1440 776 1383 864 c 128,-1,36
 1326 952 1326 952 1201.5 952 c 128,-1,37
 1077 952 1077 952 1012.5 863.5 c 128,-1,38
 948 775 948 775 948 645 c 2,39,-1
 948 49 l 1,40,-1
 1440 49 l 1,33,-1
EndSplineSet
EndChar

StartChar: uni0D68
Encoding: 3432 3432 116
Width: 1522
GlyphClass: 2
Flags: W
LayerCount: 2
Fore
SplineSet
1542 -10 m 1,0,1
 1433 -7 1433 -7 1239 0 c 1,2,-1
 849 0 l 1,3,-1
 848 57 l 1,4,5
 967 102 967 102 1032.5 216 c 128,-1,6
 1098 330 1098 330 1097.5 510 c 128,-1,7
 1097 690 1097 690 997 819 c 128,-1,8
 897 948 897 948 702.5 949 c 128,-1,9
 508 950 508 950 402 804 c 0,10,11
 310 678 310 678 310.5 505 c 128,-1,12
 311 332 311 332 377 208 c 128,-1,13
 443 84 443 84 566 39 c 1,14,15
 547 15 547 15 543 -20 c 1,16,17
 394 43 394 43 294 177 c 128,-1,18
 194 311 194 311 197 489 c 0,19,20
 200 731 200 731 348.5 863.5 c 128,-1,21
 497 996 497 996 707 996.5 c 128,-1,22
 917 997 917 997 1065.5 858.5 c 128,-1,23
 1214 720 1214 720 1212 489 c 1,24,25
 1207 205 1207 205 985 57 c 1,26,-1
 1243 57 l 2,27,28
 1443 57 1443 57 1542 67 c 1,29,30
 1531 29 1531 29 1542 -10 c 1,0,1
EndSplineSet
EndChar

StartChar: uni0D69
Encoding: 3433 3433 117
Width: 2317
GlyphClass: 2
Flags: W
LayerCount: 2
Fore
SplineSet
2338 -10 m 1,0,1
 2140 -7 2140 -7 1859 0 c 1,2,-1
 1434 0 l 1,3,4
 1444 21 1444 21 1433 52 c 1,5,6
 1674 163 1674 163 1674 502 c 0,7,8
 1674 681 1674 681 1598 802 c 0,9,10
 1508 945 1508 945 1339 949 c 1,11,12
 1131 949 1131 949 1063 778 c 0,13,14
 1043 729 1043 729 1043 610 c 2,15,-1
 1043 328 l 1,16,17
 1043 328 1043 328 1053 0 c 1,18,19
 1022 9 1022 9 990.5 9 c 128,-1,20
 959 9 959 9 937 0 c 1,21,22
 947 130 947 130 947 311 c 2,23,-1
 947 610 l 2,24,25
 947 731 947 731 926 778 c 0,26,27
 853 949 853 949 660 948 c 1,28,29
 487 943 487 943 398.5 807.5 c 128,-1,30
 310 672 310 672 316 494 c 1,31,32
 316 354 316 354 380 225.5 c 128,-1,33
 444 97 444 97 563 52 c 1,34,35
 532 26 532 26 527 -25 c 1,36,37
 373 42 373 42 285 188 c 128,-1,38
 197 334 197 334 197 506 c 0,39,40
 197 719 197 719 324.5 858 c 128,-1,41
 452 997 452 997 660 997 c 128,-1,42
 868 997 868 997 997 853 c 1,43,44
 1115 998 1115 998 1329.5 998 c 128,-1,45
 1544 998 1544 998 1668 860 c 128,-1,46
 1792 722 1792 722 1792 502 c 0,47,48
 1792 222 1792 222 1596 57 c 1,49,-1
 1863 57 l 2,50,51
 2238 57 2238 57 2338 67 c 1,52,53
 2327 29 2327 29 2338 -10 c 1,0,1
EndSplineSet
EndChar

StartChar: uni0D6A
Encoding: 3434 3434 118
Width: 1279
GlyphClass: 2
Flags: W
LayerCount: 2
Fore
SplineSet
1280 454 m 0,0,1
 1280 270 1280 270 1198 136 c 1,2,3
 1100 -21 1100 -21 928 -20 c 128,-1,4
 756 -19 756 -19 661 126 c 0,5,6
 579 251 579 251 579 424.5 c 128,-1,7
 579 598 579 598 662.5 736 c 128,-1,8
 746 874 746 874 903 922 c 1,9,10
 824 961 824 961 722 950 c 1,11,12
 531 941 531 941 420.5 795.5 c 128,-1,13
 310 650 310 650 310 454 c 0,14,15
 310 164 310 164 479 39 c 1,16,17
 442 21 442 21 440 -20 c 1,18,19
 194 144 194 144 197 480 c 1,20,21
 197 706 197 706 341 852.5 c 128,-1,22
 485 999 485 999 711 999 c 0,23,24
 881 999 881 999 970 952 c 1,25,26
 1040 1000 1040 1000 1040.5 1086.5 c 128,-1,27
 1041 1173 1041 1173 989 1224 c 128,-1,28
 937 1275 937 1275 861.5 1275 c 128,-1,29
 786 1275 786 1275 741 1237 c 1,30,31
 726 1297 726 1297 686 1331 c 1,32,33
 752 1370 752 1370 854 1371 c 128,-1,34
 956 1372 956 1372 1039.5 1301.5 c 128,-1,35
 1123 1231 1123 1231 1125 1116.5 c 128,-1,36
 1127 1002 1127 1002 1028 924 c 1,37,38
 1280 779 1280 779 1280 454 c 0,0,1
1165 478 m 0,39,40
 1165 786 1165 786 970 883 c 1,41,42
 827 846 827 846 754 696 c 0,43,44
 693 572 693 572 693 426.5 c 128,-1,45
 693 281 693 281 742 175 c 0,46,47
 805 39 805 39 922 29 c 1,48,49
 1057 29 1057 29 1120 197 c 0,50,51
 1165 316 1165 316 1165 478 c 0,39,40
EndSplineSet
EndChar

StartChar: uni0D6B
Encoding: 3435 3435 119
Width: 1932
GlyphClass: 2
Flags: W
LayerCount: 2
Fore
SplineSet
1932 599 m 0,0,1
 1932 200 1932 200 1641 -41 c 1,2,3
 1641 -41 1641 -41 1625 -4 c 0,4,5
 1617 13 1617 13 1598 25 c 1,6,7
 1821 231 1821 231 1821 600 c 0,8,9
 1821 1035 1821 1035 1483 1245 c 0,10,11
 1323 1345 1323 1345 1070 1345 c 0,12,13
 730 1345 730 1345 520.5 1116.5 c 128,-1,14
 311 888 311 888 311 545 c 0,15,16
 311 132 311 132 549 -82 c 0,17,18
 718 -234 718 -234 948 -234 c 0,19,20
 1245 -234 1245 -234 1376 -20 c 0,21,22
 1431 68 1431 68 1431 184.5 c 128,-1,23
 1431 301 1431 301 1361 367.5 c 128,-1,24
 1291 434 1291 434 1173 434 c 0,25,26
 1110 434 1110 434 1061 418 c 1,27,28
 1069 438 1069 438 1069 477 c 128,-1,29
 1069 516 1069 516 1061 536 c 1,30,31
 1130 525 1130 525 1182 525 c 0,32,33
 1401 525 1401 525 1401 700 c 0,34,35
 1401 818 1401 818 1301 885 c 128,-1,36
 1201 952 1201 952 1076 952 c 0,37,38
 884 952 884 952 762.5 816 c 128,-1,39
 641 680 641 680 641 485 c 0,40,41
 641 358 641 358 692 225 c 128,-1,42
 743 92 743 92 838 43 c 1,43,44
 805 22 805 22 803 -33 c 1,45,46
 732 14 732 14 694 51 c 0,47,48
 526 218 526 218 526 469 c 128,-1,49
 526 720 526 720 683 860.5 c 128,-1,50
 840 1001 840 1001 1083 1001 c 0,51,52
 1251 1001 1251 1001 1372 929 c 0,53,54
 1516 842 1516 842 1516 686.5 c 128,-1,55
 1516 531 1516 531 1358 481 c 1,56,57
 1543 415 1543 415 1543 184 c 128,-1,58
 1543 -47 1543 -47 1357 -174 c 1,59,60
 1195 -283 1195 -283 954 -283 c 0,61,62
 657 -283 657 -283 449 -94 c 0,63,64
 197 135 197 135 197 553 c 0,65,66
 197 930 197 930 442.5 1161.5 c 128,-1,67
 688 1393 688 1393 1067 1393 c 0,68,69
 1318 1393 1318 1393 1510.5 1301 c 128,-1,70
 1703 1209 1703 1209 1817.5 1020.5 c 128,-1,71
 1932 832 1932 832 1932 599 c 0,0,1
EndSplineSet
EndChar

StartChar: uni0D6C
Encoding: 3436 3436 120
Width: 2413
GlyphClass: 2
Flags: W
LayerCount: 2
Fore
SplineSet
1620 853 m 1,0,1
 1741 1002 1741 1002 1959 1002 c 128,-1,2
 2177 1002 2177 1002 2295 855 c 128,-1,3
 2413 708 2413 708 2413 484 c 128,-1,4
 2413 260 2413 260 2342 94 c 0,5,6
 2240 -145 2240 -145 2041 -268 c 1,7,8
 2034 -220 2034 -220 1998 -196 c 1,9,10
 2152 -102 2152 -102 2225.5 84.5 c 128,-1,11
 2299 271 2299 271 2299 461.5 c 128,-1,12
 2299 652 2299 652 2226 786 c 0,13,14
 2136 952 2136 952 1961 952 c 0,15,16
 1762 952 1762 952 1689 778 c 0,17,18
 1666 721 1666 721 1666 615 c 2,19,-1
 1666 328 l 1,20,-1
 1676 0 l 1,21,22
 1645 9 1645 9 1613 9 c 128,-1,23
 1581 9 1581 9 1559 0 c 1,24,25
 1570 141 1570 141 1570 332 c 2,26,-1
 1570 624 l 2,27,28
 1570 756 1570 756 1506.5 851.5 c 128,-1,29
 1443 947 1443 947 1317 947 c 1,30,31
 1129 945 1129 945 1063 778 c 0,32,33
 1043 729 1043 729 1043 626 c 2,34,-1
 1043 328 l 2,35,36
 1043 326 1043 326 1053 0 c 1,37,38
 1022 9 1022 9 991 9 c 128,-1,39
 960 9 960 9 937 0 c 1,40,41
 947 130 947 130 947 293 c 2,42,-1
 947 626 l 2,43,44
 947 730 947 730 926 778 c 0,45,46
 855 948 855 948 660 948 c 0,47,48
 496 948 496 948 400 807 c 1,49,50
 315 684 315 684 315 523 c 128,-1,51
 315 362 315 362 372 242 c 1,52,53
 438 99 438 99 563 52 c 1,54,55
 532 25 532 25 527 -25 c 1,56,57
 373 42 373 42 285 188 c 128,-1,58
 197 334 197 334 197 506 c 0,59,60
 197 719 197 719 324.5 858 c 128,-1,61
 452 997 452 997 660 997 c 128,-1,62
 868 997 868 997 997 853 c 1,63,64
 1115 998 1115 998 1308 998 c 128,-1,65
 1501 998 1501 998 1620 853 c 1,0,1
EndSplineSet
EndChar

StartChar: uni0D6D
Encoding: 3437 3437 121
Width: 1338
GlyphClass: 2
Flags: W
LayerCount: 2
Fore
SplineSet
846 1001 m 0,0,1
 1073 1001 1073 1001 1205.5 861 c 128,-1,2
 1338 721 1338 721 1338 482.5 c 128,-1,3
 1338 244 1338 244 1168 106 c 128,-1,4
 998 -32 998 -32 758.5 -31 c 128,-1,5
 519 -30 519 -30 377 68.5 c 128,-1,6
 235 167 235 167 197 303 c 1,7,8
 254 304 254 304 289 336 c 1,9,10
 305 255 305 255 368 179.5 c 128,-1,11
 431 104 431 104 536.5 60.5 c 128,-1,12
 642 17 642 17 744 17 c 0,13,14
 961 17 961 17 1091.5 154.5 c 128,-1,15
 1222 292 1222 292 1222 492 c 128,-1,16
 1222 692 1222 692 1118 821 c 128,-1,17
 1014 950 1014 950 836 950 c 0,18,19
 745 950 745 950 690 920 c 1,20,-1
 692 913 l 1,21,22
 825 923 825 923 911 842 c 128,-1,23
 997 761 997 761 997 628.5 c 128,-1,24
 997 496 997 496 909.5 416 c 128,-1,25
 822 336 822 336 684 336 c 1,26,27
 553 341 553 341 468.5 420.5 c 128,-1,28
 384 500 384 500 384 627 c 0,29,30
 384 807 384 807 521.5 904 c 128,-1,31
 659 1001 659 1001 846 1001 c 0,0,1
883 626 m 0,32,33
 883 725 883 725 835 795.5 c 128,-1,34
 787 866 787 866 691 865.5 c 128,-1,35
 595 865 595 865 544.5 792.5 c 128,-1,36
 494 720 494 720 496 624.5 c 128,-1,37
 498 529 498 529 547 457.5 c 128,-1,38
 596 386 596 386 694 386 c 128,-1,39
 792 386 792 386 838 456.5 c 128,-1,40
 884 527 884 527 883 626 c 0,32,33
EndSplineSet
EndChar

StartChar: uni0D6E
Encoding: 3438 3438 122
Width: 1634
GlyphClass: 2
Flags: W
LayerCount: 2
Fore
SplineSet
1594 971 m 1,0,1
 1585 744 1585 744 1585 375 c 2,2,3
 1585 375 1585 375 1585 0 c 1,4,5
 1562 -147 1562 -147 1440.5 -222 c 128,-1,6
 1319 -297 1319 -297 1155 -287 c 1,7,8
 939 -278 939 -278 819 -156 c 1,9,10
 874 -145 874 -145 885 -90 c 1,11,12
 975 -226 975 -226 1157 -233 c 0,13,14
 1288 -238 1288 -238 1378 -179.5 c 128,-1,15
 1468 -121 1468 -121 1487 0 c 1,16,-1
 840 0 l 1,17,18
 845 24 845 24 840 49 c 1,19,20
 1090 194 1090 194 1090 496 c 0,21,22
 1090 689 1090 689 986.5 817 c 128,-1,23
 883 945 883 945 697 944 c 128,-1,24
 511 943 511 943 407 815.5 c 128,-1,25
 303 688 303 688 303 506.5 c 128,-1,26
 303 325 303 325 386.5 201.5 c 128,-1,27
 470 78 470 78 573 45 c 1,28,29
 547 21 547 21 541 -23 c 1,30,31
 197 132 197 132 197 504 c 0,32,33
 197 730 197 730 338 862 c 128,-1,34
 479 994 479 994 703 994 c 128,-1,35
 927 994 927 994 1065.5 860.5 c 128,-1,36
 1204 727 1204 727 1204 508 c 0,37,38
 1204 209 1204 209 950 49 c 1,39,-1
 1491 49 l 1,40,-1
 1491 645 l 2,41,42
 1491 814 1491 814 1479 971 c 1,43,44
 1502 962 1502 962 1535 962 c 128,-1,45
 1568 962 1568 962 1594 971 c 1,0,1
EndSplineSet
EndChar

StartChar: uni0D6F
Encoding: 3439 3439 123
Width: 1934
GlyphClass: 2
Flags: W
LayerCount: 2
Fore
SplineSet
1934 454 m 0,0,1
 1934 270 1934 270 1851 136 c 0,2,3
 1753 -21 1753 -21 1581.5 -20 c 128,-1,4
 1410 -19 1410 -19 1321 116 c 128,-1,5
 1232 251 1232 251 1232 426 c 1,6,7
 1227 608 1227 608 1313.5 738 c 128,-1,8
 1400 868 1400 868 1556 915 c 1,9,10
 1484 948 1484 948 1382.5 948 c 128,-1,11
 1281 948 1281 948 1189 903.5 c 128,-1,12
 1097 859 1097 859 1065 778 c 0,13,14
 1043 724 1043 724 1043 610 c 2,15,-1
 1043 328 l 1,16,-1
 1053 0 l 1,17,18
 1022 9 1022 9 990.5 9 c 128,-1,19
 959 9 959 9 937 0 c 1,20,21
 947 130 947 130 947 311 c 2,22,-1
 947 610 l 2,23,24
 947 731 947 731 926 778 c 0,25,26
 853 949 853 949 660 948 c 1,27,28
 487 943 487 943 398.5 807.5 c 128,-1,29
 310 672 310 672 316 494 c 1,30,31
 316 354 316 354 380 225.5 c 128,-1,32
 444 97 444 97 563 52 c 1,33,34
 532 26 532 26 527 -25 c 1,35,36
 373 42 373 42 285 188 c 128,-1,37
 197 334 197 334 197 506 c 0,38,39
 197 719 197 719 324.5 858 c 128,-1,40
 452 997 452 997 660 997 c 128,-1,41
 868 997 868 997 997 853 c 1,42,43
 1112 994 1112 994 1362 999 c 0,44,45
 1518 1003 1518 1003 1624 952 c 1,46,47
 1693 1000 1693 1000 1693.5 1086.5 c 128,-1,48
 1694 1173 1694 1173 1642 1224 c 128,-1,49
 1590 1275 1590 1275 1515 1275 c 128,-1,50
 1440 1275 1440 1275 1395 1237 c 1,51,52
 1380 1297 1380 1297 1339 1331 c 1,53,54
 1405 1370 1405 1370 1507 1371 c 128,-1,55
 1609 1372 1609 1372 1693 1301.5 c 128,-1,56
 1777 1231 1777 1231 1778.5 1116.5 c 128,-1,57
 1780 1002 1780 1002 1681 924 c 1,58,59
 1934 787 1934 787 1934 454 c 0,0,1
1819 478 m 0,60,61
 1819 786 1819 786 1624 883 c 1,62,63
 1346 796 1346 796 1346 407 c 0,64,65
 1346 281 1346 281 1396 175 c 0,66,67
 1459 39 1459 39 1575 29 c 1,68,69
 1712 32 1712 32 1774 198 c 0,70,71
 1819 316 1819 316 1819 478 c 0,60,61
EndSplineSet
EndChar

StartChar: ZWNJ
Encoding: 8204 8204 125
Width: 168
GlyphClass: 2
Flags: W
LayerCount: 2
Fore
SplineSet
115 0 m 1,0,-1
 63 0 l 1,1,-1
 63 1393 l 1,2,-1
 115 1393 l 1,3,-1
 115 0 l 1,0,-1
EndSplineSet
EndChar

StartChar: ZWJ
Encoding: 8205 8205 126
Width: 290
GlyphClass: 2
Flags: W
LayerCount: 2
Fore
SplineSet
321 1360 m 1,0,-1
 195 1234 l 1,1,-1
 319 1110 l 1,2,-1
 284 1075 l 1,3,-1
 186 1174 l 1,4,-1
 186 0 l 1,5,-1
 135 0 l 1,6,-1
 135 1173 l 1,7,-1
 37 1075 l 1,8,-1
 2 1110 l 1,9,-1
 126 1234 l 1,10,-1
 0 1360 l 1,11,-1
 34 1395 l 1,12,-1
 160 1269 l 1,13,-1
 287 1395 l 1,14,-1
 321 1360 l 1,0,-1
EndSplineSet
EndChar

StartChar: quoteleft
Encoding: 8216 8216 127
Width: 338
GlyphClass: 2
Flags: W
LayerCount: 2
Fore
SplineSet
379 1024 m 1,0,1
 351 1007 351 1007 336 981 c 1,2,3
 185 1138 185 1138 188 1391 c 1,4,5
 248 1377 248 1377 303 1391 c 1,6,7
 299 1362 299 1362 299 1329 c 0,8,9
 299 1147 299 1147 379 1024 c 1,0,1
EndSplineSet
EndChar

StartChar: quoteright
Encoding: 8217 8217 128
Width: 338
GlyphClass: 2
Flags: W
LayerCount: 2
Fore
SplineSet
338 1391 m 1,0,1
 341 1138 341 1138 190 981 c 1,2,3
 176 1007 176 1007 147 1024 c 1,4,5
 227 1147 227 1147 227 1329 c 0,6,7
 227 1362 227 1362 223 1391 c 1,8,9
 278 1377 278 1377 338 1391 c 1,0,1
EndSplineSet
EndChar

StartChar: quotedblleft
Encoding: 8220 8220 129
Width: 608
GlyphClass: 2
Flags: W
LayerCount: 2
Fore
SplineSet
649 1024 m 1,0,1
 621 1007 621 1007 606 981 c 1,2,3
 456 1138 456 1138 459 1391 c 1,4,5
 518 1377 518 1377 573 1391 c 1,6,7
 570 1362 570 1362 570 1329 c 0,8,9
 570 1147 570 1147 649 1024 c 1,0,1
387 1024 m 1,10,11
 359 1007 359 1007 344 981 c 1,12,13
 194 1138 194 1138 197 1391 c 1,14,15
 256 1377 256 1377 311 1391 c 1,16,17
 308 1362 308 1362 308 1329 c 0,18,19
 308 1147 308 1147 387 1024 c 1,10,11
EndSplineSet
EndChar

StartChar: quotedblright
Encoding: 8221 8221 130
Width: 600
GlyphClass: 2
Flags: W
LayerCount: 2
Fore
SplineSet
600 1391 m 1,0,1
 603 1138 603 1138 453 981 c 1,2,3
 438 1007 438 1007 410 1024 c 1,4,5
 489 1147 489 1147 489 1329 c 0,6,7
 489 1362 489 1362 485 1391 c 1,8,9
 541 1377 541 1377 600 1391 c 1,0,1
338 1391 m 1,10,11
 341 1138 341 1138 190 981 c 1,12,13
 176 1007 176 1007 147 1024 c 1,14,15
 227 1147 227 1147 227 1329 c 0,16,17
 227 1362 227 1362 223 1391 c 1,18,19
 278 1377 278 1377 338 1391 c 1,10,11
EndSplineSet
EndChar

StartChar: uni25CC
Encoding: 9676 9676 131
Width: 1246
GlyphClass: 2
Flags: W
LayerCount: 2
Fore
SplineSet
1064 891 m 1,0,-1
 1029 856 l 1,1,2
 915 953 915 953 767 967 c 1,3,-1
 767 1016 l 1,4,5
 935 1002 935 1002 1064 891 c 1,0,-1
1246 530 m 1,6,-1
 1197 530 l 1,7,8
 1186 672 1186 672 1098 785 c 1,9,-1
 1135 820 l 1,10,11
 1234 695 1234 695 1246 530 c 1,6,-1
676 1016 m 1,12,-1
 676 967 l 1,13,14
 528 953 528 953 414 856 c 1,15,-1
 379 891 l 1,16,17
 508 1002 508 1002 676 1016 c 1,12,-1
1245 438 m 1,18,19
 1229 274 1229 274 1121 149 c 1,20,-1
 1086 184 l 1,21,22
 1180 295 1180 295 1196 438 c 1,23,-1
 1245 438 l 1,18,19
1055 85 m 1,24,25
 929 -19 929 -19 767 -33 c 1,26,-1
 767 16 l 1,27,28
 909 30 909 30 1020 120 c 1,29,-1
 1055 85 l 1,24,25
351 792 m 1,30,31
 258 677 258 677 246 530 c 1,32,-1
 197 530 l 1,33,34
 209 698 209 698 316 827 c 1,35,-1
 351 792 l 1,30,31
673 17 m 1,36,-1
 673 -33 l 1,37,38
 515 -18 515 -18 392 81 c 1,39,-1
 427 120 l 1,40,41
 541 30 541 30 673 17 c 1,36,-1
357 184 m 1,42,-1
 322 149 l 1,43,44
 214 275 214 275 198 438 c 1,45,-1
 247 438 l 1,46,47
 263 295 263 295 357 184 c 1,42,-1
EndSplineSet
EndChar

StartChar: uni0D15.cil
Encoding: 65539 -1 132
Width: 1939
GlyphClass: 3
Flags: W
LayerCount: 2
Fore
SplineSet
1939 258 m 0,0,1
 1939 141 1939 141 1873 65 c 128,-1,2
 1807 -11 1807 -11 1685.5 -11 c 128,-1,3
 1564 -11 1564 -11 1491.5 76 c 128,-1,4
 1419 163 1419 163 1419 276 c 128,-1,5
 1419 389 1419 389 1460 497 c 1,6,7
 1431 498 1431 498 1342 498 c 1,8,9
 1342 283 1342 283 1272 153 c 0,10,11
 1182 -16 1182 -16 981 -16 c 128,-1,12
 780 -16 780 -16 705 170 c 1,13,14
 692 81 692 81 624 32.5 c 128,-1,15
 556 -16 556 -16 450 -16 c 128,-1,16
 344 -16 344 -16 270.5 58.5 c 128,-1,17
 197 133 197 133 197 261 c 128,-1,18
 197 389 197 389 284 464.5 c 128,-1,19
 371 540 371 540 513 546 c 0,20,21
 561 548 561 548 635 546 c 1,22,23
 637 732 637 732 720 855 c 0,24,25
 817 998 817 998 992 999.5 c 128,-1,26
 1167 1001 1167 1001 1259 854 c 1,27,28
 1338 730 1338 730 1340 546 c 1,29,30
 1343 545 1343 545 1481 545 c 1,31,32
 1540 644 1540 644 1659 860 c 1,33,34
 1718 984 1718 984 1718 1070 c 0,35,36
 1718 1195 1718 1195 1636 1245 c 1,37,38
 1597 1275 1597 1275 1529.5 1275 c 128,-1,39
 1462 1275 1462 1275 1417 1237 c 1,40,41
 1404 1289 1404 1289 1362 1331 c 1,42,43
 1446 1375 1446 1375 1531 1370.5 c 128,-1,44
 1616 1366 1616 1366 1674 1329 c 1,45,46
 1805 1249 1805 1249 1793 1094 c 1,47,48
 1793 996 1793 996 1719 852 c 0,49,50
 1605 632 1605 632 1575 545 c 1,51,-1
 1712 541 l 1,52,53
 1778 535 1778 535 1823 506 c 0,54,55
 1939 430 1939 430 1939 258 c 0,0,1
1836 235 m 0,56,57
 1837 302 1837 302 1813 372 c 128,-1,58
 1789 442 1789 442 1743 465 c 1,59,60
 1710 491 1710 491 1557 492 c 1,61,62
 1534 417 1534 417 1534 302.5 c 128,-1,63
 1534 188 1534 188 1569 121 c 0,64,65
 1612 36 1612 36 1704 38 c 0,66,67
 1835 40 1835 40 1836 235 c 0,56,57
1225 546 m 1,68,69
 1224 691 1224 691 1201 773 c 128,-1,70
 1178 855 1178 855 1123.5 903 c 128,-1,71
 1069 951 1069 951 995 951 c 0,72,73
 739 949 739 949 750 546 c 1,74,-1
 1225 546 l 1,68,69
1225 424 m 2,75,-1
 1225 496 l 1,76,-1
 750 496 l 1,77,78
 746 411 746 411 760 293 c 0,79,80
 791 41 791 41 986 33 c 1,81,82
 1137 33 1137 33 1191 163 c 0,83,84
 1225 246 1225 246 1225 424 c 2,75,-1
656 221 m 1,85,-1
 633 496 l 1,86,87
 651 497 651 497 542 497 c 128,-1,88
 433 497 433 497 367 435 c 128,-1,89
 301 373 301 373 301 272.5 c 128,-1,90
 301 172 301 172 350.5 105.5 c 128,-1,91
 400 39 400 39 486 39 c 0,92,93
 656 39 656 39 656 221 c 1,85,-1
EndSplineSet
Ligature2: "'haln' Halant Forms in Malay+AQEA-lam lookup 4 subtable" uni0D15 uni0D4D ZWJ
Ligature2: "'half' Half Forms in Malay+AQEA-lam lookup 3 subtable" uni0D15 uni0D4D ZWJ
Ligature2: "'akhn' Akhand in Malay+AQEA-lam lookup 0 subtable" uni0D15 uni0D4D ZWJ
EndChar

StartChar: uni0D23.cil
Encoding: 65540 -1 133
Width: 2701
GlyphClass: 3
Flags: W
LayerCount: 2
Fore
SplineSet
2701 454 m 0,0,1
 2701 270 2701 270 2618 136 c 0,2,3
 2521 -21 2521 -21 2349 -20 c 128,-1,4
 2177 -19 2177 -19 2082 126 c 0,5,6
 2000 251 2000 251 2000 426 c 1,7,8
 1994 603 1994 603 2086.5 735 c 128,-1,9
 2179 867 2179 867 2324 915 c 1,10,11
 2251 948 2251 948 2146 947.5 c 128,-1,12
 2041 947 2041 947 1952 903.5 c 128,-1,13
 1863 860 1863 860 1829 778 c 0,14,15
 1805 722 1805 722 1805 615 c 2,16,-1
 1805 328 l 1,17,-1
 1815 0 l 1,18,19
 1784 9 1784 9 1752.5 9 c 128,-1,20
 1721 9 1721 9 1699 0 c 1,21,22
 1709 130 1709 130 1709 321 c 2,23,-1
 1709 610 l 2,24,25
 1709 754 1709 754 1646.5 851 c 128,-1,26
 1584 948 1584 948 1449 948 c 0,27,28
 1368 948 1368 948 1303 901.5 c 128,-1,29
 1238 855 1238 855 1211.5 785.5 c 128,-1,30
 1185 716 1185 716 1185 615 c 2,31,-1
 1185 328 l 1,32,-1
 1195 0 l 1,33,34
 1164 9 1164 9 1132 9 c 128,-1,35
 1100 9 1100 9 1078 0 c 1,36,37
 1088 130 1088 130 1088 321 c 2,38,-1
 1088 610 l 2,39,40
 1088 727 1088 727 1058 778 c 0,41,42
 960 943 960 943 748.5 943 c 128,-1,43
 537 943 537 943 414.5 819.5 c 128,-1,44
 292 696 292 696 292 490 c 0,45,46
 292 458 292 458 296 436 c 1,47,48
 325 523 325 523 403 574.5 c 128,-1,49
 481 626 481 626 574 626 c 0,50,51
 703 626 703 626 792 537.5 c 128,-1,52
 881 449 881 449 881 310 c 128,-1,53
 881 171 881 171 797.5 76.5 c 128,-1,54
 714 -18 714 -18 566 -18 c 0,55,56
 377 -18 377 -18 278 134 c 0,57,58
 191 267 191 267 197 469 c 1,59,60
 197 711 197 711 342.5 854 c 128,-1,61
 488 997 488 997 731 997 c 128,-1,62
 974 997 974 997 1139 853 c 1,63,64
 1238 1000 1238 1000 1443.5 1000 c 128,-1,65
 1649 1000 1649 1000 1759 853 c 1,66,67
 1876 998 1876 998 2129 999 c 1,68,69
 2290 1001 2290 1001 2391 952 c 1,70,71
 2461 1000 2461 1000 2461 1086.5 c 128,-1,72
 2461 1173 2461 1173 2409.5 1224 c 128,-1,73
 2358 1275 2358 1275 2282.5 1275 c 128,-1,74
 2207 1275 2207 1275 2162 1237 c 1,75,76
 2147 1297 2147 1297 2107 1331 c 1,77,78
 2173 1370 2173 1370 2275 1371 c 128,-1,79
 2377 1372 2377 1372 2460.5 1301.5 c 128,-1,80
 2544 1231 2544 1231 2545.5 1116.5 c 128,-1,81
 2547 1002 2547 1002 2448 924 c 1,82,83
 2701 787 2701 787 2701 454 c 0,0,1
2586 478 m 0,84,85
 2586 786 2586 786 2391 883 c 1,86,87
 2245 835 2245 835 2173 690 c 0,88,89
 2114 570 2114 570 2114 425.5 c 128,-1,90
 2114 281 2114 281 2163 175 c 0,91,92
 2226 39 2226 39 2343 29 c 1,93,94
 2479 32 2479 32 2542 198 c 0,95,96
 2586 316 2586 316 2586 478 c 0,84,85
554 32 m 256,97,98
 663 32 663 32 720 111.5 c 128,-1,99
 777 191 777 191 777 306 c 128,-1,100
 777 421 777 421 720 497.5 c 128,-1,101
 663 574 663 574 555.5 574 c 128,-1,102
 448 574 448 574 387.5 497 c 128,-1,103
 327 420 327 420 327 311.5 c 128,-1,104
 327 203 327 203 386 117.5 c 128,-1,105
 445 32 445 32 554 32 c 256,97,98
EndSplineSet
Ligature2: "'haln' Halant Forms in Malay+AQEA-lam lookup 4 subtable" uni0D23 uni0D4D ZWJ
Ligature2: "'half' Half Forms in Malay+AQEA-lam lookup 3 subtable" uni0D23 uni0D4D ZWJ
Ligature2: "'akhn' Akhand in Malay+AQEA-lam lookup 0 subtable" uni0D23 uni0D4D ZWJ
EndChar

StartChar: uni0D28.cil
Encoding: 65541 -1 134
Width: 1934
GlyphClass: 3
Flags: W
LayerCount: 2
Fore
SplineSet
1934 454 m 0,0,1
 1934 270 1934 270 1851 136 c 0,2,3
 1753 -21 1753 -21 1581.5 -20 c 128,-1,4
 1410 -19 1410 -19 1321 116 c 128,-1,5
 1232 251 1232 251 1232 426 c 1,6,7
 1227 608 1227 608 1313.5 738 c 128,-1,8
 1400 868 1400 868 1556 915 c 1,9,10
 1484 948 1484 948 1382.5 948 c 128,-1,11
 1281 948 1281 948 1189 903.5 c 128,-1,12
 1097 859 1097 859 1065 778 c 0,13,14
 1043 724 1043 724 1043 610 c 2,15,-1
 1043 328 l 1,16,-1
 1053 0 l 1,17,18
 1022 9 1022 9 990.5 9 c 128,-1,19
 959 9 959 9 937 0 c 1,20,21
 947 130 947 130 947 311 c 2,22,-1
 947 610 l 2,23,24
 947 731 947 731 926 778 c 0,25,26
 853 949 853 949 660 948 c 1,27,28
 487 943 487 943 398.5 807.5 c 128,-1,29
 310 672 310 672 316 494 c 1,30,31
 316 354 316 354 380 225.5 c 128,-1,32
 444 97 444 97 563 52 c 1,33,34
 532 26 532 26 527 -25 c 1,35,36
 373 42 373 42 285 188 c 128,-1,37
 197 334 197 334 197 506 c 0,38,39
 197 719 197 719 324.5 858 c 128,-1,40
 452 997 452 997 660 997 c 128,-1,41
 868 997 868 997 997 853 c 1,42,43
 1112 994 1112 994 1362 999 c 0,44,45
 1518 1003 1518 1003 1624 952 c 1,46,47
 1693 1000 1693 1000 1693.5 1086.5 c 128,-1,48
 1694 1173 1694 1173 1642 1224 c 128,-1,49
 1590 1275 1590 1275 1515 1275 c 128,-1,50
 1440 1275 1440 1275 1395 1237 c 1,51,52
 1380 1297 1380 1297 1339 1331 c 1,53,54
 1405 1370 1405 1370 1507 1371 c 128,-1,55
 1609 1372 1609 1372 1693 1301.5 c 128,-1,56
 1777 1231 1777 1231 1778.5 1116.5 c 128,-1,57
 1780 1002 1780 1002 1681 924 c 1,58,59
 1934 787 1934 787 1934 454 c 0,0,1
1819 478 m 0,60,61
 1819 786 1819 786 1624 883 c 1,62,63
 1346 796 1346 796 1346 407 c 0,64,65
 1346 281 1346 281 1396 175 c 0,66,67
 1459 39 1459 39 1575 29 c 1,68,69
 1712 32 1712 32 1774 198 c 0,70,71
 1819 316 1819 316 1819 478 c 0,60,61
EndSplineSet
Ligature2: "'haln' Halant Forms in Malay+AQEA-lam lookup 4 subtable" uni0D28 uni0D4D ZWJ
Ligature2: "'half' Half Forms in Malay+AQEA-lam lookup 3 subtable" uni0D28 uni0D4D ZWJ
Ligature2: "'akhn' Akhand in Malay+AQEA-lam lookup 0 subtable" uni0D28 uni0D4D ZWJ
EndChar

StartChar: uni0D30.cil
Encoding: 65542 -1 135
Width: 1280
GlyphClass: 3
Flags: W
LayerCount: 2
Fore
SplineSet
1280 454 m 0,0,1
 1280 270 1280 270 1198 136 c 1,2,3
 1100 -21 1100 -21 928 -20 c 128,-1,4
 756 -19 756 -19 661 126 c 0,5,6
 579 251 579 251 579 424.5 c 128,-1,7
 579 598 579 598 662.5 736 c 128,-1,8
 746 874 746 874 903 922 c 1,9,10
 824 961 824 961 722 950 c 1,11,12
 531 941 531 941 420.5 795.5 c 128,-1,13
 310 650 310 650 310 454 c 0,14,15
 310 164 310 164 479 39 c 1,16,17
 442 21 442 21 440 -20 c 1,18,19
 194 144 194 144 197 480 c 1,20,21
 197 706 197 706 340.5 852.5 c 128,-1,22
 484 999 484 999 711 999 c 0,23,24
 881 999 881 999 970 952 c 1,25,26
 1040 1000 1040 1000 1040.5 1086.5 c 128,-1,27
 1041 1173 1041 1173 989 1224 c 128,-1,28
 937 1275 937 1275 861.5 1275 c 128,-1,29
 786 1275 786 1275 741 1237 c 1,30,31
 726 1297 726 1297 686 1331 c 1,32,33
 752 1370 752 1370 854 1371 c 128,-1,34
 956 1372 956 1372 1039.5 1301.5 c 128,-1,35
 1123 1231 1123 1231 1124.5 1116.5 c 128,-1,36
 1126 1002 1126 1002 1028 924 c 1,37,38
 1280 779 1280 779 1280 454 c 0,0,1
1165 478 m 0,39,40
 1165 786 1165 786 970 883 c 1,41,42
 827 846 827 846 754 696 c 0,43,44
 693 572 693 572 693 426.5 c 128,-1,45
 693 281 693 281 742 175 c 0,46,47
 805 39 805 39 922 29 c 1,48,49
 1057 29 1057 29 1120 197 c 0,50,51
 1165 316 1165 316 1165 478 c 0,39,40
EndSplineSet
Ligature2: "'haln' Halant Forms in Malay+AQEA-lam lookup 4 subtable" uni0D30 uni0D4D ZWJ
Ligature2: "'half' Half Forms in Malay+AQEA-lam lookup 3 subtable" uni0D30 uni0D4D ZWJ
Ligature2: "'akhn' Akhand in Malay+AQEA-lam lookup 0 subtable" uni0D30 uni0D4D ZWJ
EndChar

StartChar: uni0D32.cil
Encoding: 65543 -1 136
Width: 2137
GlyphClass: 3
Flags: W
LayerCount: 2
Fore
SplineSet
2065 717.5 m 128,-1,1
 2137 597 2137 597 2137 461 c 128,-1,2
 2137 325 2137 325 2104 225 c 128,-1,3
 2071 125 2071 125 1987 52.5 c 128,-1,4
 1903 -20 1903 -20 1790 -20 c 0,5,6
 1638 -20 1638 -20 1557 100 c 128,-1,7
 1476 220 1476 220 1476 380 c 0,8,9
 1476 722 1476 722 1733 884 c 1,10,11
 1600 954 1600 954 1434 954 c 128,-1,12
 1268 954 1268 954 1132 899 c 1,13,14
 1400 777 1400 777 1400 458 c 0,15,16
 1400 271 1400 271 1315 137 c 0,17,18
 1216 -20 1216 -20 1039 -20 c 128,-1,19
 862 -20 862 -20 760 133 c 0,20,21
 670 267 670 267 673 454 c 0,22,23
 678 777 678 777 947 901 c 1,24,25
 869 951 869 951 742 951 c 0,26,27
 548 951 548 951 429.5 812 c 128,-1,28
 311 673 311 673 311 477 c 0,29,30
 311 185 311 185 519 25 c 1,31,32
 481 8 481 8 470 -33 c 1,33,34
 197 148 197 148 197 470 c 0,35,36
 197 710 197 710 344.5 855 c 128,-1,37
 492 1000 492 1000 733 1000 c 0,38,39
 911 1000 911 1000 1046 936 c 1,40,41
 1214 1004 1214 1004 1432 1004 c 128,-1,42
 1650 1004 1650 1004 1807 930 c 1,43,44
 1907 987 1907 987 1900 1095 c 1,45,46
 1899 1173 1899 1173 1847 1224 c 128,-1,47
 1795 1275 1795 1275 1720 1275 c 128,-1,48
 1645 1275 1645 1275 1600 1237 c 1,49,50
 1585 1297 1585 1297 1545 1331 c 1,51,52
 1610 1370 1610 1370 1712 1371 c 128,-1,53
 1814 1372 1814 1372 1898 1301.5 c 128,-1,54
 1982 1231 1982 1231 1985 1121 c 1,55,56
 1993 988 1993 988 1864 901 c 1,57,0
 1993 838 1993 838 2065 717.5 c 128,-1,1
1978 191 m 0,58,59
 2022 306 2022 306 2022 446.5 c 128,-1,60
 2022 587 2022 587 1967 696.5 c 128,-1,61
 1912 806 1912 806 1807 858 c 1,62,63
 1591 712 1591 712 1591 373 c 0,64,65
 1591 68 1591 68 1772 31 c 0,66,67
 1775 30 1775 30 1785 30 c 0,68,69
 1915 30 1915 30 1978 191 c 0,58,59
1285 449 m 0,70,71
 1288 764 1288 764 1110 841 c 0,72,73
 1070 858 1070 858 1031 858 c 128,-1,74
 992 858 992 858 952 830 c 1,75,76
 788 739 788 739 788 446 c 0,77,78
 788 288 788 288 837 177 c 1,79,80
 904 29 904 29 1041 29 c 128,-1,81
 1178 29 1178 29 1240 182 c 0,82,83
 1284 291 1284 291 1285 449 c 0,70,71
EndSplineSet
Ligature2: "'haln' Halant Forms in Malay+AQEA-lam lookup 4 subtable" uni0D32 uni0D4D ZWJ
Ligature2: "'half' Half Forms in Malay+AQEA-lam lookup 3 subtable" uni0D32 uni0D4D ZWJ
Ligature2: "'akhn' Akhand in Malay+AQEA-lam lookup 0 subtable" uni0D32 uni0D4D ZWJ
EndChar

StartChar: uni0D33.cil
Encoding: 65544 -1 137
Width: 1885
GlyphClass: 3
Flags: W
LayerCount: 2
Fore
SplineSet
1885 454 m 0,0,1
 1885 270 1885 270 1802 136 c 0,2,3
 1704 -21 1704 -21 1530 -21 c 1,4,5
 1359 -15 1359 -15 1271 118 c 128,-1,6
 1183 251 1183 251 1183 426 c 1,7,8
 1178 608 1178 608 1264.5 738 c 128,-1,9
 1351 868 1351 868 1507 915 c 1,10,11
 1425 952 1425 952 1329 948 c 0,12,13
 1176 941 1176 941 1079.5 851 c 128,-1,14
 983 761 983 761 978 608 c 0,15,16
 976 553 976 553 986 462 c 128,-1,17
 996 371 996 371 996 330 c 0,18,19
 996 176 996 176 894.5 75.5 c 128,-1,20
 793 -25 793 -25 639 -25 c 1,21,22
 429 -29 429 -29 310.5 115 c 128,-1,23
 192 259 192 259 197 463 c 1,24,25
 197 627 197 627 252.5 731 c 128,-1,26
 308 835 308 835 386.5 905 c 128,-1,27
 465 975 465 975 549 1004 c 1,28,29
 540 963 540 963 576 926 c 1,30,31
 443 882 443 882 373 738 c 1,32,33
 312 615 312 615 312 454.5 c 128,-1,34
 312 294 312 294 383 175 c 0,35,36
 469 30 469 30 630 25 c 1,37,38
 754 25 754 25 817.5 109.5 c 128,-1,39
 881 194 881 194 881 322 c 0,40,41
 881 361 881 361 870 462 c 128,-1,42
 859 563 859 563 862 610 c 0,43,44
 869 771 869 771 982.5 881 c 128,-1,45
 1096 991 1096 991 1304 999 c 0,46,47
 1463 1006 1463 1006 1575 952 c 1,48,49
 1644 1000 1644 1000 1644.5 1086.5 c 128,-1,50
 1645 1173 1645 1173 1593 1224 c 128,-1,51
 1541 1275 1541 1275 1465.5 1275 c 128,-1,52
 1390 1275 1390 1275 1346 1237 c 1,53,54
 1331 1297 1331 1297 1290 1331 c 1,55,56
 1356 1370 1356 1370 1458 1371 c 128,-1,57
 1560 1372 1560 1372 1644 1301.5 c 128,-1,58
 1728 1231 1728 1231 1729.5 1116.5 c 128,-1,59
 1731 1002 1731 1002 1632 924 c 1,60,61
 1885 787 1885 787 1885 454 c 0,0,1
1769 478 m 1,62,63
 1769 786 1769 786 1575 883 c 1,64,65
 1297 797 1297 797 1297 407 c 0,66,67
 1297 281 1297 281 1346 175 c 0,68,69
 1410 39 1410 39 1526 29 c 1,70,71
 1664 32 1664 32 1728 196 c 1,72,73
 1778 321 1778 321 1769 478 c 1,62,63
EndSplineSet
Ligature2: "'haln' Halant Forms in Malay+AQEA-lam lookup 4 subtable" uni0D33 uni0D4D ZWJ
Ligature2: "'half' Half Forms in Malay+AQEA-lam lookup 3 subtable" uni0D33 uni0D4D ZWJ
Ligature2: "'akhn' Akhand in Malay+AQEA-lam lookup 0 subtable" uni0D33 uni0D4D ZWJ
EndChar

StartChar: glyph133
Encoding: 65545 -1 138
Width: 1495
GlyphClass: 2
Flags: W
LayerCount: 2
Fore
SplineSet
1479 -410 m 1,0,-1
 358 -410 l 1,1,2
 364 -391 364 -391 356 -365 c 1,3,4
 546 -302 546 -302 772 -198.5 c 128,-1,5
 998 -95 998 -95 1128 0 c 1,6,-1
 1255 0 l 1,7,8
 923 -211 923 -211 516 -360 c 1,9,-1
 1374 -360 l 1,10,-1
 1374 0 l 1,11,-1
 1469 0 l 1,12,13
 1472 -136 1472 -136 1479 -410 c 1,0,-1
EndSplineSet
EndChar

StartChar: glyph134
Encoding: 65546 -1 139
Width: 1345
GlyphClass: 2
Flags: W
LayerCount: 2
Fore
SplineSet
1344 -371 m 1,0,1
 1347 -492 1347 -492 1290.5 -579 c 128,-1,2
 1234 -666 1234 -666 1132 -666 c 128,-1,3
 1030 -666 1030 -666 979.5 -609 c 128,-1,4
 929 -552 929 -552 929 -467.5 c 128,-1,5
 929 -383 929 -383 983 -329 c 128,-1,6
 1037 -275 1037 -275 1104.5 -275 c 128,-1,7
 1172 -275 1172 -275 1219.5 -306.5 c 128,-1,8
 1267 -338 1267 -338 1284 -390 c 1,9,10
 1285 -383 1285 -383 1285 -374 c 0,11,12
 1285 -269 1285 -269 1236.5 -190 c 128,-1,13
 1188 -111 1188 -111 1091 -88 c 0,14,15
 1056 -80 1056 -80 1029 -80 c 0,16,17
 876 -80 876 -80 820 -186 c 0,18,19
 800 -224 800 -224 800 -284 c 2,20,-1
 800 -456 l 1,21,-1
 806 -655 l 1,22,23
 787 -650 787 -650 767.5 -650 c 128,-1,24
 748 -650 748 -650 735 -655 c 1,25,26
 741 -576 741 -576 741 -456 c 2,27,-1
 741 -284 l 2,28,29
 741 -218 741 -218 721 -186 c 0,30,31
 655 -79 655 -79 526 -79 c 128,-1,32
 397 -79 397 -79 326.5 -163.5 c 128,-1,33
 256 -248 256 -248 256 -373 c 0,34,35
 256 -383 256 -383 257 -390 c 1,36,37
 274 -338 274 -338 321.5 -306.5 c 128,-1,38
 369 -275 369 -275 436.5 -275 c 128,-1,39
 504 -275 504 -275 558 -328.5 c 128,-1,40
 612 -382 612 -382 612 -467 c 128,-1,41
 612 -552 612 -552 561.5 -609 c 128,-1,42
 511 -666 511 -666 409 -666 c 128,-1,43
 307 -666 307 -666 251 -580 c 128,-1,44
 195 -494 195 -494 196 -359 c 128,-1,45
 197 -224 197 -224 285.5 -136 c 128,-1,46
 374 -48 374 -48 526 -48 c 128,-1,47
 678 -48 678 -48 773 -150 c 1,48,49
 861 -48 861 -48 1013.5 -48 c 128,-1,50
 1166 -48 1166 -48 1255 -136.5 c 128,-1,51
 1344 -225 1344 -225 1344 -371 c 1,0,1
1127 -636 m 256,52,53
 1193 -636 1193 -636 1229.5 -584 c 128,-1,54
 1266 -532 1266 -532 1266 -466 c 128,-1,55
 1266 -400 1266 -400 1228.5 -353 c 128,-1,56
 1191 -306 1191 -306 1130 -306 c 0,57,58
 991 -306 991 -306 991 -471 c 0,59,60
 991 -539 991 -539 1026 -587.5 c 128,-1,61
 1061 -636 1061 -636 1127 -636 c 256,52,53
550 -471 m 0,62,63
 550 -306 550 -306 411 -306 c 0,64,65
 350 -306 350 -306 312.5 -353 c 128,-1,66
 275 -400 275 -400 275 -467 c 128,-1,67
 275 -534 275 -534 311 -585 c 128,-1,68
 347 -636 347 -636 413.5 -636 c 128,-1,69
 480 -636 480 -636 515 -587.5 c 128,-1,70
 550 -539 550 -539 550 -471 c 0,62,63
EndSplineSet
EndChar

StartChar: glyph135
Encoding: 65547 -1 140
Width: 1462
GlyphClass: 2
Flags: W
LayerCount: 2
Fore
SplineSet
1462 -589 m 0,0,1
 1462 -722 1462 -722 1371 -808.5 c 128,-1,2
 1280 -895 1280 -895 1142.5 -895 c 128,-1,3
 1005 -895 1005 -895 951 -836 c 1,4,5
 981 -824 981 -824 990 -799 c 1,6,7
 1035 -861 1035 -861 1148.5 -861 c 128,-1,8
 1262 -861 1262 -861 1327.5 -780 c 128,-1,9
 1393 -699 1393 -699 1393 -572.5 c 128,-1,10
 1393 -446 1393 -446 1334 -389 c 1,11,12
 1336 -442 1336 -442 1315 -515 c 0,13,14
 1270 -669 1270 -669 1114 -669 c 0,15,16
 1031 -669 1031 -669 979.5 -614.5 c 128,-1,17
 928 -560 928 -560 928 -472.5 c 128,-1,18
 928 -385 928 -385 985.5 -329 c 128,-1,19
 1043 -273 1043 -273 1118.5 -273 c 128,-1,20
 1194 -273 1194 -273 1266 -305 c 0,21,22
 1267 -305 1267 -305 1266 -300 c 0,23,24
 1255 -204 1255 -204 1188 -142.5 c 128,-1,25
 1121 -81 1121 -81 1029 -81 c 0,26,27
 876 -81 876 -81 820 -187 c 0,28,29
 800 -225 800 -225 800 -285 c 2,30,-1
 800 -457 l 1,31,-1
 806 -656 l 1,32,33
 787 -651 787 -651 767.5 -651 c 128,-1,34
 748 -651 748 -651 735 -656 c 1,35,36
 741 -576 741 -576 741 -457 c 2,37,-1
 741 -285 l 2,38,39
 741 -218 741 -218 721 -187 c 0,40,41
 655 -79 655 -79 526 -79 c 128,-1,42
 397 -79 397 -79 326.5 -164 c 128,-1,43
 256 -249 256 -249 256 -373 c 0,44,45
 256 -383 256 -383 257 -391 c 1,46,47
 274 -338 274 -338 321.5 -306.5 c 128,-1,48
 369 -275 369 -275 436.5 -275 c 128,-1,49
 504 -275 504 -275 558 -329 c 128,-1,50
 612 -383 612 -383 612 -467.5 c 128,-1,51
 612 -552 612 -552 561.5 -609 c 128,-1,52
 511 -666 511 -666 409 -666.5 c 128,-1,53
 307 -667 307 -667 251 -580.5 c 128,-1,54
 195 -494 195 -494 196 -359 c 128,-1,55
 197 -224 197 -224 285.5 -136 c 128,-1,56
 374 -48 374 -48 526 -48 c 128,-1,57
 678 -48 678 -48 773 -150 c 1,58,59
 861 -48 861 -48 1020 -48 c 1,60,61
 1151 -46 1151 -46 1236.5 -125.5 c 128,-1,62
 1322 -205 1322 -205 1333 -333 c 1,63,64
 1462 -424 1462 -424 1462 -589 c 0,0,1
1269 -350 m 1,65,66
 1225 -310 1225 -310 1148 -310 c 128,-1,67
 1071 -310 1071 -310 1033.5 -359.5 c 128,-1,68
 996 -409 996 -409 996 -478.5 c 128,-1,69
 996 -548 996 -548 1028.5 -592.5 c 128,-1,70
 1061 -637 1061 -637 1120.5 -637 c 128,-1,71
 1180 -637 1180 -637 1225.5 -576 c 128,-1,72
 1271 -515 1271 -515 1271 -392 c 0,73,74
 1271 -356 1271 -356 1269 -350 c 1,65,66
550 -471 m 0,75,76
 550 -307 550 -307 411 -307 c 0,77,78
 350 -307 350 -307 312.5 -354 c 128,-1,79
 275 -401 275 -401 275 -467.5 c 128,-1,80
 275 -534 275 -534 311 -585.5 c 128,-1,81
 347 -637 347 -637 413.5 -637 c 128,-1,82
 480 -637 480 -637 515 -588.5 c 128,-1,83
 550 -540 550 -540 550 -471 c 0,75,76
EndSplineSet
EndChar

StartChar: uni0D32.bb
Encoding: 65548 -1 141
Width: 0
GlyphClass: 3
Flags: W
LayerCount: 2
Fore
SplineSet
-402 -308 m 1,0,-1
 -413 -456 l 1,1,2
 -413 -613 -413 -613 -264 -613 c 0,3,4
 -185 -613 -185 -613 -140.5 -533 c 128,-1,5
 -96 -453 -96 -453 -96 -368 c 0,6,7
 -96 -183 -96 -183 -248 -120 c 1,8,9
 -226 -99 -226 -99 -224 -67 c 1,10,11
 -129 -91 -129 -91 -68.5 -180 c 128,-1,12
 -8 -269 -8 -269 -8 -382 c 128,-1,13
 -8 -495 -8 -495 -82 -575 c 128,-1,14
 -156 -655 -156 -655 -266.5 -655 c 128,-1,15
 -377 -655 -377 -655 -439 -601.5 c 128,-1,16
 -501 -548 -501 -548 -501 -454 c 1,17,-1
 -488 -291 l 1,18,19
 -488 -207 -488 -207 -555 -156.5 c 128,-1,20
 -622 -106 -622 -106 -708.5 -106 c 128,-1,21
 -795 -106 -795 -106 -876 -171 c 128,-1,22
 -957 -236 -957 -236 -957 -304 c 0,23,24
 -957 -314 -957 -314 -955 -323 c 1,25,26
 -908 -237 -908 -237 -806.5 -237 c 128,-1,27
 -705 -237 -705 -237 -650.5 -291.5 c 128,-1,28
 -596 -346 -596 -346 -596 -438.5 c 128,-1,29
 -596 -531 -596 -531 -651 -591 c 128,-1,30
 -706 -651 -706 -651 -807 -651 c 128,-1,31
 -908 -651 -908 -651 -966.5 -570.5 c 128,-1,32
 -1025 -490 -1025 -490 -1025 -359.5 c 128,-1,33
 -1025 -229 -1025 -229 -931.5 -147 c 128,-1,34
 -838 -65 -838 -65 -707.5 -65 c 128,-1,35
 -577 -65 -577 -65 -489.5 -132 c 128,-1,36
 -402 -199 -402 -199 -402 -308 c 1,0,-1
-810 -609 m 0,37,38
 -683 -609 -683 -609 -683 -444 c 128,-1,39
 -683 -279 -683 -279 -810 -279 c 0,40,41
 -872 -279 -872 -279 -903.5 -325 c 128,-1,42
 -935 -371 -935 -371 -935 -436.5 c 128,-1,43
 -935 -502 -935 -502 -903 -555.5 c 128,-1,44
 -871 -609 -871 -609 -810 -609 c 0,37,38
EndSplineSet
Ligature2: "'blwf' Below Base Forms in Malay+AQEA-lam lookup 1 subtable" uni0D32 uni0D4D
EndChar

StartChar: uni0D2F.pb
Encoding: 65549 -1 142
Width: 505
GlyphClass: 3
Flags: W
LayerCount: 2
Fore
SplineSet
517 24 m 0,0,1
 554 -45 554 -45 554 -146.5 c 128,-1,2
 554 -248 554 -248 482.5 -329.5 c 128,-1,3
 411 -411 411 -411 292 -411 c 0,4,5
 104 -411 104 -411 41 -266 c 1,6,7
 85 -248 85 -248 108 -213 c 1,8,9
 116 -276 116 -276 162.5 -317 c 128,-1,10
 209 -358 209 -358 282 -358 c 128,-1,11
 355 -358 355 -358 405.5 -278.5 c 128,-1,12
 456 -199 456 -199 456 -104 c 128,-1,13
 456 -9 456 -9 365 135 c 0,14,15
 197 404 197 404 197 627 c 1,16,17
 192 704 192 704 218.5 807 c 128,-1,18
 245 910 245 910 291 971 c 1,19,20
 313 962 313 962 346.5 962 c 128,-1,21
 380 962 380 962 405 971 c 1,22,23
 287 827 287 827 287 595.5 c 128,-1,24
 287 364 287 364 430 154 c 0,25,26
 513 32 513 32 517 24 c 0,0,1
EndSplineSet
Ligature2: "'pstf' Post Base Forms in Malay+AQEA-lam lookup 6 subtable" uni0D2F uni0D4D
EndChar

StartChar: uni0D30.pb
Encoding: 65550 -1 143
Width: 432
GlyphClass: 3
Flags: W
LayerCount: 2
Fore
SplineSet
674 -254 m 1,0,1
 625 -264 625 -264 575 -264 c 0,2,3
 389 -264 389 -264 287 -143 c 128,-1,4
 185 -22 185 -22 189 170 c 1,5,6
 189 435 189 435 426 999 c 1,7,8
 442 944 442 944 522 938 c 1,9,10
 496 905 496 905 434.5 763 c 128,-1,11
 373 621 373 621 346 547 c 0,12,13
 191 122 191 122 336 -66 c 0,14,15
 413 -165 413 -165 560 -165 c 0,16,17
 618 -165 618 -165 655 -147 c 1,18,19
 652 -161 652 -161 652 -195.5 c 128,-1,20
 652 -230 652 -230 674 -254 c 1,0,1
EndSplineSet
Ligature2: "'pstf' Post Base Forms in Malay+AQEA-lam lookup 6 subtable" uni0D30 uni0D4D
EndChar

StartChar: uni0D35.pb
Encoding: 65551 -1 144
Width: 518
GlyphClass: 3
Flags: W
LayerCount: 2
Fore
SplineSet
477 -262 m 1,0,1
 185 -254 185 -254 133 -254 c 128,-1,2
 81 -254 81 -254 -20 -262 c 1,3,4
 -14 -241 -14 -241 -14 -221 c 256,5,6
 -14 -201 -14 -201 -20 -180 c 1,7,8
 51 -195 51 -195 172.5 -195 c 128,-1,9
 294 -195 294 -195 373 -178 c 1,10,-1
 373 543 l 2,11,12
 373 814 373 814 361 971 c 1,13,14
 383 962 383 962 416.5 962 c 128,-1,15
 450 962 450 962 475 971 c 1,16,17
 467 752 467 752 467 559 c 2,18,-1
 467 106 l 2,19,20
 467 23 467 23 477 -262 c 1,0,1
EndSplineSet
Ligature2: "'pstf' Post Base Forms in Malay+AQEA-lam lookup 6 subtable" uni0D35 uni0D4D
EndChar

StartChar: glyph142
Encoding: 65552 -1 145
Width: 2782
GlyphClass: 3
Flags: W
LayerCount: 2
Fore
SplineSet
2741 0 m 1,0,-1
 1364 0 l 1,1,2
 1371 19 1371 19 1362 57 c 1,3,4
 1393 49 1393 49 1428 49 c 0,5,6
 1525 49 1525 49 1584.5 112.5 c 128,-1,7
 1644 176 1644 176 1644 284 c 128,-1,8
 1644 392 1644 392 1567 451 c 1,9,10
 1510 498 1510 498 1342 498 c 1,11,12
 1342 283 1342 283 1272 153 c 0,13,14
 1182 -16 1182 -16 981 -16 c 128,-1,15
 780 -16 780 -16 705 170 c 1,16,17
 692 81 692 81 624 32.5 c 128,-1,18
 556 -16 556 -16 450 -16 c 128,-1,19
 344 -16 344 -16 270.5 58.5 c 128,-1,20
 197 133 197 133 197 261 c 128,-1,21
 197 389 197 389 284 464.5 c 128,-1,22
 371 540 371 540 513 546 c 0,23,24
 561 548 561 548 635 546 c 1,25,26
 637 732 637 732 720 855 c 0,27,28
 817 998 817 998 992 999.5 c 128,-1,29
 1167 1001 1167 1001 1259 854 c 1,30,31
 1338 730 1338 730 1340 546 c 1,32,33
 1345 545 1345 545 1422 545 c 0,34,35
 1579 545 1579 545 1647 492 c 1,36,37
 1752 408 1752 408 1752 268 c 128,-1,38
 1752 128 1752 128 1647 49 c 1,39,-1
 2184 49 l 1,40,41
 2196 235 2196 235 2192 471 c 1,42,43
 2132 452 2132 452 2068 452 c 0,44,45
 1949 452 1949 452 1864 527 c 128,-1,46
 1779 602 1779 602 1777 723.5 c 128,-1,47
 1775 845 1775 845 1853 923 c 128,-1,48
 1931 1001 1931 1001 2056 1000 c 0,49,50
 2289 998 2289 998 2292 758 c 1,51,-1
 2292 561 l 1,52,53
 2378 614 2378 614 2472.5 736.5 c 128,-1,54
 2567 859 2567 859 2624 971 c 1,55,56
 2645 961 2645 961 2680 961 c 128,-1,57
 2715 961 2715 961 2741 971 c 1,58,-1
 2733 645 l 1,59,-1
 2733 358 l 2,60,61
 2733 255 2733 255 2741 0 c 1,0,-1
2636 49 m 1,62,-1
 2636 643 l 1,63,64
 2634 753 2634 753 2631 848 c 1,65,66
 2470 597 2470 597 2290 496 c 1,67,-1
 2290 311 l 1,68,69
 2291 154 2291 154 2299 49 c 1,70,-1
 2636 49 l 1,62,-1
2192 533 m 1,71,-1
 2195 758 l 2,72,73
 2195 829 2195 829 2188.5 862.5 c 128,-1,74
 2182 896 2182 896 2143 923 c 128,-1,75
 2104 950 2104 950 2057 949 c 1,76,77
 1972 945 1972 945 1930.5 883.5 c 128,-1,78
 1889 822 1889 822 1890.5 732.5 c 128,-1,79
 1892 643 1892 643 1949.5 579.5 c 128,-1,80
 2007 516 2007 516 2098 516 c 0,81,82
 2156 516 2156 516 2192 533 c 1,71,-1
1225 546 m 1,83,84
 1224 691 1224 691 1201 773 c 128,-1,85
 1178 855 1178 855 1123.5 903 c 128,-1,86
 1069 951 1069 951 995 951 c 0,87,88
 739 949 739 949 750 546 c 1,89,-1
 1225 546 l 1,83,84
1225 424 m 2,90,-1
 1225 496 l 1,91,-1
 750 496 l 1,92,93
 746 411 746 411 760 293 c 0,94,95
 791 41 791 41 986 33 c 1,96,97
 1137 33 1137 33 1191 163 c 0,98,99
 1225 246 1225 246 1225 424 c 2,90,-1
656 221 m 1,100,-1
 633 496 l 1,101,102
 651 497 651 497 542 497 c 128,-1,103
 433 497 433 497 367 435 c 128,-1,104
 301 373 301 373 301 272.5 c 128,-1,105
 301 172 301 172 350.5 105.5 c 128,-1,106
 400 39 400 39 486 39 c 0,107,108
 656 39 656 39 656 221 c 1,100,-1
EndSplineSet
Ligature2: "'akhn' Akhand in Malay+AQEA-lam lookup 0 subtable" uni0D15 uni0D4D uni0D37
EndChar

StartChar: glyph143
Encoding: 65553 -1 146
Width: 4103
GlyphClass: 3
Flags: W
LayerCount: 2
Fore
SplineSet
4103 470 m 0,0,1
 4103 153 4103 153 3830 -33 c 1,2,3
 3818 15 3818 15 3780 25 c 1,4,5
 3988 184 3988 184 3988 481 c 0,6,7
 3988 677 3988 677 3868 815 c 128,-1,8
 3748 953 3748 953 3554 953 c 0,9,10
 3421 953 3421 953 3351 905 c 1,11,12
 3481 846 3481 846 3550 724.5 c 128,-1,13
 3619 603 3619 603 3619 433.5 c 128,-1,14
 3619 264 3619 264 3535 133 c 0,15,16
 3436 -20 3436 -20 3259 -20 c 128,-1,17
 3082 -20 3082 -20 2987 119 c 128,-1,18
 2892 258 2892 258 2892 427.5 c 128,-1,19
 2892 597 2892 597 2962 721 c 128,-1,20
 3032 845 3032 845 3166 907 c 1,21,22
 3094 950 3094 950 2964.5 950 c 128,-1,23
 2835 950 2835 950 2742 877.5 c 128,-1,24
 2649 805 2649 805 2649 665 c 0,25,26
 2649 252 2649 252 2660 0 c 1,27,28
 2592 19 2592 19 2543 0 c 1,29,30
 2559 198 2559 198 2559 461.5 c 128,-1,31
 2559 725 2559 725 2533 778 c 0,32,33
 2496 854 2496 854 2404 899 c 128,-1,34
 2312 944 2312 944 2220 944 c 0,35,36
 2014 944 2014 944 1904 807.5 c 128,-1,37
 1794 671 1794 671 1799 465 c 1,38,-1
 1800 436 l 1,39,40
 1829 523 1829 523 1907 574.5 c 128,-1,41
 1985 626 1985 626 2079 626 c 0,42,43
 2213 626 2213 626 2299 534 c 128,-1,44
 2385 442 2385 442 2385 303.5 c 128,-1,45
 2385 165 2385 165 2297.5 73.5 c 128,-1,46
 2210 -18 2210 -18 2063.5 -18 c 128,-1,47
 1917 -18 1917 -18 1824.5 86.5 c 128,-1,48
 1732 191 1732 191 1710 350 c 1,49,50
 1497 133 1497 133 1013 22 c 0,51,52
 756 -37 756 -37 577 -37 c 128,-1,53
 398 -37 398 -37 330 -5 c 0,54,55
 231 41 231 41 231 149.5 c 128,-1,56
 231 258 231 258 310.5 302 c 128,-1,57
 390 346 390 346 495 346 c 2,58,-1
 968 346 l 2,59,60
 1366 346 1366 346 1449 496 c 0,61,62
 1483 557 1483 557 1487 673 c 128,-1,63
 1491 789 1491 789 1418.5 870 c 128,-1,64
 1346 951 1346 951 1223 951 c 0,65,66
 1033 951 1033 951 976 784 c 0,67,68
 962 744 962 744 962 673.5 c 128,-1,69
 962 603 962 603 974 416 c 1,70,71
 951 422 951 422 915.5 422 c 128,-1,72
 880 422 880 422 859 416 c 1,73,74
 871 537 871 537 871 646 c 128,-1,75
 871 755 871 755 849 795 c 0,76,77
 763 951 763 951 575 951 c 0,78,79
 431 951 431 951 352 866 c 128,-1,80
 273 781 273 781 275 637 c 1,81,82
 301 798 301 798 462 798 c 0,83,84
 546 798 546 798 601 739.5 c 128,-1,85
 656 681 656 681 656 590.5 c 128,-1,86
 656 500 656 500 594.5 441 c 128,-1,87
 533 382 533 382 430 382 c 128,-1,88
 327 382 327 382 261 463 c 128,-1,89
 195 544 195 544 195 656 c 0,90,91
 195 814 195 814 308.5 907.5 c 128,-1,92
 422 1001 422 1001 584 1001 c 0,93,94
 814 1001 814 1001 917 854 c 1,95,96
 1033 1002 1033 1002 1225 1002 c 0,97,98
 1375 1002 1375 1002 1488 905.5 c 128,-1,99
 1601 809 1601 809 1601 661 c 0,100,101
 1601 436 1601 436 1419 352 c 0,102,103
 1296 296 1296 296 1037 296 c 2,104,-1
 954 296 l 1,105,106
 900 297 900 297 876 297 c 2,107,-1
 507 297 l 2,108,109
 343 297 343 297 343 163 c 0,110,111
 343 76 343 76 408 45 c 0,112,113
 452 23 452 23 549 23 c 0,114,115
 772 23 772 23 1031 83.5 c 128,-1,116
 1290 144 1290 144 1483 244 c 0,117,118
 1702 357 1702 357 1702 496 c 0,119,120
 1702 722 1702 722 1854 859.5 c 128,-1,121
 2006 997 2006 997 2218 997 c 128,-1,122
 2430 997 2430 997 2611 854 c 1,123,124
 2755 1000 2755 1000 2984 1000 c 0,125,126
 3152 1000 3152 1000 3265 946 c 1,127,128
 3393 1004 3393 1004 3542 1004 c 0,129,130
 3793 1004 3793 1004 3948 861.5 c 128,-1,131
 4103 719 4103 719 4103 470 c 0,0,1
3462 183 m 0,132,133
 3504 291 3504 291 3504 444 c 128,-1,134
 3504 597 3504 597 3452 713 c 0,135,136
 3384 862 3384 862 3258 862 c 0,137,138
 3222 862 3222 862 3169 831 c 0,139,140
 3006 735 3006 735 3006 442 c 0,141,142
 3006 279 3006 279 3055 173 c 1,143,144
 3120 29 3120 29 3260.5 29 c 128,-1,145
 3401 29 3401 29 3462 183 c 0,132,133
2282 309 m 128,-1,147
 2282 424 2282 424 2223.5 499 c 128,-1,148
 2165 574 2165 574 2056.5 574 c 128,-1,149
 1948 574 1948 574 1889.5 494.5 c 128,-1,150
 1831 415 1831 415 1831 306.5 c 128,-1,151
 1831 198 1831 198 1892.5 115 c 128,-1,152
 1954 32 1954 32 2061.5 32 c 128,-1,153
 2169 32 2169 32 2225.5 113 c 128,-1,146
 2282 194 2282 194 2282 309 c 128,-1,147
429 424 m 0,154,155
 555 424 555 424 555 586.5 c 128,-1,156
 555 749 555 749 426 749 c 0,157,158
 306 749 306 749 306 584 c 0,159,160
 306 518 306 518 336.5 471 c 128,-1,161
 367 424 367 424 429 424 c 0,154,155
EndSplineSet
Ligature2: "'akhn' Akhand in Malay+AQEA-lam lookup 0 subtable" uni0D1C uni0D4D uni0D1E
EndChar

StartChar: glyph144
Encoding: 65554 -1 147
Width: 2506
GlyphClass: 3
Flags: W
LayerCount: 2
Fore
SplineSet
2505 496 m 1,0,1
 2516 173 2516 173 2247 -23 c 1,2,3
 2239 18 2239 18 2211 43 c 1,4,5
 2279 83 2279 83 2335.5 194.5 c 128,-1,6
 2392 306 2392 306 2392 454 c 0,7,8
 2392 695 2392 695 2270 822.5 c 128,-1,9
 2148 950 2148 950 1979 946 c 0,10,11
 1614 938 1614 938 1565 547 c 1,12,-1
 1778 547 l 1,13,14
 1926 548 1926 548 2015 480.5 c 128,-1,15
 2104 413 2104 413 2111 278 c 1,16,17
 2110 154 2110 154 2034.5 72.5 c 128,-1,18
 1959 -9 1959 -9 1833 -13.5 c 128,-1,19
 1707 -18 1707 -18 1614.5 52 c 128,-1,20
 1522 122 1522 122 1486.5 229 c 128,-1,21
 1451 336 1451 336 1461 496 c 1,22,-1
 1342 498 l 1,23,24
 1342 283 1342 283 1272 153 c 0,25,26
 1182 -16 1182 -16 981 -16 c 128,-1,27
 780 -16 780 -16 705 170 c 1,28,29
 692 81 692 81 624 32.5 c 128,-1,30
 556 -16 556 -16 450 -16 c 128,-1,31
 344 -16 344 -16 270.5 58.5 c 128,-1,32
 197 133 197 133 197 261 c 128,-1,33
 197 389 197 389 284 464.5 c 128,-1,34
 371 540 371 540 513 546 c 0,35,36
 561 548 561 548 635 546 c 1,37,38
 637 732 637 732 720 855 c 0,39,40
 817 998 817 998 992 999.5 c 128,-1,41
 1167 1001 1167 1001 1259 854 c 1,42,43
 1338 730 1338 730 1340 546 c 1,44,45
 1356 545 1356 545 1407 546 c 128,-1,46
 1458 547 1458 547 1465 547 c 1,47,48
 1489 751 1489 751 1629 876 c 128,-1,49
 1769 1001 1769 1001 1996 997.5 c 128,-1,50
 2223 994 2223 994 2362 853.5 c 128,-1,51
 2501 713 2501 713 2505 496 c 1,0,1
1996 281 m 1,52,53
 1975 493 1975 493 1778 498 c 1,54,-1
 1561 497 l 1,55,56
 1559 473 1559 473 1559 436 c 0,57,58
 1559 45 1559 45 1807 38 c 1,59,60
 1905 39 1905 39 1953.5 112 c 128,-1,61
 2002 185 2002 185 1996 281 c 1,52,53
1225 546 m 1,62,63
 1224 691 1224 691 1201 773 c 128,-1,64
 1178 855 1178 855 1123.5 903 c 128,-1,65
 1069 951 1069 951 995 951 c 0,66,67
 739 949 739 949 750 546 c 1,68,-1
 1225 546 l 1,62,63
1225 424 m 2,69,-1
 1225 496 l 1,70,-1
 750 496 l 1,71,72
 746 411 746 411 760 293 c 0,73,74
 791 41 791 41 986 33 c 1,75,76
 1137 33 1137 33 1191 163 c 0,77,78
 1225 246 1225 246 1225 424 c 2,69,-1
656 221 m 1,79,-1
 633 496 l 1,80,81
 651 497 651 497 542 497 c 128,-1,82
 433 497 433 497 367 435 c 128,-1,83
 301 373 301 373 301 272.5 c 128,-1,84
 301 172 301 172 350.5 105.5 c 128,-1,85
 400 39 400 39 486 39 c 0,86,87
 656 39 656 39 656 221 c 1,79,-1
EndSplineSet
Ligature2: "'akhn' Akhand in Malay+AQEA-lam lookup 0 subtable" uni0D15 uni0D4D uni0D15
EndChar

StartChar: glyph145
Encoding: 65555 -1 148
Width: 1752
GlyphClass: 3
Flags: W
LayerCount: 2
Fore
SplineSet
1647 492 m 0,0,1
 1752 409 1752 409 1752 269 c 128,-1,2
 1752 129 1752 129 1648 53.5 c 128,-1,3
 1544 -22 1544 -22 1395 -19 c 1,4,-1
 1371 -18 l 1,5,6
 1375 -4 1375 -4 1375 16.5 c 128,-1,7
 1375 37 1375 37 1362 57 c 1,8,9
 1394 49 1394 49 1428 49 c 0,10,11
 1525 49 1525 49 1584.5 112.5 c 128,-1,12
 1644 176 1644 176 1644 282 c 0,13,14
 1644 498 1644 498 1377 498 c 2,15,-1
 1342 498 l 1,16,17
 1342 283 1342 283 1272 152 c 0,18,19
 1182 -16 1182 -16 981 -16 c 128,-1,20
 780 -16 780 -16 705 170 c 1,21,22
 692 81 692 81 624 32.5 c 128,-1,23
 556 -16 556 -16 450.5 -16 c 128,-1,24
 345 -16 345 -16 271 58.5 c 128,-1,25
 197 133 197 133 197 265.5 c 128,-1,26
 197 398 197 398 299 477 c 1,27,28
 216 575 216 575 216 703.5 c 128,-1,29
 216 832 216 832 287 908.5 c 128,-1,30
 358 985 358 985 477 985 c 0,31,32
 651 985 651 985 730 868 c 1,33,34
 827 1000 827 1000 997.5 1000 c 128,-1,35
 1168 1000 1168 1000 1260 853 c 0,36,37
 1338 730 1338 730 1340 546 c 1,38,-1
 1371 545 l 1,39,40
 1490 544 1490 544 1515 541 c 0,41,42
 1597 531 1597 531 1647 492 c 0,0,1
1225 546 m 1,43,44
 1223 951 1223 951 995 951 c 0,45,46
 744 951 744 951 750 570 c 1,47,-1
 750 546 l 1,48,-1
 1225 546 l 1,43,44
1226 471 m 1,49,-1
 1225 496 l 1,50,-1
 750 496 l 1,51,-1
 750 472 l 2,52,53
 750 33 750 33 986 33 c 0,54,55
 1149 33 1149 33 1200 184 c 0,56,57
 1229 272 1229 272 1226 471 c 1,49,-1
680 780 m 1,58,59
 640 937 640 937 501 937 c 0,60,61
 414 937 414 937 365 871.5 c 128,-1,62
 316 806 316 806 316 703 c 128,-1,63
 316 600 316 600 367 515 c 1,64,65
 442 547 442 547 568 547 c 0,66,67
 597 547 597 547 635 546 c 1,68,69
 637 676 637 676 680 780 c 1,58,59
656 221 m 1,70,-1
 633 496 l 1,71,72
 652 497 652 497 542.5 497 c 128,-1,73
 433 497 433 497 367 434.5 c 128,-1,74
 301 372 301 372 301 272 c 128,-1,75
 301 172 301 172 350.5 105.5 c 128,-1,76
 400 39 400 39 486 39 c 0,77,78
 656 39 656 39 656 221 c 1,70,-1
EndSplineSet
Ligature2: "'akhn' Akhand in Malay+AQEA-lam lookup 0 subtable" uni0D19 uni0D4D uni0D15
EndChar

StartChar: glyph146
Encoding: 65556 -1 149
Width: 950
GlyphClass: 3
Flags: W
LayerCount: 2
Fore
SplineSet
950 282 m 0,0,1
 950 113 950 113 778 37 c 1,2,3
 943 -38 943 -38 943 -223 c 1,4,5
 942 -364 942 -364 837.5 -435 c 128,-1,6
 733 -506 733 -506 583 -508 c 1,7,8
 310 -508 310 -508 197 -310 c 1,9,10
 242 -295 242 -295 272 -257 c 1,11,12
 337 -459 337 -459 573 -459 c 0,13,14
 691 -459 691 -459 765 -393.5 c 128,-1,15
 839 -328 839 -328 839 -224.5 c 128,-1,16
 839 -121 839 -121 787 -60.5 c 128,-1,17
 735 0 735 0 645 0 c 2,18,-1
 482 0 l 2,19,20
 430 0 430 0 330 -10 c 1,21,22
 337 14 337 14 337 50.5 c 128,-1,23
 337 87 337 87 330 104 c 1,24,25
 420 87 420 87 499 89 c 128,-1,26
 578 91 578 91 590 91 c 0,27,28
 851 91 851 91 859 264 c 1,29,30
 859 378 859 378 771 418 c 0,31,32
 714 444 714 444 588 444 c 0,33,34
 259 444 259 444 259 714 c 0,35,36
 259 845 259 845 357.5 923.5 c 128,-1,37
 456 1002 456 1002 590 1002 c 1,38,39
 696 1006 696 1006 790.5 955.5 c 128,-1,40
 885 905 885 905 928 811 c 1,41,42
 886 806 886 806 860 765 c 1,43,44
 802 949 802 949 596 949 c 1,45,46
 496 948 496 948 427.5 890 c 128,-1,47
 359 832 359 832 359 726.5 c 128,-1,48
 359 621 359 621 452 582 c 1,49,50
 510 559 510 559 642.5 559 c 128,-1,51
 775 559 775 559 862.5 486 c 128,-1,52
 950 413 950 413 950 282 c 0,0,1
EndSplineSet
Ligature2: "'akhn' Akhand in Malay+AQEA-lam lookup 0 subtable" uni0D1F uni0D4D uni0D1F
EndChar

